<svg xmlns="http://www.w3.org/2000/svg" width="20.82" height="20.85" viewBox="0 0 20.82 20.85">
    <defs>
        <style>
            .a {
            fill: #f4ebd0;
            }

            .b {
            fill: #b78d40;
            }
        </style>
    </defs>
    <title>еуые</title>
    <g>
        <circle class="a" cx="10.42" cy="10.43" r="10.38"/>
        <path class="b" d="M18,3.37a11.35,11.35,0,0,0-2.54-1.69A10.05,10.05,0,0,0,12.61.73a10.29,10.29,0,0,0-5.79.57A9.73,9.73,0,0,0,4.26,2.72,12.53,12.53,0,0,0,2.19,4.83a11.58,11.58,0,0,0-2.13,5.6v0H0v0A11.81,11.81,0,0,1,.45,7.36a11.63,11.63,0,0,1,1.34-2.8A10.58,10.58,0,0,1,6.59.72,10.49,10.49,0,0,1,12.71.26,10.32,10.32,0,0,1,18,3.32l0,0-.05,0Z"/>
        <g>
            <path d="M16,3.13Z"/>
            <path d="M4.57,3.13Z"/>
            <path d="M16.2,6.24l0,0A3.22,3.22,0,0,0,16,3.15l0,0h0A4.38,4.38,0,0,0,12.87,4.5a6.71,6.71,0,0,0-2.61-.37,6.71,6.71,0,0,0-2.61.37A4.35,4.35,0,0,0,4.58,3.13h0v0a3.24,3.24,0,0,0-.22,3.06l0,0A5.22,5.22,0,0,0,3.15,11c.64,3.42,4.91,3.94,4.91,3.94a2.07,2.07,0,0,0-.23.74c0,.25,0,.49,0,.71a2.65,2.65,0,0,1-.93.13A2.56,2.56,0,0,1,5.2,16a2.42,2.42,0,0,1-.46-.49A1.25,1.25,0,0,0,4.43,15a2.34,2.34,0,0,0-.71-.51,1.44,1.44,0,0,0-.55-.14.94.94,0,0,0-.36,0s-.16,0-.16.08a.24.24,0,0,0,0,.13c0,.07.12.15.12.15s.19.16.33.26a2.34,2.34,0,0,1,.37.38,5.51,5.51,0,0,1,.65,1.18,2.37,2.37,0,0,0,.91,1A3.4,3.4,0,0,0,6.09,18a5.58,5.58,0,0,0,1.09.06,3,3,0,0,0,.63-.1c0,1,0,1.39,0,1.44a.85.85,0,0,1-.89.8,14.75,14.75,0,0,0,3.31.56,14,14,0,0,0,3.31-.56.86.86,0,0,1-.89-.8c0-.08.08-.86,0-3.73a2.15,2.15,0,0,0-.22-.74s4.26-.52,4.9-3.94A5.22,5.22,0,0,0,16.2,6.24Z"/>
        </g>
        <path class="b" d="M20.82,10.43a11.73,11.73,0,0,1-.45,3.06A11.46,11.46,0,0,1,19,16.29a10.58,10.58,0,0,1-4.79,3.85,10.61,10.61,0,0,1-6.13.46A10.44,10.44,0,0,1,2.8,17.53l0,0,0,0,0,0a12.14,12.14,0,0,0,2.55,1.69,10.24,10.24,0,0,0,2.83.94A10.39,10.39,0,0,0,14,19.56a10.06,10.06,0,0,0,2.56-1.43A12.48,12.48,0,0,0,18.63,16a11.4,11.4,0,0,0,2.13-5.59v0h.06Z"/>
        <g>
            <path class="b" d="M16.31,2.89Z"/>
            <path class="b" d="M4.93,2.89Z"/>
            <path class="b" d="M16.56,6l0,0a3.22,3.22,0,0,0-.21-3.06v0h0a4.38,4.38,0,0,0-3.07,1.38,6.6,6.6,0,0,0-2.61-.38A6.54,6.54,0,0,0,8,4.27,4.41,4.41,0,0,0,4.94,2.89h0l0,0A3.22,3.22,0,0,0,4.7,6l0,0a5.24,5.24,0,0,0-1.17,4.76c.64,3.42,4.9,3.94,4.9,3.94a2.15,2.15,0,0,0-.22.74c0,.26,0,.49,0,.71a2.85,2.85,0,0,1-.94.14,2.66,2.66,0,0,1-1.68-.56,2.34,2.34,0,0,1-.46-.5,1.36,1.36,0,0,0-.32-.43,2.38,2.38,0,0,0-.7-.51,1.44,1.44,0,0,0-.55-.14,1,1,0,0,0-.37,0s-.15,0-.16.09a.39.39,0,0,0,0,.12.38.38,0,0,0,.13.16s.18.15.33.25a2.9,2.9,0,0,1,.37.38,6,6,0,0,1,.64,1.18,2.48,2.48,0,0,0,.91,1,3.26,3.26,0,0,0,1.07.43,5.5,5.5,0,0,0,1.09.06,2.28,2.28,0,0,0,.62-.1c0,1,0,1.39,0,1.44a.84.84,0,0,1-.88.8,15,15,0,0,0,3.31.57A14.47,14.47,0,0,0,13.93,20a.84.84,0,0,1-.89-.8c0-.08.07-.86,0-3.73a1.93,1.93,0,0,0-.22-.74s4.27-.52,4.91-3.94A5.24,5.24,0,0,0,16.56,6Z"/>
        </g>
    </g>
</svg>
