<svg width="134" height="75" viewBox="0 0 134 75" fill="none" xmlns="http://www.w3.org/2000/svg">
    <path d="M6.1601 72.9998C7.4401 69.4198 10.3501 66.2398 12.9401 63.5798C22.1901 54.0998 34.4201 47.7898 46.5201 42.7798C50.0201 41.3398 45.8501 38.9798 43.6101 39.9098C30.9901 45.1298 18.3301 51.5798 8.54009 61.2998C5.54009 64.2998 2.05009 68.0198 0.59009 72.1198C-0.25991 74.4998 5.4401 75.0298 6.1601 72.9998Z" fill="#F4EBD0"/>
    <path d="M23.1808 42.2998C12.0808 25.9398 43.8609 -4.53023 103.541 2.93977C114.881 4.36977 115.111 1.45977 130.821 0.509766C130.821 0.509766 121.191 2.45977 109.701 18.4098C77.5309 63.0798 42.1408 70.2598 23.1808 42.2998Z" fill="#B68D40"/>
    <path d="M25.5716 42.5698C15.6416 27.2198 38.7416 12.9898 50.1416 8.56981C65.4616 2.56981 82.6316 1.15981 98.9116 2.62981C104.092 3.09981 109.262 4.05981 114.462 3.49981C120.732 2.81981 126.792 1.27981 133.122 0.84981L128.512 0.269809C121.922 1.70981 115.992 7.70981 111.782 12.5398C106.612 18.4598 102.342 25.0898 97.1216 30.9898C92.4627 36.3261 87.3171 41.2172 81.7516 45.5998C73.2016 52.2198 62.9016 57.9098 51.8816 58.5298C40.8616 59.1498 31.4916 51.1298 25.5716 42.6198C24.8916 41.6198 21.2816 42.8098 20.7816 42.0898C32.8416 59.4298 54.4016 63.3698 73.0916 54.5298C87.4916 47.7198 99.0916 35.7098 108.712 23.2598C114.832 15.3198 122.352 3.19981 133.122 0.84981C132.252 1.03981 129.832 0.179809 128.512 0.269809C122.182 0.699809 116.122 2.26981 109.852 2.91981C102.702 3.67981 95.0416 1.82981 87.8516 1.60981C74.0016 1.12981 60.0016 2.60981 47.0016 7.38981C35.3616 11.6598 10.5016 26.1098 20.8116 42.0398C21.4116 42.9998 25.1216 41.8698 25.5716 42.5698Z" fill="#F4EBD0"/>
    <path d="M21.8516 52.5098C35.5516 42.7798 49.6016 33.5098 64.1516 25.1298C71.4416 20.9998 78.8716 16.9998 86.5316 13.5498C88.4416 12.6898 90.3916 11.8998 92.3216 11.0798C94.2516 10.2598 96.2415 9.55983 98.2415 8.90983C100.242 8.25983 102.242 7.59982 104.292 7.16982C106.33 6.6732 108.397 6.30581 110.482 6.06982C108.404 6.34043 106.346 6.74798 104.322 7.28983C102.272 7.75983 100.322 8.47982 98.3216 9.13982C96.3216 9.79982 94.4216 10.6498 92.4716 11.4098C90.5216 12.1698 88.6315 13.0998 86.7415 13.9898C79.1715 17.5898 71.8415 21.6598 64.6516 25.9898C50.3015 34.6398 36.4616 44.1298 23.0016 54.0998L21.8516 52.5098Z" fill="#F4EBD0"/>
    <path d="M33.9094 44.6997C33.5312 42.7236 33.3935 40.709 33.4994 38.6997C33.634 36.7078 33.969 34.7345 34.4994 32.8097C35.5577 29.039 36.8604 25.3411 38.3994 21.7397C37.1553 25.4305 36.1532 29.1985 35.3994 33.0197C35.0499 34.8989 34.8924 36.8087 34.9294 38.7197C34.9792 40.6065 35.2579 42.4802 35.7594 44.2998L33.9094 44.6997Z" fill="#F4EBD0"/>
    <path d="M34.0517 45C35.5593 46.8709 37.3632 48.4823 39.3917 49.77C41.4618 51.1004 43.6801 52.1844 46.0017 53C47.1773 53.3939 48.3722 53.7276 49.5817 54C50.791 54.2945 52.0164 54.5182 53.2517 54.67C54.4817 54.88 55.7317 54.89 56.9817 55C58.2317 55.11 59.4817 55 60.7417 55C59.4917 55.07 58.2317 55.18 56.9717 55.22C55.7117 55.26 54.4517 55.22 53.2017 55.13C51.9379 55.0531 50.6793 54.9062 49.4317 54.69C48.1787 54.4877 46.9371 54.2207 45.7117 53.89C43.2494 53.1908 40.8768 52.2076 38.6417 50.96C36.3378 49.699 34.265 48.0556 32.5117 46.1L34.0517 45Z" fill="#F4EBD0"/>
    <path d="M43.7216 38.4399C45.2868 39.9451 47.0496 41.2303 48.9615 42.2599C50.9069 43.329 52.9453 44.2193 55.0515 44.9199C57.1749 45.6087 59.3479 46.1335 61.5515 46.4899C62.6515 46.7099 63.7716 46.7799 64.8816 46.9299C65.9916 47.0799 67.1215 47.0699 68.2415 47.1399C67.1215 47.1399 65.9916 47.1399 64.8716 47.1399C63.7516 47.1399 62.6116 47.0499 61.5016 46.8999C59.2504 46.6637 57.0206 46.2558 54.8315 45.6799C52.6312 45.0842 50.4892 44.291 48.4315 43.3099C46.3212 42.3244 44.3589 41.0487 42.6016 39.5199L43.7216 38.4399Z" fill="#F4EBD0"/>
    <path d="M52.7509 32.77C57.698 35.3378 62.964 37.2377 68.4109 38.42C71.1483 38.9692 73.9295 39.2704 76.7209 39.32C79.5234 39.2985 82.3095 38.8914 85.0009 38.11C82.3268 38.9895 79.5437 39.4943 76.731 39.61C73.9113 39.6589 71.093 39.4514 68.3109 38.99C65.5311 38.4888 62.7882 37.8006 60.101 36.93C57.4007 36.0693 54.7642 35.0201 52.2109 33.79L52.7509 32.77Z" fill="#F4EBD0"/>
    <path d="M62.5911 26C68.0688 27.288 73.6187 28.2464 79.2111 28.87C82.0063 29.1849 84.8184 29.3252 87.6311 29.29C89.0386 29.2598 90.4421 29.1294 91.8311 28.9C93.2379 28.6956 94.5944 28.231 95.8311 27.53C94.622 28.2718 93.2863 28.7838 91.8911 29.04C90.5031 29.3223 89.0958 29.4994 87.6811 29.57C84.8515 29.7151 82.0155 29.675 79.1911 29.45C73.5434 29.0108 67.9268 28.2361 62.3711 27.13L62.5911 26Z" fill="#F4EBD0"/>
    <path d="M76.6898 18.3296C80.5632 18.9096 84.4465 19.4129 88.3398 19.8396C90.2798 20.0396 92.2298 20.2196 94.1898 20.3296C95.1898 20.3296 96.1398 20.4196 97.1198 20.4096C97.6072 20.4148 98.0945 20.3947 98.5798 20.3496C99.0693 20.3186 99.5548 20.2416 100.03 20.1196C99.0803 20.3712 98.1022 20.4989 97.1198 20.4996C96.1198 20.4996 95.1198 20.4996 94.1798 20.4996C92.1798 20.4996 90.2598 20.3396 88.2998 20.1996C84.3865 19.9129 80.4832 19.5396 76.5898 19.0796L76.6898 18.3296Z" fill="#F4EBD0"/>
    <path d="M42.3906 38.89C42.3906 36.97 42.4906 35.1 42.6406 33.21C42.7906 31.32 43.0106 29.45 43.3306 27.59C43.6302 25.7252 44.0613 23.884 44.6206 22.08C45.1644 20.2806 45.9661 18.5695 47.0006 17C46.0811 18.6288 45.4072 20.3844 45.0006 22.21C44.5607 24.0177 44.2599 25.8564 44.1006 27.71C43.9106 29.56 43.8206 31.43 43.8006 33.29C43.7806 35.15 43.8006 37.02 43.9306 38.84L42.3906 38.89Z" fill="#F4EBD0"/>
    <path d="M51.4609 33.0898C51.5309 31.1598 51.701 29.2598 51.921 27.3498C52.141 25.4398 52.451 23.5498 52.851 21.6698C53.2398 19.792 53.7816 17.9492 54.4709 16.1598C55.1264 14.3509 56.1476 12.6964 57.4709 11.2998C56.2304 12.7588 55.3105 14.4623 54.7709 16.2998C54.1693 18.098 53.7243 19.9449 53.4409 21.8198C53.1409 23.6898 52.9209 25.5798 52.8009 27.4698C52.6809 29.3598 52.611 31.2598 52.641 33.1298L51.4609 33.0898Z" fill="#F4EBD0"/>
    <path d="M62.6211 26.2499C62.6911 24.6699 62.8511 23.1199 63.0711 21.5699C63.2872 20.029 63.5978 18.5028 64.0011 16.9999C64.3824 15.4836 64.9395 14.017 65.6611 12.6299C66.3334 11.2126 67.3991 10.0185 68.7311 9.18994C67.4691 10.0834 66.4931 11.3234 65.9211 12.7599C65.2988 14.1585 64.8423 15.6252 64.5611 17.1299C63.9746 20.1366 63.7098 23.1972 63.7711 26.2599L62.6211 26.2499Z" fill="#F4EBD0"/>
    <path d="M75.5195 19.0599C76.0138 16.2508 76.9809 13.5458 78.3795 11.0599C79.1119 9.85802 79.9921 8.75272 80.9995 7.76992C82.0148 6.80046 83.1841 6.00633 84.4595 5.41992C83.2224 6.05579 82.1003 6.89402 81.1396 7.89993C80.2076 8.92593 79.408 10.0648 78.7596 11.2899C78.1262 12.5209 77.6041 13.806 77.1996 15.1299C76.8006 16.4378 76.5064 17.7754 76.3195 19.1299L75.5195 19.0599Z" fill="#F4EBD0"/>
    <path d="M89.7188 12.1698C92.5687 11.8498 95.4187 11.6298 98.2787 11.5298C99.7087 11.5298 101.139 11.5298 102.559 11.5298C103.99 11.556 105.41 11.7988 106.769 12.2498C105.404 11.833 103.985 11.624 102.559 11.6298C101.129 11.6298 99.7087 11.6298 98.2787 11.7098C95.4387 11.8698 92.5887 12.1598 89.7687 12.5398L89.7188 12.1698Z" fill="#F4EBD0"/>
</svg>
