<svg width="64" height="64" viewBox="0 0 64 64" fill="none" xmlns="http://www.w3.org/2000/svg">
    <g clip-path="url(#clip0)">
        <path d="M31.9988 63.8408C49.6173 63.8408 63.8999 49.5852 63.8999 32C63.8999 14.4148 49.6173 0.15918 31.9988 0.15918C14.3803 0.15918 0.0976562 14.4148 0.0976562 32C0.0976562 49.5852 14.3803 63.8408 31.9988 63.8408Z" fill="#F4EBD0"/>
        <path d="M32.3425 45.0289C16.3218 45.0289 1.53242 39.7751 6.71954 34.5978C12.7488 28.5799 7.3129 24.2432 17.8339 21.2247C19.9585 20.5879 21.8151 19.6836 32.3425 19.6836C42.8699 19.6836 44.7201 20.5879 46.8448 21.1737C57.3721 24.2177 51.9489 28.5544 57.9591 34.5469C63.1462 39.7751 48.3633 45.0289 32.3425 45.0289Z" fill="black" stroke="black" stroke-width="0.85" stroke-miterlimit="10"/>
        <path d="M55.2527 10.3483C50.5663 6.23499 44.8632 3.44712 38.7343 2.27343C35.752 1.71731 32.7046 1.59504 29.6872 1.91045C28.9352 1.96063 28.1872 2.05847 27.4477 2.20338C26.7008 2.29455 25.961 2.43711 25.2338 2.63005L23.0645 3.20318L20.9463 3.9801C18.1333 5.07777 15.496 6.57951 13.1177 8.43781C10.7187 10.2968 8.57369 12.4613 6.73751 14.876C4.94167 17.3622 3.46285 20.0618 2.33516 22.9126C1.28135 25.8519 0.562241 28.9002 0.191407 32V32.0955H0V32C0.0341457 28.8156 0.495497 25.65 1.37175 22.5879C2.35271 19.5511 3.74592 16.6628 5.51251 14.0036C7.33143 11.3771 9.51143 9.019 11.9884 6.99861L13.9025 5.5594C14.5405 5.11363 15.2551 4.71881 15.9314 4.28577C16.6099 3.86233 17.3177 3.48778 18.0496 3.16497C18.7568 2.79243 19.4879 2.46694 20.2381 2.19065L22.4967 1.43284L24.8191 0.79602C25.5935 0.606319 26.3801 0.470142 27.1734 0.388458C27.9595 0.243152 28.7546 0.151662 29.5532 0.114627L31.9458 0C32.7433 0 33.5408 0 34.3384 0.0955224C42.3863 0.689092 49.9098 4.30492 55.3931 10.2145L55.4569 10.2846L55.3293 10.4056L55.2527 10.3483Z" fill="#B68D40"/>
        <path d="M63.992 31.9998C63.9579 35.1843 63.4965 38.3498 62.6203 41.412C61.6453 44.4477 60.2586 47.336 58.4987 49.9962C56.6797 52.6227 54.4998 54.9808 52.0227 57.0012L50.1087 58.4404C49.4707 58.8862 48.7561 59.281 48.0798 59.714C47.4013 60.1375 46.6934 60.512 45.9615 60.8348C45.2544 61.2074 44.5233 61.5329 43.7731 61.8092L41.5209 62.6243L39.173 63.2038C38.399 63.3999 37.6123 63.5425 36.8187 63.6305C36.0326 63.7758 35.2375 63.8673 34.4389 63.9043L32.0463 64.0189C31.2487 64.0189 30.4512 64.0189 29.6537 63.9234C21.6058 63.3298 14.0823 59.714 8.59896 53.8044L8.53516 53.7343L8.66276 53.6134L8.73932 53.677C13.4286 57.7811 19.1314 60.5601 25.2577 61.7264C28.2401 62.2825 31.2874 62.4048 34.3049 62.0894C35.0568 62.0392 35.8048 61.9414 36.5443 61.7964C37.2913 61.7053 38.031 61.5627 38.7583 61.3698L40.9339 60.7966L43.0458 60.0197C45.8588 58.9221 48.4961 57.4203 50.8743 55.562C53.2734 53.703 55.4183 51.5385 57.2545 49.1238C59.0504 46.6376 60.5292 43.938 61.6569 41.0872C62.7107 38.1479 63.4298 35.0996 63.8006 31.9998V31.9043H63.9793L63.992 31.9998Z" fill="#B68D40"/>
        <path d="M31.7019 44.3922C15.6811 44.3922 0.891793 39.1384 6.07891 33.9611C12.1082 27.9432 6.67227 23.6065 17.1933 20.588C19.3179 19.9512 21.1745 19.0469 31.7019 19.0469C42.2292 19.0469 44.0795 19.9512 46.2041 20.537C56.7315 23.581 51.3083 27.9177 57.3185 33.9102C62.5056 39.1384 47.7226 44.3922 31.7019 44.3922Z" fill="#D6AD60" stroke="black" stroke-width="1.08" stroke-miterlimit="10"/>
        <path d="M5.44676 34.7451C5.43799 35.0381 5.49016 35.3297 5.59997 35.6015C5.70979 35.8733 5.87487 36.1195 6.08479 36.3244C6.47468 36.7668 6.92082 37.1564 7.41187 37.4834C8.39229 38.142 9.44832 38.6807 10.5573 39.0882C12.7811 39.9143 15.0835 40.5117 17.4288 40.8713C22.1406 41.5841 26.9049 41.893 31.6695 41.7947C36.434 41.8896 41.198 41.5807 45.9101 40.8713C48.2527 40.5087 50.5527 39.9113 52.7752 39.0882C53.8857 38.6795 54.9437 38.1408 55.9271 37.4834C56.4165 37.1543 56.8624 36.7649 57.2542 36.3244C57.4632 36.1188 57.6276 35.8725 57.7374 35.6008C57.8471 35.3292 57.8998 35.0379 57.8922 34.7451C57.9376 35.0464 57.9209 35.3538 57.843 35.6483C57.7651 35.9429 57.6277 36.2185 57.4392 36.4582C57.0721 36.9465 56.6432 37.3853 56.1631 37.7636C55.2032 38.5102 54.1581 39.1408 53.0496 39.6422C50.8288 40.6332 48.502 41.3682 46.1143 41.8329C41.3626 42.7328 36.5306 43.1404 31.695 43.0492C26.857 43.1415 22.0225 42.7317 17.2693 41.8265C14.8846 41.3692 12.5615 40.6362 10.3468 39.6422C9.23883 39.1306 8.19578 38.4893 7.23961 37.7318C6.76011 37.365 6.33108 36.9367 5.96356 36.4582C5.76253 36.2244 5.61271 35.9512 5.52371 35.6562C5.43471 35.3612 5.4085 35.0508 5.44676 34.7451Z" fill="#B68D40"/>
        <path d="M11.3267 23.6387C11.2663 23.8544 11.264 24.0822 11.32 24.2991C11.3761 24.516 11.4884 24.7144 11.6457 24.8741C11.9524 25.1913 12.316 25.4484 12.7176 25.6319C13.5318 26.0184 14.3882 26.309 15.2697 26.498C17.0545 26.8957 18.8642 27.1722 20.6865 27.3258C22.5112 27.485 24.336 27.6124 26.1735 27.657C28.011 27.7016 29.8421 27.7525 31.686 27.7398C33.5299 27.727 35.361 27.7398 37.1985 27.657C39.036 27.5742 40.8607 27.485 42.6855 27.3258C44.5056 27.1722 46.3133 26.8956 48.0959 26.498C48.9777 26.3103 49.8343 26.0196 50.648 25.6319C51.0698 25.4541 51.4532 25.1968 51.7773 24.8741C51.9346 24.7144 52.047 24.516 52.103 24.2991C52.159 24.0822 52.1567 23.8544 52.0963 23.6387C52.1929 23.8655 52.2238 24.1148 52.1856 24.3583C52.1455 24.588 52.0539 24.8057 51.9177 24.9951C51.6319 25.3808 51.2718 25.7056 50.8585 25.9503C50.0562 26.4383 49.1998 26.8315 48.3065 27.1221C46.5238 27.68 44.6967 28.0848 42.845 28.332C39.1596 28.8301 35.4431 29.0621 31.7243 29.0261C28.0055 29.0621 24.2889 28.8301 20.6035 28.332C18.7502 28.079 16.9213 27.6721 15.1357 27.1157C14.2433 26.8228 13.3871 26.4297 12.5836 25.9439C12.1594 25.7045 11.7883 25.3817 11.4926 24.9951C11.3544 24.806 11.2607 24.5884 11.2182 24.3583C11.186 24.113 11.2236 23.8636 11.3267 23.6387Z" fill="#122620"/>
        <path d="M49.154 23.3079C48.896 23.3785 48.6442 23.4701 48.4012 23.5817H48.331C48.35 23.5575 48.3632 23.5291 48.3693 23.4989C48.3693 23.1933 47.6483 22.8621 46.6977 22.8112C46.1248 22.71 45.5345 22.8019 45.0197 23.0723C44.8665 22.9958 44.6943 22.9131 44.5156 22.843C43.6288 22.4991 42.8185 22.4545 42.71 22.7347C42.7037 22.7663 42.7037 22.7987 42.71 22.8303C42.3395 22.7803 41.964 22.7803 41.5935 22.8303C41.5935 22.5501 40.9172 22.3845 40.1452 22.4673H40.1005C40.1452 22.1871 39.5773 21.8305 38.8245 21.7031C38.0716 21.5757 37.4846 21.6585 37.3698 21.9005C37.2932 21.6331 36.6424 21.5439 35.8959 21.7095C35.6553 21.7559 35.4216 21.833 35.2005 21.9387L34.9836 21.8114C34.8102 21.6816 34.6291 21.5625 34.4412 21.4547C33.6182 20.9771 32.8271 20.8179 32.6739 21.0727C32.6037 21.1937 32.6739 21.3911 32.8781 21.6139C32.7197 21.6193 32.5619 21.6363 32.406 21.6649C32.2552 21.6927 32.1061 21.7289 31.9593 21.7732C32.0614 21.6713 32.1125 21.5694 32.0869 21.4802C32.0104 21.1873 31.2001 21.1491 30.2813 21.3974C29.9093 21.4963 29.5512 21.6418 29.2158 21.8305C28.6608 21.7286 28.2141 21.754 28.0738 21.9196H28.01C28.1376 21.8177 28.2078 21.7158 28.195 21.6203C28.144 21.321 27.3464 21.2 26.4085 21.3465C25.8424 21.3951 25.3052 21.6176 24.8709 21.9833C24.6099 21.935 24.3452 21.9095 24.0798 21.9069C24.104 21.8573 24.1166 21.8029 24.1166 21.7477C24.1166 21.6925 24.104 21.6381 24.0798 21.5885C23.9585 21.4038 23.5183 21.4738 22.9887 21.7158C22.5926 21.6197 22.1791 21.6197 21.7829 21.7158C21.0236 21.8496 20.4494 22.1935 20.5068 22.4737C20.5068 22.4737 20.5068 22.5055 20.5068 22.5246C19.8178 22.4291 19.2882 22.5246 19.2308 22.7411C18.8916 22.544 18.512 22.4264 18.1206 22.3972C17.3486 22.3081 16.6978 22.4673 16.6659 22.7475C16.663 22.7665 16.663 22.7858 16.6659 22.8048C16.2661 22.6794 15.8438 22.6424 15.4282 22.6965C14.771 22.3909 14.2734 23.085 14.771 23.4161C14.375 23.532 14.0077 23.7294 13.6928 23.9956C13.176 23.932 13.2461 24.9127 14.1075 25.212L13.5014 25.2947C13.1632 26.1927 18.6055 28.4342 31.7488 28.396C44.8921 28.3578 50.2961 26.2691 49.9643 25.3521L50.3918 25.1037C50.4747 24.9127 50.2068 24.5879 49.7538 24.2822C50.5003 24.0275 50.0664 23.085 49.154 23.3079Z" fill="#B68D40"/>
    </g>
    <defs>
        <clipPath id="clip0">
            <rect width="64" height="64" fill="white"/>
        </clipPath>
    </defs>
</svg>
