<svg width="64" height="64" viewBox="0 0 64 64" fill="none" xmlns="http://www.w3.org/2000/svg">
    <g clip-path="url(#clip0)">
        <path d="M31.9988 63.8408C49.6173 63.8408 63.8999 49.5852 63.8999 32C63.8999 14.4148 49.6173 0.15918 31.9988 0.15918C14.3803 0.15918 0.0976562 14.4148 0.0976562 32C0.0976562 49.5852 14.3803 63.8408 31.9988 63.8408Z" fill="#F4EBD0"/>
        <path d="M63.992 31.9998C63.9579 35.1843 63.4965 38.3498 62.6203 41.412C61.6453 44.4477 60.2586 47.336 58.4987 49.9962C56.6797 52.6227 54.4998 54.9808 52.0227 57.0012L50.1087 58.4404C49.4707 58.8862 48.7561 59.281 48.0798 59.714C47.4013 60.1375 46.6934 60.512 45.9615 60.8348C45.2544 61.2074 44.5233 61.5329 43.7731 61.8092L41.5209 62.6243L39.173 63.2038C38.399 63.3999 37.6123 63.5425 36.8187 63.6305C36.0326 63.7758 35.2375 63.8673 34.4389 63.9043L32.0463 64.0189C31.2487 64.0189 30.4512 64.0189 29.6537 63.9234C21.6058 63.3298 14.0823 59.714 8.59896 53.8044L8.53516 53.7343L8.66276 53.6134L8.73932 53.677C13.4286 57.7811 19.1314 60.5601 25.2577 61.7264C28.2401 62.2825 31.2874 62.4048 34.3049 62.0894C35.0568 62.0392 35.8048 61.9414 36.5443 61.7964C37.2913 61.7053 38.031 61.5627 38.7583 61.3698L40.9339 60.7966L43.0458 60.0197C45.8588 58.9221 48.4961 57.4203 50.8743 55.562C53.2734 53.703 55.4183 51.5385 57.2545 49.1238C59.0504 46.6376 60.5292 43.938 61.6569 41.0872C62.7107 38.1479 63.4298 35.0996 63.8006 31.9998V31.9043H63.9793L63.992 31.9998Z" fill="#B68D40"/>
        <path d="M58.0782 44.2333C54.2501 40.4124 54.3649 40.0494 49.2416 36.133C49.5686 35.5522 49.711 34.886 49.6499 34.2226C49.4139 32.9489 48.8971 31.8281 47.0978 31.8281C45.2986 31.8281 44.9669 35.0632 44.9796 35.1841C39.0141 34.178 36.864 37.3302 31.8683 36.0884C19.7458 33.0699 13.1806 42.3738 13.7357 46.2775C14.1759 49.366 17.4936 52.7475 22.4511 52.5756C32.921 52.2126 40.4114 44.7428 47.3913 44.7937C53.427 44.8383 53.9183 44.8829 57.7209 45.023C57.811 45.0195 57.8984 44.9911 57.9732 44.9409C58.048 44.8906 58.1073 44.8206 58.1445 44.7385C58.1816 44.6565 58.195 44.5658 58.1833 44.4765C58.1716 44.3873 58.1352 44.303 58.0782 44.2333Z" fill="black" stroke="black" stroke-width="0.85" stroke-miterlimit="10"/>
        <path d="M57.3879 43.5463C53.5598 39.7254 53.6746 39.3624 48.5513 35.4396C48.8802 34.8596 49.0227 34.1927 48.9596 33.5292C48.7236 32.2556 48.2068 31.1348 46.4075 31.1348C44.6083 31.1348 44.3084 34.3889 44.3212 34.5035C38.3748 33.491 36.1737 36.6432 31.178 35.4014C21.1036 32.8924 14.8701 38.8976 13.3708 43.247C13.0833 44.0017 12.972 44.8119 13.0454 45.616C13.492 48.7045 16.8033 52.086 21.7863 51.9141C32.2307 51.5511 39.7211 44.1003 46.701 44.1322C52.7367 44.1768 53.228 44.2213 57.0306 44.3614C57.1255 44.3622 57.2185 44.3351 57.2981 44.2835C57.3778 44.232 57.4405 44.1582 57.4785 44.0715C57.5166 43.9847 57.5283 43.8887 57.5121 43.7953C57.496 43.702 57.4528 43.6154 57.3879 43.5463Z" fill="#D6AD60" stroke="black" stroke-miterlimit="10"/>
        <path d="M13.0153 45.9403C11.9498 45.9422 10.8912 45.7679 9.88266 45.4245C8.86813 45.0657 7.93856 44.5021 7.15192 43.7688C5.65978 42.3187 4.51479 40.5511 3.80231 38.5979C2.3496 34.7544 2.16849 30.5476 3.28551 26.5939C4.34463 22.7029 6.57132 19.003 10.0039 16.7169C11.7098 15.5739 13.6942 14.9137 15.7461 14.8064C17.7909 14.7563 19.8183 15.1928 21.6605 16.08C28.9531 19.2004 36.3351 22.1616 43.6532 25.1993C45.516 25.8466 47.4923 26.1045 49.4592 25.9571C51.4381 25.8451 53.3127 25.0348 54.7484 23.6709C55.4479 22.9719 55.914 22.0743 56.083 21.1009C56.2521 20.1274 56.1157 19.1256 55.6926 18.2325C54.7965 16.4528 53.4025 14.9707 51.6795 13.9658C53.4235 14.954 54.8439 16.4248 55.7692 18.2006C56.2123 19.1104 56.3631 20.1345 56.201 21.133C56.0388 22.1316 55.5716 23.0557 54.8632 23.7792C53.4145 25.1967 51.5083 26.0544 49.4847 26.1991C47.48 26.3777 45.46 26.1414 43.5511 25.5049C36.1819 22.5501 28.8064 19.6908 21.4436 16.6532C19.6855 15.823 17.7536 15.4255 15.8099 15.4942C13.8829 15.614 12.0253 16.257 10.4377 17.3537C7.24763 19.5443 5.16129 23.085 4.19788 26.8295C3.18822 30.5829 3.41186 34.5605 4.8359 38.1776C5.51115 39.9555 6.57476 41.561 7.94945 42.8773C9.34287 44.1042 11.159 44.7435 13.0153 44.6603V45.9403Z" fill="black"/>
        <path d="M48.1756 44.807C48.1756 44.807 41.3616 47.558 47.0208 49.0354C50.5937 49.9652 45.1068 50.2645 41.3679 48.0675C38.4713 46.3481 37.0549 48.647 36.3595 48.3795C34.4263 47.6344 43.3586 44.6223 48.1756 44.807Z" fill="black" stroke="black" stroke-width="0.85" stroke-miterlimit="10"/>
        <path d="M23.2109 52.6078C23.2109 52.6078 28.9531 54.1616 36.9029 51.2959C41.369 49.6784 31.9965 51.0603 33.4703 49.3091C34.6124 47.9527 33.5979 49.4747 30.6694 50.6719C28.2433 51.5289 25.748 52.1765 23.2109 52.6078Z" fill="black" stroke="black" stroke-width="0.85" stroke-miterlimit="10"/>
        <path d="M41.1137 6.29823C35.1864 3.50261 31.9963 12.1951 31.9963 12.1951C31.9963 12.1951 28.8062 3.50261 22.8726 6.29823C19.4018 7.94122 18.3618 10.9342 19.1848 14.4304C19.8229 17.2769 21.7369 20.4546 24.5825 23.5114C25.5268 24.5366 26.2477 25.3772 27.7726 27.1221C28.7488 28.2365 30.0631 29.7203 31.9836 31.8537C33.5659 30.0897 34.7271 28.816 35.6331 27.7717C37.5471 25.5746 38.3574 24.6576 39.4101 23.5114C40.72 22.1122 41.885 20.5845 42.8874 18.9518C43.0532 18.6716 43.2064 18.3977 43.3531 18.1239C46.0328 13.0931 45.7585 8.48888 41.1137 6.29823Z" fill="#D6AD60" stroke="black" stroke-linecap="round" stroke-linejoin="round"/>
        <path d="M55.2527 10.3483C50.5663 6.23499 44.8632 3.44712 38.7343 2.27343C35.752 1.71731 32.7046 1.59504 29.6872 1.91045C28.9352 1.96063 28.1872 2.05847 27.4477 2.20338C26.7008 2.29455 25.961 2.43711 25.2338 2.63005L23.0645 3.20318L20.9463 3.9801C18.1333 5.07777 15.496 6.57951 13.1177 8.43781C10.7187 10.2968 8.57369 12.4613 6.73751 14.876C4.94167 17.3622 3.46285 20.0618 2.33516 22.9126C1.28135 25.8519 0.562241 28.9002 0.191407 32V32.0955H0V32C0.0341457 28.8156 0.495497 25.65 1.37175 22.5879C2.35271 19.5511 3.74592 16.6628 5.51251 14.0036C7.33143 11.3771 9.51143 9.019 11.9884 6.99861L13.9025 5.5594C14.5405 5.11363 15.2551 4.71881 15.9314 4.28577C16.6099 3.86233 17.3177 3.48778 18.0496 3.16497C18.7568 2.79243 19.4879 2.46694 20.2381 2.19065L22.4967 1.43284L24.8191 0.79602C25.5935 0.606319 26.3801 0.470142 27.1734 0.388458C27.9595 0.243152 28.7546 0.151662 29.5532 0.114627L31.9458 0C32.7433 0 33.5408 0 34.3384 0.0955224C42.3863 0.689092 49.9098 4.30492 55.3931 10.2145L55.4569 10.2846L55.3293 10.4056L55.2527 10.3483Z" fill="#B68D40"/>
    </g>
    <defs>
        <clipPath id="clip0">
            <rect width="64" height="64" fill="white"/>
        </clipPath>
    </defs>
</svg>
