<svg width="64" height="64" viewBox="0 0 64 64" fill="none" xmlns="http://www.w3.org/2000/svg">
    <g clip-path="url(#clip0)">
        <path d="M31.9988 63.8408C49.6173 63.8408 63.8999 49.5852 63.8999 32C63.8999 14.4148 49.6173 0.15918 31.9988 0.15918C14.3803 0.15918 0.0976562 14.4148 0.0976562 32C0.0976562 49.5852 14.3803 63.8408 31.9988 63.8408Z" fill="#F4EBD0"/>
        <path d="M55.2527 10.3483C50.5663 6.23499 44.8632 3.44712 38.7343 2.27343C35.752 1.71731 32.7046 1.59504 29.6872 1.91045C28.9352 1.96063 28.1872 2.05847 27.4477 2.20338C26.7008 2.29455 25.961 2.43711 25.2338 2.63005L23.0645 3.20318L20.9463 3.9801C18.1333 5.07777 15.496 6.57951 13.1177 8.43781C10.7187 10.2968 8.57369 12.4613 6.73751 14.876C4.94167 17.3622 3.46285 20.0618 2.33516 22.9126C1.28135 25.8519 0.562241 28.9002 0.191407 32V32.0955H0V32C0.0341457 28.8156 0.495497 25.65 1.37175 22.5879C2.35271 19.5511 3.74592 16.6628 5.51251 14.0036C7.33143 11.3771 9.51143 9.019 11.9884 6.99861L13.9025 5.5594C14.5405 5.11363 15.2551 4.71881 15.9314 4.28577C16.6099 3.86233 17.3177 3.48778 18.0496 3.16497C18.7568 2.79243 19.4879 2.46694 20.2381 2.19065L22.4967 1.43284L24.8191 0.79602C25.5935 0.606319 26.3801 0.470142 27.1734 0.388458C27.9595 0.243152 28.7546 0.151662 29.5532 0.114627L31.9458 0C32.7433 0 33.5408 0 34.3384 0.0955224C42.3863 0.689092 49.9098 4.30492 55.3931 10.2145L55.4569 10.2846L55.3293 10.4056L55.2527 10.3483Z" fill="#B68D40"/>
        <path d="M63.992 31.9998C63.9579 35.1843 63.4965 38.3498 62.6203 41.412C61.6453 44.4477 60.2586 47.336 58.4987 49.9962C56.6797 52.6227 54.4998 54.9808 52.0227 57.0012L50.1087 58.4404C49.4707 58.8862 48.7561 59.281 48.0798 59.714C47.4013 60.1375 46.6934 60.512 45.9615 60.8348C45.2544 61.2074 44.5233 61.5329 43.7731 61.8092L41.5209 62.6243L39.173 63.2038C38.399 63.3999 37.6123 63.5425 36.8187 63.6305C36.0326 63.7758 35.2375 63.8673 34.4389 63.9043L32.0463 64.0189C31.2487 64.0189 30.4512 64.0189 29.6537 63.9234C21.6058 63.3298 14.0823 59.714 8.59896 53.8044L8.53516 53.7343L8.66276 53.6134L8.73932 53.677C13.4286 57.7811 19.1314 60.5601 25.2577 61.7264C28.2401 62.2825 31.2874 62.4048 34.3049 62.0894C35.0568 62.0392 35.8048 61.9414 36.5443 61.7964C37.2913 61.7053 38.031 61.5627 38.7583 61.3698L40.9339 60.7966L43.0458 60.0197C45.8588 58.9221 48.4961 57.4203 50.8743 55.562C53.2734 53.703 55.4183 51.5385 57.2545 49.1238C59.0504 46.6376 60.5292 43.938 61.6569 41.0872C62.7107 38.1479 63.4298 35.0996 63.8006 31.9998V31.9043H63.9793L63.992 31.9998Z" fill="#B68D40"/>
        <path d="M58.6807 33.8346C54.8845 29.9818 54.2847 30.3512 49.1614 26.4348C49.4836 25.8523 49.6236 25.1869 49.5633 24.5243C49.3337 23.2507 48.8169 22.1299 47.0113 22.1299C45.2057 22.1299 44.9122 25.384 44.9185 25.4986C38.9786 24.4988 36.8029 27.6574 31.8136 26.4093C19.6912 23.3971 13.1259 32.701 13.681 36.5983C14.1148 39.6933 17.4389 43.0684 22.39 42.8964C32.8344 42.5398 40.3248 35.07 47.3111 35.1209C53.3468 35.1655 54.5335 34.4841 58.3298 34.6497C58.4254 34.6522 58.5197 34.626 58.6003 34.5745C58.6809 34.523 58.7441 34.4485 58.7819 34.3608C58.8197 34.273 58.8302 34.176 58.8122 34.0822C58.7942 33.9884 58.7483 33.9021 58.6807 33.8346Z" fill="black" stroke="black" stroke-width="0.85" stroke-miterlimit="10"/>
        <path d="M57.9916 33.1471C54.1953 29.3262 53.5956 29.6637 48.4723 25.7473C48.7944 25.1648 48.9344 24.4994 48.8742 23.8368C48.6446 22.5632 48.1278 21.4424 46.3222 21.4424C44.5165 21.4424 44.2231 24.6965 44.2294 24.8111C38.2895 23.8113 36.1138 26.9699 31.1245 25.7218C21.0246 23.2 14.772 29.1988 13.2854 33.5546C12.9966 34.3067 12.8874 35.1156 12.9664 35.9172C13.4002 39.0058 16.7243 42.3873 21.6754 42.1898C32.1453 41.8523 39.6548 34.3825 46.6156 34.4334C52.6513 34.478 53.8381 33.7966 57.6343 33.9622C57.7305 33.966 57.8256 33.9408 57.9072 33.8898C57.9889 33.8388 58.0532 33.7644 58.0918 33.6764C58.1304 33.5883 58.1415 33.4907 58.1236 33.3963C58.1057 33.3018 58.0597 33.215 57.9916 33.1471Z" fill="#D6AD60" stroke="black" stroke-miterlimit="10"/>
        <path d="M15.8893 37.0059C19.5452 38.6999 26.1742 31.5357 30.7361 31.9114C33.6646 32.1598 34.1431 28.6254 33.1287 26.3393C32.4557 26.3055 31.7894 26.19 31.1444 25.9954C21.1849 23.4927 15.028 29.4915 13.5414 33.8473C13.4229 34.1982 13.3333 34.5581 13.2734 34.9235C13.9557 35.8266 14.8555 36.5429 15.8893 37.0059Z" fill="#B68D40"/>
        <path d="M49.1551 31.8289C51.0692 32.2555 51.5094 30.4088 51.4392 28.3391C50.6034 27.7596 49.6081 27.0655 48.3129 26.0402C48.6385 25.459 48.7787 24.7926 48.7149 24.1298C48.4852 22.8561 47.9747 21.7354 46.1628 21.7354C44.3508 21.7354 44.1211 24.9958 44.1211 25.0914C43.4908 24.9655 42.8438 24.9461 42.207 25.0341C43.2279 26.9381 45.965 31.1284 49.1551 31.8289Z" fill="#B68D40"/>
        <path d="M13.2015 36.2353C11.8763 36.7804 10.4047 36.859 9.02882 36.4582C7.6535 36.0589 6.45883 35.1972 5.64731 34.0192C4.83076 32.8459 4.48262 31.4106 4.67113 29.9945C4.86174 28.6041 5.51308 27.3173 6.5214 26.3392C7.4941 25.3982 8.65825 24.6772 9.93482 24.2249C10.5674 23.9934 11.2213 23.8248 11.8872 23.7219C12.2255 23.6761 12.5665 23.6527 12.908 23.6518H13.8842C16.4745 23.7601 18.9884 24.2122 21.5404 24.5179C24.0434 24.8683 26.5845 24.849 29.0819 24.4606C30.3296 24.263 31.5588 23.9627 32.7569 23.5627C33.9569 23.1737 35.1036 22.6368 36.1703 21.9643C36.6965 21.6261 37.175 21.2191 37.5931 20.7543C38.0122 20.3166 38.2862 19.7608 38.3778 19.1623C38.4326 18.5452 38.2602 17.9294 37.8929 17.4301C37.5182 16.9276 37.0033 16.5466 36.4127 16.3348C35.8183 16.1195 35.1798 16.0545 34.5541 16.1456C33.9284 16.2367 33.335 16.4811 32.827 16.857C31.832 17.6592 31.1539 18.7872 30.913 20.0411C31.1304 18.7666 31.7982 17.6122 32.7951 16.7869C33.31 16.3933 33.9149 16.1337 34.5553 16.0315C35.1957 15.9292 35.8516 15.9875 36.4638 16.2011C37.0805 16.4259 37.6174 16.8268 38.0078 17.3537C38.4104 17.8845 38.6075 18.5426 38.5629 19.2068C38.4974 19.8699 38.2251 20.4958 37.7845 20.9963C37.3611 21.4837 36.874 21.9121 36.3362 22.2699C35.2637 22.9941 34.1039 23.5803 32.8845 24.0148C31.6727 24.458 30.4265 24.8009 29.1584 25.0401C26.6151 25.516 24.014 25.6019 21.4447 25.2948C18.8926 25.0401 16.3725 24.658 13.8523 24.6007H12.9144C12.6173 24.604 12.3208 24.6295 12.0275 24.6771C11.4302 24.7712 10.8444 24.927 10.2793 25.142C9.14779 25.5554 8.11857 26.207 7.2615 27.0524C6.43005 27.873 5.90156 28.9504 5.76215 30.1091C5.62753 31.2526 5.93312 32.4044 6.6171 33.3314C7.2874 34.261 8.25509 34.9349 9.3606 35.2419C10.4618 35.5295 11.6287 35.4305 12.6656 34.9617L13.2015 36.2353Z" fill="black"/>
        <path d="M47.3094 35.1207C47.3094 35.1207 41.2865 37.859 46.9394 39.3364C53.275 40.9858 33.0815 39.2537 36.2844 38.6996C39.7999 38.0501 42.4924 34.9297 47.3094 35.1207Z" fill="black" stroke="black" stroke-width="0.85" stroke-miterlimit="10"/>
    </g>
    <defs>
        <clipPath id="clip0">
            <rect width="64" height="64" fill="white"/>
        </clipPath>
    </defs>
</svg>
