<svg xmlns="http://www.w3.org/2000/svg" width="20.83" height="20.86" viewBox="0 0 20.83 20.86">
    <defs>
        <style>
            .a {
            fill: #f4ebd0;
            }

            .b {
            fill: #b78d40;
            }

            .c {
            fill: #b68d40;
            }

            .d {
            fill: #d6ac60;
            }
        </style>
    </defs>
    <title>еуые</title>
    <g>
        <circle class="a" cx="10.42" cy="10.43" r="10.39"/>
        <path d="M14.76,10.27l4.84-2.7-4.66,3a.18.18,0,0,1-.24-.05.19.19,0,0,1,.05-.25Z"/>
        <path d="M16.18,11.59l4.35-3-4,3.4a.27.27,0,0,1-.34-.41Z"/>
        <path d="M15,11.14,20.47,8l-5.25,3.56a.22.22,0,0,1-.31-.06.21.21,0,0,1,.06-.3Z"/>
        <path class="b" d="M18,3.37a11.52,11.52,0,0,0-2.55-1.69A9.84,9.84,0,0,0,12.61.73a10.31,10.31,0,0,0-5.79.57A9.73,9.73,0,0,0,4.26,2.72,12.91,12.91,0,0,0,2.19,4.83a11.58,11.58,0,0,0-2.13,5.6v0H0v0A11.81,11.81,0,0,1,.45,7.36a11.63,11.63,0,0,1,1.34-2.8A10.58,10.58,0,0,1,6.59.72,10.53,10.53,0,0,1,12.72.26,10.3,10.3,0,0,1,18,3.33l0,0,0,0Z"/>
        <path class="c" d="M14.87,10l4.87-2.47L15,10.27a.18.18,0,0,1-.24-.06.18.18,0,0,1,.06-.24Z"/>
        <path d="M15.19,11.4l-.9-8.68L12,3.65c-.79.33-1.59.63-2.41,1C8,5.32,6.27,6,4.65,6.83L4.35,7l0,.32,1,11.15.06.67.52-.4,9.16-7.15.09-.07Z"/>
        <g>
            <polygon class="d" points="14.37 2.46 15.09 11.12 5.83 18.13 4.96 6.96 14.37 2.46"/>
            <path class="c" d="M14.39,2.42l.9,8.68v.1l-.09.07L6.05,18.42l-.52.4-.06-.67L4.48,7l0-.32.3-.15C6.37,5.74,8.05,5,9.68,4.33c.82-.35,1.62-.65,2.41-1Zm0,.08L9.65,5.09c-1.5.82-3,1.6-4.48,2.31l.27-.47L6.2,18.1l-.59-.26L15,11l-.08.18Z"/>
        </g>
        <polygon class="a" points="14.37 2.46 9.59 9.15 4.96 6.96 14.37 2.46"/>
        <g>
            <polyline points="11.11 5.25 4.91 7.38 9.65 9.6 14.07 2.71"/>
            <polygon points="11.19 5.49 4.95 7.51 4.97 7.25 9.69 9.53 9.58 9.56 14.07 2.71 9.72 9.65 9.62 9.68 4.85 7.51 4.86 7.25 11.03 5.01 11.19 5.49"/>
        </g>
        <polygon class="c" points="4.93 6.58 9.67 8.72 9.3 8.82 14.37 2.46 9.8 9.19 9.67 9.38 9.43 9.29 4.57 7.43 4.93 6.58"/>
        <polygon class="c" points="14.37 2.46 9.55 9 4.75 7 14.37 2.46"/>
        <path class="c" d="M16.29,11.28l4.31-2.7-4,3.13a.27.27,0,0,1-.37,0,.26.26,0,0,1,.05-.37Z"/>
        <path class="c" d="M15.09,10.83l5.6-3-5.38,3.36a.22.22,0,0,1-.23-.37Z"/>
        <path class="b" d="M20.83,10.43a11.4,11.4,0,0,1-.45,3.07A11.63,11.63,0,0,1,19,16.3a10.6,10.6,0,0,1-4.8,3.85,10.58,10.58,0,0,1-6.12.46A10.47,10.47,0,0,1,2.8,17.54l0,0,0,0,0,0a11.51,11.51,0,0,0,2.54,1.7,10.24,10.24,0,0,0,2.83.94,10.42,10.42,0,0,0,5.8-.56,10.41,10.41,0,0,0,2.56-1.43A12.86,12.86,0,0,0,18.64,16a11.48,11.48,0,0,0,2.13-5.6v0h.06Z"/>
    </g>
</svg>
