<svg width="64" height="64" viewBox="0 0 64 64" fill="none" xmlns="http://www.w3.org/2000/svg">
    <g clip-path="url(#clip0)">
        <path d="M31.9988 63.8408C49.6173 63.8408 63.8999 49.5852 63.8999 32C63.8999 14.4148 49.6173 0.15918 31.9988 0.15918C14.3803 0.15918 0.0976562 14.4148 0.0976562 32C0.0976562 49.5852 14.3803 63.8408 31.9988 63.8408Z" fill="#F4EBD0"/>
        <path d="M59.1814 40.9728C55.5829 37.3303 55.0215 37.6805 50.1725 33.9679C50.488 33.4179 50.624 32.7836 50.5617 32.153C50.3384 30.9621 49.8471 29.8859 48.1181 29.8859C46.389 29.8859 46.1338 32.9617 46.1466 33.07C40.532 32.1275 36.8378 30.7774 32.1101 29.6057C20.6257 26.7528 14.4433 35.5472 14.9728 39.2598C15.4067 42.1892 18.533 45.3732 23.2161 45.214C33.1118 44.8702 41.8272 42.1382 48.4243 42.1892C54.1282 42.2337 55.2512 41.6097 58.8368 41.7434C58.9269 41.745 59.0155 41.7201 59.0915 41.6718C59.1675 41.6235 59.2276 41.5539 59.2644 41.4718C59.3011 41.3897 59.3128 41.2986 59.298 41.2099C59.2833 41.1212 59.2427 41.0387 59.1814 40.9728Z" fill="black" stroke="black" stroke-width="0.81" stroke-miterlimit="10"/>
        <path d="M55.2527 10.3483C50.5663 6.23499 44.8632 3.44712 38.7343 2.27343C35.752 1.71731 32.7046 1.59504 29.6872 1.91045C28.9352 1.96063 28.1872 2.05847 27.4477 2.20338C26.7008 2.29455 25.961 2.43711 25.2338 2.63005L23.0645 3.20318L20.9463 3.9801C18.1333 5.07777 15.496 6.57951 13.1177 8.43781C10.7187 10.2968 8.57369 12.4613 6.73751 14.876C4.94167 17.3622 3.46285 20.0618 2.33516 22.9126C1.28135 25.8519 0.562241 28.9002 0.191407 32V32.0955H0V32C0.0341457 28.8156 0.495497 25.65 1.37175 22.5879C2.35271 19.5511 3.74592 16.6628 5.51251 14.0036C7.33143 11.3771 9.51143 9.019 11.9884 6.99861L13.9025 5.5594C14.5405 5.11363 15.2551 4.71881 15.9314 4.28577C16.6099 3.86233 17.3177 3.48778 18.0496 3.16497C18.7568 2.79243 19.4879 2.46694 20.2381 2.19065L22.4967 1.43284L24.8191 0.79602C25.5935 0.606319 26.3801 0.470142 27.1734 0.388458C27.9595 0.243152 28.7546 0.151662 29.5532 0.114627L31.9458 0C32.7433 0 33.5408 0 34.3384 0.0955224C42.3863 0.689092 49.9098 4.30492 55.3931 10.2145L55.4569 10.2846L55.3293 10.4056L55.2527 10.3483Z" fill="#B68D40"/>
        <path d="M63.992 31.9998C63.9579 35.1843 63.4965 38.3498 62.6203 41.412C61.6453 44.4477 60.2586 47.336 58.4987 49.9962C56.6797 52.6227 54.4998 54.9808 52.0227 57.0012L50.1087 58.4404C49.4707 58.8862 48.7561 59.281 48.0798 59.7141C47.4013 60.1375 46.6934 60.512 45.9615 60.8348C45.2544 61.2074 44.5233 61.5329 43.7731 61.8092L41.5209 62.6243L39.173 63.2038C38.399 63.3999 37.6123 63.5425 36.8187 63.6305C36.0326 63.7758 35.2375 63.8673 34.4389 63.9043L32.0463 64.0189C31.2487 64.0189 30.4512 64.0189 29.6537 63.9234C21.6058 63.3298 14.0823 59.714 8.59896 53.8044L8.53516 53.7344L8.66276 53.6134L8.73932 53.677C13.4286 57.7811 19.1314 60.5601 25.2577 61.7264C28.2401 62.2825 31.2874 62.4048 34.3049 62.0894C35.0568 62.0392 35.8048 61.9414 36.5443 61.7964C37.2913 61.7053 38.031 61.5627 38.7583 61.3698L40.9339 60.7966L43.0458 60.0197C45.8588 58.9221 48.4961 57.4203 50.8743 55.562C53.2734 53.703 55.4183 51.5385 57.2545 49.1238C59.0504 46.6376 60.5292 43.938 61.6569 41.0872C62.7107 38.1479 63.4298 35.0996 63.8006 31.9998V31.9043H63.9793L63.992 31.9998Z" fill="#B68D40"/>
        <path d="M58.5244 40.3234C54.9323 36.6809 54.3709 37.0311 49.5219 33.3185C49.8335 32.767 49.9692 32.1339 49.9111 31.5035C49.6878 30.3127 49.1965 29.2365 47.4675 29.2365C45.7384 29.2365 45.4832 32.3123 45.496 32.4206C39.8814 31.4781 36.1873 30.128 31.4595 28.9563C19.9751 26.1033 13.7927 34.8978 14.3159 38.6104C14.7688 41.5525 17.8824 44.7366 22.5655 44.5646C32.4612 44.2208 41.1766 41.4888 47.7737 41.5525C53.4777 41.5971 54.6006 40.973 58.1863 41.1067C58.2798 41.1131 58.373 41.0903 58.4531 41.0416C58.5331 40.9928 58.596 40.9205 58.6331 40.8346C58.6702 40.7486 58.6797 40.6533 58.6602 40.5617C58.6408 40.4702 58.5933 40.3869 58.5244 40.3234Z" fill="#D6AD60" stroke="black" stroke-miterlimit="10"/>
        <path d="M14.343 38.9671C13.1211 39.0424 11.9118 39.2561 10.7382 39.6039C9.60241 39.9071 8.57041 40.5124 7.75224 41.3551C7.40543 41.7797 7.18312 42.2917 7.10992 42.8346C7.03672 43.3775 7.1155 43.93 7.33752 44.431C7.71723 45.5459 8.4638 46.4998 9.45576 47.1374C10.4889 47.7905 11.6326 48.2502 12.8309 48.4938C14.0536 48.7641 15.2989 48.9197 16.5506 48.9587C19.0832 49.0327 21.6171 48.8643 24.1175 48.4556C26.6249 48.0863 29.0749 47.3603 31.5951 46.8381C34.0985 46.2687 36.6404 45.8835 39.2003 45.6855C40.4761 45.5905 41.758 45.6183 43.0285 45.7683C43.6787 45.8493 44.3196 45.9922 44.9425 46.1949C45.2504 46.2948 45.5492 46.4205 45.8358 46.5707C46.1508 46.6949 46.4279 46.899 46.6397 47.1629C46.6937 47.2474 46.7157 47.3484 46.7016 47.4477C46.6876 47.5469 46.6385 47.6379 46.5631 47.7042C46.4373 47.8175 46.2927 47.908 46.1356 47.9717C45.8339 48.092 45.5222 48.1858 45.2041 48.2518C44.5661 48.3856 43.9281 48.4747 43.2901 48.5448C42.014 48.6785 40.738 48.7549 39.4619 48.7931C40.738 48.7231 42.014 48.6212 43.2901 48.4493C43.934 48.3731 44.573 48.2604 45.2041 48.1118C45.5107 48.0461 45.8099 47.9501 46.0974 47.8252C46.3717 47.7042 46.6907 47.4877 46.5121 47.2584C46.3105 47.0355 46.0591 46.8631 45.7784 46.7553C45.4958 46.6145 45.2011 46.4994 44.8979 46.4114C44.2951 46.2253 43.6753 46.0995 43.0476 46.0357C41.7746 45.9127 40.4926 45.9127 39.2195 46.0357C36.6842 46.2757 34.17 46.7014 31.6972 47.3094C29.2217 47.8825 26.7717 48.6594 24.2196 49.0861C21.679 49.5439 19.1001 49.7571 16.5187 49.7229C15.214 49.7063 13.9135 49.5721 12.6331 49.3217C11.3152 49.0741 10.0529 48.5908 8.90706 47.8952C7.7268 47.145 6.82923 46.0251 6.35497 44.7112C6.0932 44.0409 5.98423 43.3208 6.03596 42.6033C6.11368 41.8548 6.4111 41.1459 6.89091 40.5655C7.83187 39.5363 9.03974 38.7869 10.3809 38.4003C11.6425 38.0126 12.9437 37.7669 14.2601 37.668L14.343 38.9671Z" fill="black"/>
        <path d="M26.6706 12.1628C32.2405 11.0484 39.2715 14.8565 40.3817 20.4414C41.4918 26.0263 36.4642 32.1779 30.9071 33.2733C26.0326 34.2412 19.6587 31.401 17.8021 26.9942L5.35426 29.4969C4.99323 29.5664 4.6193 29.4911 4.31354 29.2872C4.00779 29.0834 3.79486 28.7675 3.72093 28.408L3.45934 27.1343C3.4185 26.9526 3.4149 26.7645 3.44874 26.5813C3.48258 26.3982 3.55317 26.2237 3.65627 26.0685C3.75937 25.9132 3.89285 25.7804 4.04869 25.6779C4.20452 25.5755 4.37951 25.5055 4.56312 25.4723L17.0109 22.9887C17.0109 18.2062 21.7897 13.1371 26.6706 12.1628Z" fill="#B68D40" stroke="black" stroke-miterlimit="10"/>
        <path d="M28.8967 31.2361C24.9537 31.2361 20.2005 28.5678 19.4029 24.6005C18.9946 22.569 19.6964 20.2256 21.317 18.1623C22.7493 16.2576 24.7989 14.9073 27.1166 14.3414C27.6311 14.2376 28.1549 14.1864 28.6798 14.1885C32.6227 14.1885 37.376 16.8568 38.1735 20.8305C38.5819 22.8556 37.8864 25.2055 36.2595 27.2687C34.8258 29.1691 32.7799 30.5185 30.4662 31.0896C29.9489 31.1878 29.4233 31.2368 28.8967 31.2361Z" fill="#F4EBD0"/>
        <path d="M28.6803 14.5323C32.6041 14.5323 37.1213 17.2324 37.8614 20.9005C38.6973 25.0844 34.5501 29.9433 30.403 30.7775C29.9068 30.8729 29.4025 30.9198 28.8972 30.9176C24.9734 30.9176 20.4562 28.2239 19.7161 24.5494C18.8803 20.3719 23.0019 15.513 27.1746 14.6788C27.6705 14.5812 28.1748 14.5322 28.6803 14.5323ZM28.6803 13.8955C28.1341 13.8958 27.5892 13.9492 27.0534 14.0547C24.6617 14.6345 22.5463 16.0257 21.0687 17.9902C19.3843 20.1236 18.6697 22.5689 19.0908 24.6895C19.9203 28.8097 24.833 31.5799 28.8972 31.5799C29.4433 31.5823 29.9882 31.5311 30.5242 31.427C32.9113 30.8479 35.0265 29.4674 36.5152 27.517C38.1932 25.3773 38.9142 22.9383 38.4867 20.8177C37.6637 16.6911 32.7445 13.921 28.6803 13.921V13.8955Z" fill="black"/>
        <path d="M21.2383 27.4845C23.4076 29.9617 27.3123 31.3882 30.4003 30.7769C32.0214 30.4061 33.5132 29.6078 34.7197 28.4652C31.5729 27.7883 28.3678 27.4173 25.1494 27.3572C23.7968 27.3402 22.4931 27.3826 21.2383 27.4845Z" fill="#D6AD60"/>
        <path d="M35.5108 27.6761C35.7498 27.4154 35.9735 27.1411 36.1808 26.8546C30.9171 25.5907 25.4816 25.1949 20.0898 25.6829C20.2295 26.0029 20.3937 26.3116 20.5811 26.6063C25.5832 26.1909 30.6195 26.5518 35.5108 27.6761Z" fill="black"/>
        <path d="M20.582 26.6062C20.7721 26.9148 20.9854 27.2086 21.2201 27.485C22.4961 27.3831 23.7998 27.3407 25.1311 27.3576C28.3496 27.4177 31.5547 27.7888 34.7015 28.4657C34.9793 28.217 35.2434 27.9534 35.4926 27.676C30.6075 26.5537 25.5778 26.1928 20.582 26.6062Z" fill="black"/>
    </g>
    <defs>
        <clipPath id="clip0">
            <rect width="64" height="64" fill="white"/>
        </clipPath>
    </defs>
</svg>
