<svg width="64" height="64" viewBox="0 0 64 64" fill="none" xmlns="http://www.w3.org/2000/svg">
    <g clip-path="url(#clip0)">
        <path d="M31.9988 63.8418C49.6173 63.8418 63.8999 49.5861 63.8999 32.001C63.8999 14.4158 49.6173 0.160156 31.9988 0.160156C14.3803 0.160156 0.0976562 14.4158 0.0976562 32.001C0.0976562 49.5861 14.3803 63.8418 31.9988 63.8418Z" fill="#F4EBD0"/>
        <path d="M55.2527 10.3483C50.5663 6.23499 44.8632 3.44712 38.7343 2.27343C35.752 1.71731 32.7046 1.59504 29.6872 1.91045C28.9352 1.96063 28.1872 2.05847 27.4477 2.20338C26.7008 2.29455 25.961 2.43711 25.2338 2.63005L23.0645 3.20318L20.9463 3.9801C18.1333 5.07777 15.496 6.57951 13.1177 8.43781C10.7187 10.2968 8.57369 12.4613 6.73751 14.876C4.94167 17.3622 3.46285 20.0618 2.33516 22.9126C1.28135 25.8519 0.562241 28.9002 0.191407 32V32.0955H0V32C0.0341457 28.8156 0.495497 25.65 1.37175 22.5879C2.35271 19.5511 3.74592 16.6628 5.51251 14.0036C7.33143 11.3771 9.51143 9.019 11.9884 6.99861L13.9025 5.5594C14.5405 5.11363 15.2551 4.71881 15.9314 4.28577C16.6099 3.86233 17.3177 3.48778 18.0496 3.16497C18.7568 2.79243 19.4879 2.46694 20.2381 2.19065L22.4967 1.43284L24.8191 0.79602C25.5935 0.606319 26.3801 0.470142 27.1734 0.388458C27.9595 0.243152 28.7546 0.151662 29.5532 0.114627L31.9458 0C32.7433 0 33.5408 0 34.3384 0.0955224C42.3863 0.689092 49.9098 4.30492 55.3931 10.2145L55.4569 10.2846L55.3293 10.4056L55.2527 10.3483Z" fill="#B68D40"/>
        <path d="M63.992 31.9998C63.9579 35.1843 63.4965 38.3498 62.6203 41.412C61.6453 44.4477 60.2586 47.336 58.4987 49.9962C56.6797 52.6227 54.4998 54.9808 52.0227 57.0012L50.1087 58.4404C49.4707 58.8862 48.7561 59.281 48.0798 59.714C47.4013 60.1375 46.6934 60.512 45.9615 60.8348C45.2544 61.2074 44.5233 61.5329 43.7731 61.8092L41.5209 62.6243L39.173 63.2038C38.399 63.3999 37.6123 63.5425 36.8187 63.6305C36.0326 63.7758 35.2375 63.8673 34.4389 63.9043L32.0463 64.0189C31.2487 64.0189 30.4512 64.0189 29.6537 63.9234C21.6058 63.3298 14.0823 59.714 8.59896 53.8044L8.53516 53.7343L8.66276 53.6134L8.73932 53.677C13.4286 57.7811 19.1314 60.5601 25.2577 61.7264C28.2401 62.2825 31.2874 62.4048 34.3049 62.0894C35.0568 62.0392 35.8048 61.9414 36.5443 61.7964C37.2913 61.7053 38.031 61.5627 38.7583 61.3698L40.9339 60.7966L43.0458 60.0197C45.8588 58.9221 48.4961 57.4203 50.8743 55.562C53.2734 53.703 55.4183 51.5385 57.2545 49.1238C59.0504 46.6376 60.5292 43.938 61.6569 41.0872C62.7107 38.1479 63.4298 35.0996 63.8006 31.9998V31.9043H63.9793L63.992 31.9998Z" fill="#B68D40"/>
        <path d="M31.5374 31.6434C33.4209 31.1132 35.3398 30.7174 37.2796 30.4589C39.2094 30.1935 41.1572 30.0807 43.1048 30.1214C45.0803 30.159 47.0427 30.4523 48.9427 30.9938C50.8893 31.5401 52.6924 32.5052 54.2255 33.8213C54.9855 34.4911 55.6566 35.2551 56.2225 36.0947C56.8039 36.9451 57.2355 37.8884 57.4985 38.884C57.779 39.9243 57.8009 41.0173 57.5623 42.068C57.3086 43.09 56.8339 44.0442 56.1714 44.8637C54.8742 46.3914 53.2439 47.6025 51.4054 48.4044C49.6377 49.2172 47.7844 49.8302 45.8801 50.232C42.1061 51.0205 38.2476 51.3307 34.3958 51.1554C30.5901 50.9695 26.803 50.5076 23.0645 49.7735C21.1951 49.4424 19.332 49.0858 17.4626 48.8565C16.5323 48.7338 15.5929 48.6933 14.6553 48.7355C13.7426 48.743 12.8532 49.0249 12.1033 49.5443C11.9194 49.6594 11.7612 49.8109 11.6383 49.9894C11.5154 50.1679 11.4304 50.3697 11.3887 50.5823C11.3887 50.9898 11.797 51.3082 12.1926 51.5184C13.0415 51.9177 13.9478 52.182 14.8787 52.3017C15.8155 52.4491 16.7631 52.5173 17.7115 52.5055C18.1799 52.5006 18.6472 52.458 19.1087 52.3781C19.3342 52.3362 19.5503 52.2543 19.7468 52.1361C19.7974 52.1078 19.8403 52.0674 19.8715 52.0185C19.9027 51.9696 19.9212 51.9137 19.9254 51.8559C19.8996 51.7406 19.8422 51.6348 19.7595 51.5502C19.849 51.6305 19.9095 51.7379 19.9318 51.8559C19.9301 51.9169 19.9129 51.9764 19.8816 52.0288C19.8503 52.0812 19.8061 52.1247 19.7531 52.1552C19.5564 52.2754 19.3406 52.3615 19.1151 52.4099C18.6489 52.5083 18.175 52.5658 17.6987 52.5819C16.746 52.6169 15.792 52.5722 14.8468 52.4481C13.8924 52.3583 12.9581 52.1198 12.0777 51.7413C11.8445 51.635 11.6293 51.4932 11.4397 51.321C11.3391 51.2315 11.2574 51.1229 11.1994 51.0015C11.1413 50.8801 11.1081 50.7484 11.1016 50.6141C11.1334 50.3581 11.22 50.112 11.3554 49.8922C11.4908 49.6725 11.6718 49.4844 11.8863 49.3405C12.6774 48.7502 13.63 48.4147 14.6171 48.3789C15.5777 48.3087 16.5425 48.3215 17.5009 48.4171C19.415 48.5954 21.2844 48.8947 23.1602 49.1685C26.8933 49.7631 30.6615 50.112 34.4404 50.2129C38.1959 50.314 41.9492 49.9439 45.6122 49.1112C47.427 48.6983 49.1903 48.0853 50.8695 47.2836C52.5121 46.5359 53.9629 45.4253 55.1123 44.0358C55.6373 43.3671 56.0077 42.5907 56.197 41.7624C56.3694 40.9456 56.3365 40.0989 56.1013 39.2979C55.555 37.6158 54.5417 36.123 53.1791 34.993C51.8025 33.8537 50.1934 33.0279 48.4641 32.5731C46.6975 32.0994 44.8766 31.8575 43.0473 31.8535C39.3444 31.8539 35.6617 32.3989 32.118 33.471L31.5374 31.6434Z" fill="black"/>
        <path d="M43.1385 17.4999C41.0458 14.4305 36.9624 12.1762 32.4325 12.0615H31.7051C27.1752 12.1762 23.0854 14.4305 20.9991 17.4999C20.9991 17.4999 18.3258 22.3652 19.5891 26.6892C19.9974 28.0838 21.0119 32.2422 21.3436 33.0892C22.0774 34.9996 21.3054 36.6363 20.5461 37.8589C20.3385 38.1306 20.2187 38.4589 20.2028 38.8002C20.1868 39.1416 20.2754 39.4796 20.4568 39.7694C21.484 41.2914 25.5036 41.4952 32.0688 40.3553C34.3612 40.7838 36.6851 41.0223 39.0169 41.0685C41.4988 41.0685 43.0747 40.6291 43.6617 39.7566C43.8421 39.4662 43.9297 39.1278 43.9126 38.7865C43.8955 38.4452 43.7746 38.1172 43.566 37.8462C42.8131 36.6235 42.0411 34.9742 42.7748 33.0765C43.1066 32.2295 44.121 28.0711 44.5294 26.6764C45.8118 22.3652 43.1385 17.4999 43.1385 17.4999Z" fill="black"/>
        <path d="M31.8315 35.184C32.9417 35.184 35.7426 35.8209 35.8064 36.7633C36.0297 40.1894 35.4172 39.5781 35.1684 41.9598C35.0535 43.0997 33.3181 43.1315 33.3564 43.762C33.433 45.2903 39.8196 44.9082 39.8196 43.4754C39.8196 42.8959 38.7413 42.4437 38.5882 41.9598C38.2054 40.7562 41.4784 38.0943 41.4784 36.2284C41.4784 33.6812 41.8804 30.7582 41.8804 27.9116C41.8804 23.8105 34.6899 19.9068 31.8251 19.6839C28.9604 19.4611 21.7891 23.8424 21.7891 27.9434C21.7891 30.79 22.191 33.7257 22.191 36.2603C22.191 38.107 25.4641 40.7689 25.0876 41.9916C24.9345 42.4756 23.8499 42.9277 23.8499 43.5072C23.8499 44.9401 30.2301 45.3222 30.3194 43.7938C30.3194 43.157 28.6159 43.157 28.5011 41.9916C28.2586 39.6099 27.6525 40.2213 27.863 36.7952C27.9141 35.8209 30.7214 35.184 31.8315 35.184Z" fill="#B68D40" stroke="black" stroke-miterlimit="10"/>
        <path d="M41.1858 16.0162C39.9098 15.2711 38.6337 14.8826 37.6576 16.5702C37.6193 16.6339 37.0195 17.2771 37.0195 17.3344C35.7435 16.5702 34.2888 15.5449 32.7065 15.5449C31.1242 15.5449 29.6249 16.5702 28.368 17.3535C28.3297 17.2962 27.7299 16.653 27.698 16.5893C26.7219 14.9017 25.4586 15.3157 24.1698 16.0353C22.881 16.7549 23.1936 17.6018 24.1698 19.283C24.5398 19.9199 24.4505 20.4229 24.9864 20.7668C24.5913 21.7422 24.3877 22.7842 24.3867 23.8363C24.3867 28.4086 32.681 34.1527 32.681 34.1527C32.681 34.1527 40.9753 28.4213 40.9753 23.8363C40.9743 22.7842 40.7707 21.7422 40.3755 20.7668C40.9115 20.4229 40.8222 19.9199 41.1858 19.283C42.1556 17.5827 42.481 16.7612 41.1858 16.0162Z" fill="black" stroke="black" stroke-miterlimit="10"/>
        <path d="M40.5452 15.3795C39.2692 14.6344 37.9931 14.2459 37.0169 15.9335C36.9787 15.9972 36.3789 16.6403 36.3789 16.6977C35.1029 15.9335 33.6482 14.9082 32.0659 14.9082C30.4836 14.9082 28.9842 15.9335 27.7273 16.7168C27.6891 16.6595 27.0893 16.0163 27.0574 15.9526C26.0812 14.265 24.818 14.679 23.5292 15.3986C22.2404 16.1182 22.553 16.9651 23.5292 18.6463C23.8992 19.2831 23.8099 19.7862 24.3458 20.1301C23.9507 21.1054 23.7471 22.1475 23.7461 23.1996C23.7461 27.7719 32.0404 33.516 32.0404 33.516C32.0404 33.516 40.3347 27.7846 40.3347 23.1996C40.3337 22.1475 40.1301 21.1054 39.7349 20.1301C40.2709 19.7862 40.1815 19.2831 40.5452 18.6463C41.515 16.946 41.8404 16.1245 40.5452 15.3795Z" fill="#D6AD60" stroke="black" stroke-miterlimit="10"/>
    </g>
    <defs>
        <clipPath id="clip0">
            <rect width="64" height="64" fill="white"/>
        </clipPath>
    </defs>
</svg>
