<svg width="694" height="551" viewBox="0 0 694 551" fill="none" xmlns="http://www.w3.org/2000/svg">
    <path d="M684.119 277.82C683.993 210.281 658.371 145.28 612.379 95.8201L612.979 95.2501L612.429 94.6601C575.588 54.9193 527.626 27.2041 474.799 15.1301C461.673 12.1223 448.338 10.1165 434.909 9.13007C428.219 8.42007 421.469 8.55006 414.749 8.31006L394.579 9.31006C387.829 9.31006 381.199 10.6401 374.579 11.6001C367.939 12.7101 361.179 13.2401 354.719 15.2001L335.139 20.2001L316.139 27.0601C309.709 29.1301 303.789 32.4201 297.699 35.2801C291.609 38.1401 285.489 40.9901 279.869 44.7401C274.159 48.3101 268.289 51.6301 262.719 55.4101L246.579 67.5401C225.68 84.573 207.274 104.453 191.899 126.6C177.074 149.079 165.389 173.478 157.169 199.12C157.15 199.201 157.127 199.281 157.099 199.36L155.749 198.87C148.191 196.318 140.434 194.398 132.559 193.13C117.145 190.605 101.493 189.854 85.9086 190.89C70.4386 191.96 54.9786 194.67 40.5186 200.37C33.2758 203.159 26.47 206.971 20.3086 211.69C14.1768 216.37 9.21351 222.408 5.80859 229.33C9.72676 222.859 15.0902 217.382 21.4786 213.33C27.7901 209.315 34.6472 206.23 41.8386 204.17C56.1686 199.93 71.2186 198.63 86.0986 198.91C100.946 199.228 115.708 201.241 130.099 204.91C137.126 206.675 143.996 209.016 150.639 211.91C151.639 212.34 152.529 212.78 153.459 213.24C148.454 234.687 145.772 256.61 145.459 278.63V279.44H146.299C146.396 346.989 172.005 412.008 217.999 461.48L217.389 462.04L217.939 462.63C254.79 502.353 302.754 530.054 355.579 542.12C368.7 545.133 382.032 547.139 395.459 548.12C402.159 548.83 408.899 548.71 415.619 548.94L435.789 547.94C442.549 547.94 449.169 546.61 455.839 545.65C462.469 544.53 469.229 544.01 475.699 542.05L495.279 537.05L514.279 530.18C520.719 528.12 526.629 524.82 532.719 521.97C538.809 519.12 544.939 516.26 550.549 512.51C556.269 508.94 562.139 505.61 567.709 501.84L583.849 489.71C604.725 472.668 623.11 452.785 638.469 430.64C653.299 408.164 664.984 383.764 673.199 358.12C680.644 332.26 684.592 305.519 684.939 278.61V277.81L684.119 277.82Z" fill="black"/>
    <path d="M675.329 277.77C675.189 277.11 675.029 276.45 674.909 275.77C674.36 272.576 674.026 269.349 673.909 266.11V265.52V265L673.859 264.24L673.749 262.74L673.539 259.74L673.119 253.74C672.749 249.74 672.199 245.74 671.749 241.74C671.659 240.74 671.499 239.74 671.319 238.74L670.829 235.74L669.829 229.79C666.9 213.96 662.494 198.438 656.669 183.43C644.947 153.304 627.717 125.626 605.859 101.81L605.789 101.74C604.992 100.877 604.374 99.8657 603.969 98.7636C603.565 97.6615 603.381 96.4903 603.429 95.3172C603.478 94.1441 603.757 92.992 604.251 91.9269C604.745 90.8618 605.444 89.9046 606.309 89.11L606.919 88.55L606.459 101.24L601.809 96.34L599.409 94C598.639 93.2 597.809 92.43 597.019 91.65L592.199 86.9501L587.199 82.44L584.689 80.19L582.119 78C580.389 76.56 578.689 75.1001 576.939 73.69C573.379 70.96 569.939 68.1201 566.199 65.5701C551.61 55.0536 535.985 46.0536 519.569 38.71C503.125 31.4195 485.97 25.8531 468.379 22.1001C459.574 20.2037 450.679 18.7519 441.729 17.75C440.619 17.65 439.519 17.52 438.409 17.43L436.739 17.29L434.949 17.16C434.359 17.16 433.759 17.0601 433.159 16.9901L431.539 16.8501C430.479 16.7601 429.389 16.7 428.299 16.64C423.909 16.41 419.299 16.39 414.469 16.2H415.129L394.779 17.0701H393.519H392.429C391.689 17.0701 390.939 17.1501 390.189 17.2101C388.679 17.3301 387.129 17.5001 385.549 17.7101C383.969 17.9201 382.349 18.15 380.689 18.4L375.689 19.12L373.149 19.51L370.589 19.87L365.689 20.56C364.099 20.8 362.569 21.0501 361.099 21.3501C360.359 21.5001 359.639 21.67 358.929 21.84L357.879 22.1001L356.689 22.44L336.919 27.37L337.619 27.16L322.049 32.7L318.169 34.0701L317.229 34.3801L316.379 34.68C315.819 34.89 315.249 35.09 314.679 35.33C312.399 36.23 310.069 37.33 307.679 38.47L292.939 45.53C290.589 46.7 288.329 47.8801 286.209 49.1401C285.119 49.7701 284.209 50.4 282.829 51.25L279.229 53.4201L272.229 57.61C271.089 58.31 269.969 59.01 268.869 59.71L267.289 60.71C266.859 60.97 266.289 61.4 265.759 61.8L252.809 71.44C250.559 73.03 248.699 74.7001 246.659 76.3801C244.619 78.0601 242.589 79.8501 240.599 81.6401C236.599 85.2001 232.705 88.8667 228.919 92.6401C221.345 100.178 214.21 108.145 207.549 116.5C204.239 120.66 200.979 124.98 197.979 129.28C194.979 133.58 192.159 138.16 189.409 142.75C183.943 151.956 178.993 161.457 174.579 171.21C172.369 176.09 170.269 181.02 168.349 186.02C167.399 188.52 166.439 191.02 165.549 193.55C165.109 194.81 164.639 196.08 164.239 197.33L162.999 201.1L162.919 201.36C162.663 202.125 162.26 202.832 161.731 203.441C161.202 204.05 160.559 204.549 159.837 204.91C159.116 205.27 158.33 205.485 157.526 205.541C156.721 205.598 155.914 205.496 155.149 205.24L154.969 205.17C148.795 202.944 142.46 201.195 136.019 199.94C129.487 198.65 122.891 197.712 116.259 197.13C109.609 196.535 102.934 196.275 96.2586 196.35C89.5748 196.411 82.8988 196.825 76.2586 197.59C69.6692 198.329 63.1353 199.498 56.6986 201.09C50.3429 202.652 44.1359 204.767 38.1486 207.41C32.3059 209.978 26.8472 213.343 21.9286 217.41C17.1962 221.317 13.3335 226.171 10.5886 231.66L1.12863 226.66C4.9652 220.344 10.0734 214.896 16.1286 210.66C21.982 206.572 28.377 203.321 35.1286 201C48.3686 196.39 62.1286 194.49 75.7286 194.08C82.5292 193.878 89.3356 194.042 96.1186 194.57C102.891 195.075 109.633 195.926 116.319 197.12C123.024 198.306 129.657 199.865 136.189 201.79C142.812 203.703 149.259 206.182 155.459 209.2C156.379 209.658 157.117 210.415 157.551 211.347C157.985 212.279 158.09 213.331 157.849 214.33C152.756 235.708 150 257.577 149.629 279.55L145.389 275.25H146.269C146.821 275.251 147.367 275.362 147.876 275.575C148.385 275.788 148.847 276.099 149.236 276.491C149.624 276.884 149.931 277.349 150.139 277.86C150.347 278.371 150.453 278.918 150.449 279.47C150.294 346.078 175.245 410.298 220.329 459.33C220.614 459.64 220.836 460.003 220.981 460.398C221.126 460.793 221.192 461.214 221.174 461.635C221.157 462.055 221.056 462.469 220.878 462.851C220.701 463.232 220.449 463.576 220.139 463.86L219.539 464.42L219.699 459.87C221.269 461.56 222.859 463.2 224.439 464.87L226.809 467.36C227.609 468.18 228.439 468.96 229.259 469.77L234.189 474.56L239.289 479.17L241.849 481.47L244.489 483.68C246.259 485.14 247.989 486.68 249.779 488.08C253.419 490.86 256.989 493.76 260.779 496.38C275.694 507.119 291.663 516.313 308.439 523.82C325.252 531.287 342.796 536.984 360.789 540.82C369.784 542.76 378.873 544.242 388.019 545.26C390.319 545.49 392.559 545.7 394.909 545.86C397.259 546.02 399.469 546.28 401.769 546.39C406.339 546.62 410.969 546.64 415.659 546.83H415.479L435.709 545.96C442.279 545.96 448.809 544.72 455.509 543.79C462.239 542.7 468.889 542.22 475.169 540.33L494.809 535.44L494.649 535.49C501.409 533.1 508.169 530.64 514.929 528.31C521.499 526.05 527.809 522.52 534.339 519.55C537.579 518.02 540.789 516.55 543.899 514.83C545.459 513.99 546.989 513.12 548.469 512.19C549.209 511.71 549.959 511.19 550.759 510.75L553.059 509.35C556.139 507.5 559.219 505.69 562.249 503.81C563.749 502.88 565.249 501.9 566.709 500.95L571.009 497.77L579.599 491.37C581.019 490.29 582.509 489.28 583.859 488.14C585.209 487 586.609 485.9 587.949 484.72C593.389 480.1 598.662 475.293 603.769 470.3C613.983 460.319 623.427 449.578 632.019 438.17C634.149 435.3 636.259 432.42 638.259 429.47C640.259 426.52 642.149 423.47 644.009 420.47C647.729 414.37 651.229 408.143 654.509 401.79C661.06 389.073 666.681 375.899 671.329 362.37C671.879 360.67 672.499 358.99 672.999 357.28C673.499 355.57 673.999 353.85 674.469 352.12C675.409 348.67 676.299 345.21 677.099 341.72C678.729 334.72 680.099 327.72 681.199 320.65C683.389 306.496 684.629 292.21 684.909 277.89H684.079L675.329 277.77ZM684.819 282.91C684.519 295.541 683.467 308.144 681.669 320.65C680.629 327.743 679.332 334.793 677.779 341.8C677.009 345.3 676.149 348.8 675.239 352.25C674.799 353.99 674.239 355.71 673.819 357.44C673.399 359.17 672.729 360.86 672.189 362.57C667.664 376.196 662.153 389.475 655.699 402.3C652.479 408.72 649.025 415.013 645.339 421.18C643.499 424.26 641.589 427.31 639.639 430.33C637.689 433.35 635.549 436.25 633.439 439.15C624.906 450.727 615.506 461.639 605.319 471.79C600.239 476.87 594.975 481.767 589.529 486.48C588.189 487.67 586.779 488.81 585.409 489.99C584.039 491.17 582.569 492.18 581.149 493.29L572.569 499.81L568.259 503.06C566.729 504.11 565.259 505.06 563.709 506.06C560.709 507.99 557.599 509.84 554.549 511.71L552.279 513.12C551.539 513.57 550.799 514.07 550.029 514.57C548.489 515.55 546.922 516.477 545.329 517.35C542.149 519.1 538.899 520.67 535.679 522.24C532.459 523.81 529.269 525.36 526.039 526.97C522.794 528.618 519.455 530.074 516.039 531.33C509.289 533.74 502.599 536.24 495.879 538.7H495.739L476.229 543.77C472.916 544.753 469.537 545.498 466.119 546C462.749 546.54 459.449 547 456.119 547.53C452.789 548.06 449.489 548.61 446.119 549.08C442.718 549.59 439.287 549.881 435.849 549.95L415.719 551H415.549C410.959 550.87 406.309 550.89 401.609 550.7C399.279 550.62 396.839 550.42 394.609 550.23C392.379 550.04 389.949 549.9 387.609 549.69C378.296 548.746 369.038 547.331 359.869 545.45C341.487 541.734 323.543 536.11 306.329 528.67C289.124 521.183 272.729 511.959 257.399 501.14C253.509 498.51 249.839 495.58 246.089 492.77C244.249 491.32 242.449 489.77 240.629 488.32L237.909 486.09L235.269 483.77L229.999 479.12L224.899 474.26C224.059 473.44 223.189 472.65 222.369 471.82L219.909 469.29C218.289 467.6 216.619 465.93 215.019 464.23C214.731 463.925 214.506 463.567 214.357 463.176C214.208 462.784 214.137 462.367 214.149 461.948C214.162 461.529 214.256 461.117 214.427 460.735C214.599 460.352 214.844 460.008 215.149 459.72L215.749 459.16L215.589 463.72C168.744 413.742 142.467 347.938 141.999 279.44L146.219 283.66H145.389C144.836 283.663 144.288 283.556 143.776 283.347C143.264 283.138 142.799 282.83 142.406 282.441C142.013 282.052 141.701 281.589 141.487 281.08C141.273 280.57 141.161 280.023 141.159 279.47V279.36C141.334 256.749 143.963 234.224 148.999 212.18L151.419 217.33C145.667 214.603 139.692 212.375 133.559 210.67C127.349 208.908 121.046 207.495 114.679 206.44C108.301 205.364 101.873 204.616 95.4186 204.2C88.9749 203.762 82.5123 203.668 76.0586 203.92C69.6517 204.167 63.2679 204.835 56.9486 205.92C50.7067 206.962 44.5693 208.555 38.6086 210.68C32.8129 212.736 27.3306 215.587 22.3186 219.15C17.5117 222.568 13.4635 226.943 10.4286 232C9.76557 233.258 8.62978 234.202 7.27108 234.623C5.91238 235.044 4.44207 234.908 3.18362 234.245C1.92517 233.582 0.981654 232.446 0.560634 231.088C0.139615 229.729 0.275584 228.258 0.938625 227C4.26285 220.086 9.00976 213.952 14.8686 209C20.5182 204.225 26.8053 200.26 33.5486 197.22C46.7986 191.17 60.8386 187.84 74.8986 186.07C81.9228 185.181 88.9896 184.67 96.0686 184.54C103.141 184.384 110.217 184.587 117.269 185.15C124.351 185.721 131.398 186.673 138.379 188C145.454 189.308 152.418 191.16 159.209 193.54L151.209 197.62L151.309 197.29L151.389 197.04L151.549 196.53L151.879 195.53L152.539 193.53C152.969 192.17 153.429 190.87 153.889 189.53C154.779 186.89 155.749 184.27 156.719 181.65C158.719 176.42 160.809 171.25 163.059 166.14C167.567 155.901 172.645 145.922 178.269 136.25C181.099 131.43 184.009 126.67 187.169 121.94C190.329 117.21 193.689 112.78 197.169 108.34C204.065 99.5085 211.464 91.0812 219.329 83.1001C223.269 79.1001 227.305 75.2234 231.439 71.47C233.509 69.58 235.609 67.74 237.729 65.9C239.849 64.06 242.109 62.1 244.319 60.5L257.599 50.41C258.149 50 258.679 49.58 259.399 49.11L261.249 47.8801C262.439 47.1001 263.639 46.34 264.829 45.59L271.829 41.25L275.239 39.15C276.189 38.56 277.529 37.6301 278.799 36.8801C281.369 35.32 283.949 33.9501 286.489 32.66L301.279 25.3801C303.799 24.1501 306.409 22.89 309.209 21.75C309.899 21.46 310.619 21.1901 311.329 20.91L312.419 20.5201L313.419 20.18L317.269 18.7701L332.569 13.16C332.779 13.08 332.979 13.0201 333.189 12.9601H333.269L352.649 7.96005L353.889 7.60005L355.279 7.23004C356.199 7.00004 357.119 6.78004 358.029 6.59004C359.849 6.20004 361.639 5.89004 363.379 5.59004L368.469 4.82005L370.909 4.45004L373.359 4.05005L378.359 3.27005C380.029 3.00005 381.739 2.73005 383.499 2.49005C385.259 2.25005 387.049 2.02005 388.899 1.86005C389.819 1.78005 390.749 1.71005 391.689 1.66005L393.119 1.60005H394.389L414.389 0.540039H414.999C419.439 0.680039 424.109 0.650052 428.999 0.850052C430.219 0.900052 431.449 0.960049 432.699 1.05005L434.549 1.20004C435.099 1.20004 435.649 1.30005 436.219 1.33005L437.909 1.44005L439.709 1.58005C440.909 1.66005 442.109 1.78005 443.309 1.89005C452.816 2.84743 462.268 4.28931 471.629 6.21005C490.408 10.0114 508.74 15.7591 526.329 23.36C543.911 31.0022 560.665 40.4247 576.329 51.4801C580.329 54.1701 584.039 57.15 587.869 60.03C589.749 61.51 591.579 63.0301 593.439 64.5701L596.219 66.84L598.919 69.22L604.299 73.99L609.509 78.99C610.369 79.82 611.249 80.63 612.089 81.49L614.599 84.0701L619.599 89.22C620.403 90.0519 621.036 91.034 621.461 92.1105C621.886 93.1869 622.094 94.3365 622.075 95.4935C622.055 96.6506 621.808 97.7926 621.347 98.854C620.886 99.9155 620.221 100.876 619.389 101.68L619.179 101.88L618.579 102.45L619.039 89.74C654.709 127.799 678.943 175.131 688.969 226.32L690.099 232.71L690.669 235.9C690.869 236.97 691.049 238.03 691.159 239.11C691.699 243.4 692.319 247.68 692.759 251.98L693.279 258.45L693.539 261.68L693.669 263.3L693.729 264.11V264.31V264.59C693.715 265.584 693.476 266.562 693.029 267.45C692.579 268.45 691.919 269.51 691.229 270.84L684.819 282.91Z" fill="url(#paint0_radial)"/>
    <path fill-rule="evenodd" clip-rule="evenodd" d="M684.128 278.62C684.128 427.16 563.717 547.56 415.188 547.56C266.658 547.56 146.188 427.16 146.188 278.62C146.188 130.08 266.598 9.67969 415.188 9.67969C563.777 9.67969 684.128 130.09 684.128 278.62Z" fill="#B68D40"/>
    <path d="M684.937 278.62C684.59 305.528 680.642 332.269 673.197 358.13C664.982 383.774 653.297 408.174 638.467 430.65C623.108 452.794 604.723 472.678 583.847 489.72L567.707 501.85C562.137 505.62 556.267 508.95 550.547 512.52C544.937 516.27 538.777 519.03 532.717 521.98C526.657 524.93 520.717 528.13 514.277 530.19L495.277 537.06L475.697 542.06C469.227 544.06 462.467 544.54 455.837 545.66C449.167 546.66 442.547 547.92 435.787 547.95L415.617 548.95C408.897 548.72 402.157 548.84 395.457 548.13C382.03 547.148 368.698 545.143 355.577 542.13C302.752 530.063 254.788 502.363 217.937 462.64L217.387 462.05L218.507 461.05L219.117 461.58C259.697 496.73 307.837 520.51 358.367 529.76C383.617 533.97 409.367 535.98 434.647 532.83C441.007 532.59 447.247 531.35 453.517 530.36C459.787 529.37 466.117 528.71 472.187 526.77L490.567 521.89L508.367 515.24C531.847 505.88 554.367 493.72 574.367 477.92C594.52 462.173 612.547 443.881 627.997 423.5C643.108 402.49 655.559 379.69 665.067 355.62C674.257 331.14 679.747 305.31 683.327 278.62L683.427 277.82H684.997V278.62H684.937Z" fill="#F4EAD0"/>
    <path d="M611.248 95.7098C570.668 60.5698 522.528 36.7898 471.998 27.5398C446.748 23.3298 420.998 21.3198 395.728 24.4698C389.358 24.6998 383.118 25.9398 376.848 26.9298C370.578 27.9198 364.248 28.5898 358.188 30.5298L339.808 35.4098L321.998 42.0598C298.508 51.4098 275.998 63.5798 255.998 79.3798C235.849 95.1053 217.826 113.378 202.378 133.74C187.265 154.752 174.813 177.556 165.308 201.63C156.118 226.1 150.628 251.93 147.048 278.63L146.938 279.44H145.418V278.63C145.757 251.725 149.702 224.986 157.148 199.13C165.374 173.483 177.066 149.081 191.898 126.6C207.257 104.453 225.646 84.5693 246.528 67.5298L262.668 55.3998C268.238 51.6198 274.108 48.2998 279.818 44.7298C285.438 40.9798 291.588 38.2098 297.648 35.2698C303.708 32.3298 309.648 29.1198 316.088 27.0498L335.088 20.1898L354.668 15.1898C361.128 13.1898 367.888 12.6998 374.528 11.5898C381.188 10.5898 387.818 9.3298 394.528 9.2998L414.698 8.2998C421.418 8.5398 428.168 8.4098 434.858 9.1198C448.287 10.1062 461.622 12.112 474.748 15.1198C527.569 27.18 575.531 54.8774 612.378 94.5998L612.928 95.1898L611.818 96.1898L611.198 95.6598L611.248 95.7098Z" fill="#F4EAD0"/>
    <path d="M638.228 183.6C635.588 177.379 631.682 171.777 626.758 167.15C625.179 165.431 623.43 163.876 621.538 162.51C619.593 161.187 617.454 160.175 615.198 159.51C610.663 158.296 605.933 157.984 601.278 158.59C592.078 159.71 582.828 160.23 573.568 160.87C571.395 161.017 569.225 161.18 567.058 161.36C565.128 158.53 563.118 155.36 561.268 152.45C553.728 140.55 545.918 128.24 539.498 128.24C538.742 128.257 537.997 128.429 537.31 128.743C536.622 129.058 536.005 129.509 535.498 130.07C529.498 136.23 528.648 158.3 528.568 167.28C525.235 168.173 521.928 169.21 518.648 170.39C515.231 171.644 511.892 173.099 508.648 174.75C496.848 167.85 485.208 161.75 474.758 156.3C466.508 151.99 458.758 147.91 452.338 144.21C426.418 129.21 401.998 121.88 377.678 121.88C344.368 121.88 314.848 133.55 292.308 155.63C267.148 180.28 251.998 216.03 247.308 261.89C245.738 277.07 244.518 292.8 246.418 307.78C240.158 307.32 233.928 306.65 227.818 305.69C220.956 304.648 214.176 303.124 207.528 301.13C201.373 299.354 195.484 296.761 190.018 293.42C188.814 292.654 187.656 291.819 186.548 290.92C185.507 290.092 184.528 289.19 183.618 288.22C182.77 287.331 182.001 286.371 181.318 285.35C180.958 284.86 180.708 284.35 180.378 283.84C180.048 283.33 179.648 282.5 179.308 281.84C178.054 279.458 177.135 276.914 176.578 274.28C176.112 271.939 176.146 269.527 176.678 267.2C177.511 264.001 178.626 260.882 180.008 257.88C180.778 256.01 181.598 253.94 182.318 251.64C183.086 249.203 183.602 246.693 183.858 244.15C184.114 241.5 184.033 238.829 183.618 236.2C183.211 233.719 182.54 231.289 181.618 228.95C181.188 227.82 180.708 226.75 180.208 225.71C179.958 225.18 179.688 224.71 179.428 224.17C179.168 223.63 178.758 222.91 178.428 222.34C177.039 220.124 175.358 218.105 173.428 216.34C170.085 213.308 166.344 210.748 162.308 208.73C158.611 206.847 154.785 205.229 150.858 203.89C143.3 201.338 135.544 199.418 127.668 198.15C112.254 195.625 96.6025 194.874 81.0179 195.91C65.5479 196.98 50.088 199.69 35.628 205.39C28.3852 208.179 21.5794 211.991 15.418 216.71C9.28615 221.39 4.32288 227.428 0.917969 234.35C4.83613 227.878 10.1995 222.402 16.588 218.35C22.8995 214.335 29.7566 211.25 36.948 209.19C51.278 204.95 66.3279 203.65 81.2079 203.93C96.0552 204.248 110.818 206.261 125.208 209.93C132.235 211.695 139.105 214.036 145.748 216.93C148.918 218.326 151.983 219.951 154.918 221.79C157.572 223.404 159.995 225.372 162.118 227.64C162.921 228.523 163.595 229.517 164.118 230.59C164.238 230.83 164.288 230.98 164.408 231.28C164.528 231.58 164.688 231.99 164.798 232.34C165.038 233.05 165.258 233.74 165.418 234.42C166.094 236.784 166.169 239.279 165.638 241.68C164.85 244.414 163.699 247.03 162.218 249.46C160.018 253.17 158.138 257.061 156.598 261.09C154.827 266.034 154.082 271.288 154.408 276.53C154.758 281.456 155.815 286.306 157.548 290.93C157.948 292.02 158.368 293.08 158.808 294.13C159.248 295.18 159.918 296.52 160.558 297.64C161.805 299.895 163.248 302.036 164.868 304.04C166.401 305.981 168.072 307.809 169.868 309.51C171.592 311.145 173.409 312.681 175.308 314.11C182.428 319.331 190.23 323.551 198.498 326.65C206.224 329.616 214.151 332.032 222.218 333.88C230.148 335.74 238.078 337.14 246.028 338.24C249.688 338.75 253.358 339.17 257.028 339.53C257.568 340.43 258.128 341.33 258.718 342.21C264.218 358.97 270.948 381.45 269.718 385.49C267.488 393.13 258.088 395.49 250.538 397.44C246.078 398.58 242.538 399.44 241.538 401.28C241.379 401.565 241.281 401.881 241.252 402.207C241.223 402.532 241.262 402.861 241.368 403.17C244.278 412.76 263.098 417 284.198 417C290.02 416.996 295.838 416.689 301.628 416.08C320.338 414.14 342.498 408.45 343.368 398.86C343.461 397.786 343.293 396.705 342.878 395.71C380.658 409.38 414.738 412.86 463.078 413.78L463.888 414.19C462.288 417.15 461.928 420.625 462.888 423.85C464.768 430.85 471.238 436.98 475.018 438.85C483.528 443.14 495.278 445.04 506.538 445.04C519.788 445.04 532.368 442.41 538.198 437.95C540.808 435.95 541.928 433.63 541.438 431.23C540.198 425.23 528.998 418.89 508.888 412.87C508.658 412.352 508.317 411.891 507.888 411.52L508.828 411.18C509.688 410.86 511.398 410.32 513.368 409.69C517.351 408.539 521.267 407.167 525.098 405.58C527.775 404.128 530.121 402.136 531.988 399.73C533.32 398.101 534.826 396.623 536.478 395.32C538.478 393.82 540.478 392.58 542.478 391.26L542.998 391C546.428 397 548.928 402.84 547.488 405C546.658 406.252 546.113 407.672 545.892 409.158C545.671 410.644 545.779 412.16 546.208 413.6C548.338 421.6 557.788 428.6 561.768 430.6C570.198 434.85 580.358 436.72 589.658 436.72C599.438 436.72 608.278 434.66 613.188 431.11C616.308 428.86 617.728 426.11 617.288 423.17C616.288 416.09 604.858 408.6 584.358 401.5C583.758 400.28 584.728 390.91 585.848 380.09C586.478 374.01 587.198 366.98 587.908 359.23C588.356 357.023 588.65 354.788 588.788 352.54C589.188 347.54 589.788 343.33 590.378 338.81C591.978 327.07 593.778 313.81 593.238 283.39C596.711 280.057 600.098 276.633 603.398 273.12C612.678 263.332 620.919 252.608 627.988 241.12C631.533 235.373 634.546 229.315 636.988 223.02C639.436 216.722 640.919 210.091 641.388 203.35C641.843 196.612 640.763 189.859 638.228 183.6Z" fill="black"/>
    <path d="M275.207 335.48L273.507 335.41L271.947 335.32L268.897 335.12C266.897 334.967 264.897 334.793 262.897 334.6C258.897 334.22 254.897 333.757 250.897 333.21C242.947 332.11 235.017 330.71 227.087 328.85C219.02 327.002 211.093 324.586 203.367 321.62C195.099 318.521 187.297 314.302 180.177 309.08C178.278 307.651 176.461 306.115 174.737 304.48C172.944 302.776 171.273 300.948 169.737 299.01C168.123 297.004 166.684 294.862 165.437 292.61C164.797 291.49 164.217 290.26 163.687 289.1C163.157 287.94 162.827 286.99 162.427 285.9C160.694 281.276 159.637 276.426 159.287 271.5C158.961 266.258 159.706 261.005 161.477 256.06C163.017 252.031 164.897 248.14 167.097 244.43C168.578 242.001 169.729 239.384 170.517 236.65C171.048 234.249 170.973 231.754 170.297 229.39C170.137 228.71 169.917 228.02 169.677 227.31C169.567 226.96 169.417 226.6 169.287 226.25C169.157 225.9 169.117 225.8 168.997 225.56C168.474 224.487 167.8 223.493 166.997 222.61C164.874 220.342 162.451 218.374 159.797 216.76C156.862 214.921 153.797 213.296 150.627 211.9C143.984 209.006 137.114 206.665 130.087 204.9C115.697 201.231 100.934 199.218 86.0869 198.9C71.2069 198.62 56.1569 199.9 41.8269 204.16C34.6355 206.22 27.7784 209.305 21.4669 213.32C15.0785 217.372 9.71504 222.849 5.79688 229.32C9.20179 222.398 14.1651 216.36 20.2969 211.68C26.4583 206.961 33.2642 203.149 40.5069 200.36C54.9669 194.66 70.4269 191.95 85.8969 190.88C101.481 189.844 117.133 190.595 132.547 193.12C140.422 194.388 148.179 196.308 155.737 198.86C159.664 200.199 163.49 201.817 167.187 203.7C171.223 205.718 174.964 208.278 178.307 211.31C180.236 213.075 181.918 215.094 183.307 217.31C183.667 217.88 184.037 218.58 184.307 219.14C184.577 219.7 184.837 220.14 185.087 220.68C185.587 221.68 186.087 222.79 186.497 223.92C187.419 226.259 188.09 228.689 188.497 231.17C188.912 233.799 188.993 236.471 188.737 239.12C188.481 241.663 187.965 244.173 187.197 246.61C186.477 248.91 185.657 250.98 184.887 252.85C183.504 255.852 182.39 258.971 181.557 262.17C181.025 264.497 180.991 266.909 181.457 269.25C182.014 271.884 182.933 274.428 184.187 276.81C184.527 277.47 184.887 278.14 185.257 278.81C185.627 279.48 185.837 279.81 186.197 280.32C186.88 281.341 187.649 282.301 188.497 283.19C189.407 284.16 190.386 285.062 191.427 285.89C192.535 286.789 193.693 287.624 194.897 288.39C200.363 291.731 206.252 294.324 212.407 296.1C219.055 298.094 225.835 299.618 232.697 300.66C239.697 301.76 246.817 302.49 253.987 302.95C257.577 303.18 261.177 303.33 264.757 303.41C266.557 303.41 268.347 303.47 270.117 303.47H272.767H274.057H275.197L275.207 335.48Z" fill="black"/>
    <path d="M260.998 327.49C260.998 327.49 277.108 374.27 275.248 380.61C271.248 394.32 245.008 391.8 246.898 397.98C255.998 427.64 420.318 403.61 309.818 371.37C308.378 370.95 310.058 366.17 306.308 361.37C292.998 344.4 260.998 327.49 260.998 327.49Z" fill="black" stroke="black" stroke-width="1.11" stroke-miterlimit="10"/>
    <path d="M538.598 370.73C538.598 370.73 556.598 394.84 552.948 400.36C546.488 410.17 561.238 422.29 567.008 425.2C600.418 442.03 658.848 421.2 589.068 397.08C586.558 396.22 595.448 347.14 595.448 293.15C595.448 278 538.598 370.73 538.598 370.73Z" fill="black" stroke="black" stroke-width="1.11" stroke-miterlimit="10"/>
    <path d="M427.777 392.48C427.777 392.48 473.537 403.03 469.907 408.55C463.447 418.37 474.517 430.49 480.287 433.39C513.687 450.23 596.737 429.39 502.347 405.28C500.157 404.72 502.847 382.82 495.927 378.92C482.057 371.11 427.777 392.48 427.777 392.48Z" fill="black" stroke="black" stroke-width="1.11" stroke-miterlimit="10"/>
    <path d="M595.718 277.93C594.298 202.73 498.268 165.87 455.998 141.36C434.148 128.7 409.728 119.36 382.588 119.36C320.298 119.36 264.518 161.55 254.668 257.13C249.668 305.62 250.998 341.78 309.768 371.36C368.538 400.94 409.038 405.36 472.468 406.36C475.358 406.36 480.568 404.77 483.548 404.81C485.348 404.81 491.728 407.97 495.998 407.86C503.448 407.67 506.188 406.32 512.998 403.86C515.798 402.86 526.268 399.77 528.998 398.39C533.868 395.93 535.228 391.96 539.998 388.39C545.748 384.05 551.478 381.72 557.308 375.79C558.598 374.48 565.498 355.79 565.498 361.42C565.498 367.54 574.068 348.7 574.748 352.64C576.748 364.23 581.748 344.76 584.248 344.64C586.608 344.53 589.608 367.64 591.248 347.45C592.768 329.36 596.508 320.28 595.718 277.93Z" fill="#F4EBD0" stroke="black" stroke-width="5" stroke-linecap="round" stroke-linejoin="round"/>
    <path d="M534.878 166.06C534.878 166.06 534.068 124.57 544.498 124.57C554.928 124.57 572.558 166.06 579.768 166.06" fill="#F4EBD0"/>
    <path d="M534.878 166.06C534.878 166.06 534.068 124.57 544.498 124.57C554.928 124.57 572.558 166.06 579.768 166.06" stroke="black" stroke-width="2.67" stroke-miterlimit="10"/>
    <path d="M443.546 176.3C400.376 155.86 376.916 219.46 376.916 219.46C376.916 219.46 353.456 155.86 310.286 176.3C284.886 188.3 277.286 210.23 283.286 235.84C288.176 256.66 302.046 279.91 322.716 302.31C329.616 309.8 334.896 315.98 346.106 328.73C353.276 336.89 362.866 347.73 376.886 363.36C388.336 350.6 396.886 341.02 403.476 333.49C417.666 317.4 423.346 310.67 431.056 302.31C440.634 292.072 449.139 280.881 456.436 268.91L456.576 268.75C457.786 266.75 458.926 264.69 460.006 262.67C479.646 226.06 477.476 192.37 443.546 176.3Z" fill="#B68D40"/>
    <path d="M443.436 176.53L440.856 175.45L439.566 174.91C439.136 174.75 438.686 174.62 438.236 174.48L435.566 173.65L432.836 173.1C429.167 172.431 425.414 172.37 421.726 172.92C414.352 174.26 407.496 177.626 401.926 182.64C396.314 187.582 391.444 193.308 387.466 199.64C383.403 205.924 379.97 212.593 377.216 219.55C377.182 219.628 377.12 219.691 377.042 219.724C376.964 219.758 376.875 219.76 376.796 219.73C376.715 219.695 376.651 219.63 376.616 219.55C374.145 213.344 371.133 207.368 367.616 201.69C364.155 196.01 360.055 190.746 355.396 186C353.04 183.646 350.487 181.498 347.766 179.58C345.033 177.695 342.094 176.128 339.006 174.91C335.9 173.755 332.649 173.035 329.346 172.77C328.526 172.7 327.696 172.77 326.866 172.72H325.626L324.386 172.84L321.916 173.09L319.486 173.59L318.266 173.84L317.086 174.21L314.706 174.95C313.926 175.22 313.176 175.58 312.406 175.89C311.636 176.2 310.856 176.51 310.116 176.89C308.646 177.66 307.116 178.41 305.706 179.21C304.296 180.01 302.866 180.95 301.496 181.89C296.029 185.641 291.426 190.516 287.996 196.19C287.147 197.612 286.386 199.085 285.716 200.6C285.326 201.34 285.116 202.15 284.806 202.91C284.496 203.67 284.206 204.46 283.966 205.25C283.023 208.433 282.399 211.703 282.106 215.01C281.587 221.648 282.096 228.327 283.616 234.81C285.099 241.311 287.244 247.644 290.016 253.71C292.757 259.798 295.918 265.689 299.476 271.34C306.662 282.603 314.87 293.181 323.996 302.94L377.266 363.07H376.626L397.166 340L417.686 316.88L427.936 305.31C429.636 303.383 431.356 301.466 433.096 299.56C434.816 297.65 436.496 295.71 438.156 293.74C444.803 285.892 450.822 277.533 456.156 268.74L456.356 269.23C456.313 269.221 456.273 269.203 456.237 269.177C456.202 269.152 456.172 269.119 456.149 269.082C456.127 269.044 456.112 269.003 456.106 268.959C456.101 268.916 456.104 268.872 456.116 268.83C456.122 268.776 456.147 268.727 456.186 268.69L456.326 268.53L456.276 268.59C460.899 260.936 464.729 252.831 467.706 244.4C470.735 235.984 472.232 227.094 472.126 218.15C471.989 209.198 469.179 200.492 464.056 193.15C461.448 189.533 458.34 186.304 454.826 183.56C451.303 180.799 447.482 178.442 443.436 176.53ZM443.656 176.07C447.744 177.974 451.61 180.321 455.186 183.07C458.759 185.835 461.921 189.094 464.576 192.75C469.936 200.06 472.576 209.12 472.966 218.13C473.177 227.189 471.772 236.214 468.816 244.78C465.931 253.346 462.213 261.609 457.716 269.45L457.616 269.6L457.506 269.71L457.346 269.9L456.746 267.63H456.806C456.976 267.668 457.138 267.739 457.281 267.839C457.423 267.94 457.545 268.068 457.638 268.216C457.731 268.364 457.794 268.529 457.822 268.701C457.851 268.873 457.846 269.05 457.806 269.22C457.774 269.342 457.727 269.459 457.666 269.57V269.62C452.454 278.616 446.539 287.186 439.976 295.25C438.336 297.25 436.686 299.25 434.976 301.25C433.266 303.25 431.576 305.16 429.976 307.13L419.976 318.9L399.976 342.41L379.856 365.92C379.542 366.291 379.157 366.596 378.725 366.817C378.292 367.038 377.82 367.172 377.336 367.21C376.852 367.248 376.365 367.19 375.903 367.039C375.441 366.888 375.014 366.647 374.646 366.33C374.526 366.23 374.426 366.13 374.326 366.03L374.236 365.92L346.996 336.17C337.996 326.23 329.196 316.26 320.286 306.3C310.927 296.332 302.554 285.481 295.286 273.9C291.62 268.058 288.394 261.951 285.636 255.63C282.816 249.25 280.655 242.599 279.186 235.78C277.631 228.844 277.192 221.704 277.886 214.63C278.262 211.046 279.006 207.511 280.106 204.08C280.386 203.23 280.746 202.39 281.106 201.55C281.392 200.698 281.726 199.864 282.106 199.05C282.868 197.409 283.73 195.816 284.686 194.28C288.502 188.211 293.572 183.028 299.556 179.08C301.026 178.08 302.556 177.25 304.056 176.34C305.556 175.43 307.176 174.78 308.726 173.99C309.516 173.61 310.366 173.32 311.176 172.99C311.986 172.66 312.806 172.31 313.656 171.99L316.216 171.24L317.496 170.87L318.816 170.63L321.456 170.14L324.136 169.92C324.576 169.92 325.026 169.84 325.476 169.82H326.816C327.716 169.82 328.616 169.82 329.506 169.92C333.062 170.273 336.552 171.118 339.876 172.43C343.121 173.78 346.202 175.498 349.056 177.55C351.844 179.602 354.453 181.887 356.856 184.38C361.538 189.347 365.629 194.84 369.046 200.75C372.5 206.579 375.432 212.703 377.806 219.05H375.996C378.89 212.056 382.453 205.358 386.636 199.05C390.738 192.701 395.732 186.975 401.466 182.05C407.153 176.983 414.136 173.597 421.636 172.27C425.386 171.731 429.2 171.808 432.926 172.5L435.706 173.08L438.406 173.93C438.856 174.08 439.306 174.21 439.746 174.37L441.046 174.92L443.656 176.07Z" fill="black"/>
    <path d="M631.589 162.33C628.279 159.13 622.589 151.89 605.479 154.03C568.909 158.64 506.399 154.61 484.479 202.65C484.367 202.903 484.19 203.122 483.966 203.284C483.743 203.446 483.48 203.547 483.205 203.575C482.93 203.604 482.652 203.559 482.4 203.446C482.148 203.332 481.93 203.155 481.769 202.93C468.389 184.25 436.879 176.38 436.879 176.38L475.469 233C463.729 302.67 525.889 326.19 565.769 301.29C598.639 280.76 678.629 207.85 631.589 162.33Z" fill="#F4EBD0"/>
    <path d="M631.408 162.51C629.84 160.823 628.108 159.295 626.238 157.95C624.336 156.666 622.244 155.687 620.038 155.05C615.574 153.876 610.923 153.591 606.348 154.21C597.148 155.37 587.878 155.95 578.648 156.73C569.418 157.51 560.188 158.45 551.058 160.01C541.919 161.481 532.951 163.866 524.288 167.13C515.628 170.384 507.619 175.159 500.638 181.23C497.192 184.297 494.093 187.735 491.398 191.48C490.041 193.344 488.795 195.288 487.668 197.3C487.078 198.3 486.558 199.3 486.028 200.3C485.758 200.81 485.528 201.3 485.278 201.86L484.898 202.64C484.767 202.963 484.562 203.251 484.298 203.48C484.021 203.702 483.689 203.845 483.338 203.896C482.986 203.947 482.628 203.904 482.298 203.77C481.969 203.622 481.685 203.387 481.478 203.09L480.958 202.41C480.288 201.48 479.528 200.61 478.778 199.74C477.22 198.034 475.549 196.434 473.778 194.95C470.24 191.992 466.426 189.38 462.388 187.15C458.36 184.881 454.187 182.877 449.898 181.15C445.619 179.408 441.238 177.929 436.778 176.72L437.248 176.06L475.878 232.64C475.946 232.747 475.971 232.875 475.948 233C474.812 239.603 474.36 246.305 474.598 253C474.802 259.641 475.947 266.22 477.998 272.54C480.089 278.874 483.289 284.786 487.448 290C491.626 295.183 496.733 299.54 502.508 302.85C514.213 309.392 527.761 311.854 541.018 309.85C547.613 308.907 554.018 306.933 559.998 304C562.977 302.522 565.857 300.852 568.618 299C571.398 297.15 574.118 295.21 576.798 293.22C587.495 285.192 597.558 276.352 606.898 266.78C616.302 257.281 624.681 246.82 631.898 235.57C635.472 229.927 638.522 223.969 641.008 217.77C643.519 211.583 645.063 205.046 645.588 198.39C646.088 191.73 645.062 185.044 642.588 178.84C640.037 172.679 636.229 167.118 631.408 162.51ZM631.758 162.15C636.683 166.777 640.589 172.38 643.228 178.6C645.758 184.888 646.822 191.67 646.338 198.43C645.87 205.171 644.386 211.802 641.938 218.1C639.496 224.395 636.484 230.454 632.938 236.2C625.87 247.688 617.629 258.412 608.348 268.2C599.122 278.066 589.149 287.206 578.518 295.54C575.838 297.62 573.118 299.64 570.318 301.59C567.486 303.599 564.523 305.417 561.448 307.03C548.813 313.543 534.435 315.875 520.388 313.69C513.311 312.554 506.487 310.184 500.228 306.69C493.931 303.188 488.339 298.546 483.738 293C479.206 287.374 475.709 280.988 473.408 274.14C471.16 267.378 469.884 260.331 469.618 253.21C469.367 246.207 469.863 239.198 471.098 232.3L471.808 235.53C465.438 226 458.998 216.6 452.678 207.07L433.738 178.53L433.648 178.39C433.374 177.978 433.185 177.516 433.089 177.03C432.994 176.544 432.996 176.045 433.095 175.56C433.193 175.075 433.386 174.614 433.663 174.204C433.94 173.794 434.295 173.443 434.708 173.17C435.161 172.875 435.672 172.679 436.207 172.596C436.741 172.513 437.287 172.545 437.808 172.69C440.258 173.38 442.448 174.12 444.718 174.93C446.988 175.74 449.188 176.62 451.378 177.56C455.788 179.424 460.07 181.576 464.198 184C468.387 186.426 472.338 189.242 475.998 192.41C477.838 194.03 479.569 195.771 481.178 197.62C481.968 198.57 482.758 199.52 483.478 200.54L484.028 201.29V201.23L483.908 201.12C483.815 201.045 483.71 200.984 483.598 200.94C483.4 200.857 483.182 200.831 482.969 200.867C482.757 200.902 482.559 200.997 482.398 201.14C482.318 201.208 482.251 201.289 482.198 201.38C482.198 201.44 482.068 201.63 482.198 201.38L482.608 200.57C482.878 200.04 483.138 199.5 483.428 198.97C483.998 197.91 484.578 196.85 485.198 195.82C486.42 193.748 487.755 191.745 489.198 189.82C492.077 185.992 495.363 182.488 498.998 179.37C506.308 173.272 514.649 168.53 523.628 165.37C532.462 162.249 541.588 160.032 550.868 158.75C560.078 157.33 569.338 156.49 578.588 155.85C587.838 155.21 597.098 154.69 606.298 153.57C610.954 152.964 615.683 153.277 620.218 154.49C622.475 155.155 624.614 156.167 626.558 157.49C628.445 158.863 630.187 160.425 631.758 162.15Z" fill="black"/>
    <path d="M474.17 250.62C474.17 250.62 470.49 258.82 483.28 259.69C483.517 259.707 483.754 259.662 483.968 259.56C484.182 259.458 484.367 259.302 484.504 259.108C484.64 258.914 484.725 258.688 484.748 258.452C484.772 258.216 484.735 257.978 484.64 257.76C482.17 252.16 476.28 236.22 485.29 228.3C485.49 228.125 485.637 227.896 485.71 227.641C485.784 227.385 485.782 227.113 485.705 226.859C485.628 226.604 485.478 226.377 485.275 226.205C485.072 226.033 484.824 225.924 484.56 225.89C480.24 225.31 474.06 223.23 474.02 216.09C474.025 216.04 474.025 215.99 474.02 215.94C473.58 214.34 465.58 185.88 446.77 176.85H446.71C445.79 176.26 420.06 160.16 415.24 192.15C407.87 241.04 474.19 250.65 474.19 250.65" fill="#D6AD60"/>
    <path d="M474.398 250.72C474.015 251.913 474.015 253.197 474.398 254.39C474.793 255.494 475.594 256.406 476.638 256.94C476.888 257.096 477.152 257.226 477.428 257.33C477.701 257.456 477.982 257.566 478.268 257.66C478.854 257.839 479.452 257.976 480.058 258.07C480.67 258.178 481.288 258.244 481.908 258.27L482.908 258.32H483.378C483.448 258.32 483.378 258.32 483.378 258.32C483.378 258.32 483.298 258.24 483.268 258.32C483.238 258.4 483.268 258.32 483.268 258.32V258.21L483.028 257.75L482.588 256.83C481.998 255.6 481.448 254.34 480.938 253.06C479.907 250.468 479.104 247.791 478.538 245.06C477.951 242.195 477.826 239.254 478.168 236.35C478.532 233.181 479.756 230.172 481.708 227.65C481.978 227.33 482.218 227 482.508 226.71L482.938 226.27L483.148 226.05L483.258 225.94L483.198 225.99C482.881 226.282 482.682 226.681 482.637 227.11C482.593 227.539 482.707 227.969 482.958 228.32C483.214 228.686 483.594 228.945 484.028 229.05H484.138H483.998H483.708L483.148 228.97C482.388 228.85 481.628 228.71 480.858 228.51C479.247 228.113 477.703 227.479 476.278 226.63C474.67 225.679 473.302 224.372 472.278 222.81C471.273 221.224 470.634 219.434 470.408 217.57L470.298 216.26V216.17C470.298 216.17 470.298 216.07 470.298 216.24C470.305 216.466 470.339 216.691 470.398 216.91V216.73L470.248 216.29L469.628 214.51C468.778 212.13 467.838 209.74 466.798 207.42C464.77 202.798 462.299 198.384 459.418 194.24C456.715 190.226 453.39 186.668 449.568 183.7C448.643 183.014 447.678 182.382 446.678 181.81C446.188 181.5 445.678 181.28 445.168 181.01L444.978 180.91H444.888C444.718 180.828 444.555 180.734 444.398 180.63H444.328L444.008 180.44L443.278 180.03C441.253 178.942 439.109 178.092 436.888 177.5C434.879 176.906 432.775 176.696 430.688 176.88C429.769 176.968 428.869 177.194 428.018 177.55C427.607 177.719 427.206 177.913 426.818 178.13C426.435 178.369 426.067 178.633 425.718 178.92C424.187 180.238 422.965 181.877 422.138 183.72C421.192 185.835 420.458 188.04 419.948 190.3C418.863 195.039 418.549 199.921 419.018 204.76C419.567 209.543 421.045 214.173 423.368 218.39C425.818 222.695 428.949 226.575 432.638 229.88C436.429 233.255 440.573 236.212 444.998 238.7C449.508 241.335 454.219 243.609 459.088 245.5C461.541 246.447 464.028 247.323 466.548 248.13C469.048 248.97 471.548 249.75 474.158 250.38L474.088 250.87C468.836 249.982 463.655 248.712 458.588 247.07C453.508 245.462 448.563 243.455 443.798 241.07C439.02 238.682 434.519 235.774 430.378 232.4C426.237 228.993 422.692 224.92 419.888 220.35C417.113 215.74 415.31 210.612 414.588 205.28C413.935 199.946 414.158 194.542 415.248 189.28C415.78 186.638 416.602 184.062 417.698 181.6C418.81 179.107 420.455 176.888 422.518 175.1C423.045 174.659 423.6 174.252 424.178 173.88C424.777 173.539 425.395 173.232 426.028 172.96C427.305 172.423 428.652 172.069 430.028 171.91C432.741 171.627 435.483 171.861 438.108 172.6C440.708 173.301 443.215 174.308 445.578 175.6L446.458 176.1L446.898 176.37L447.298 176.58C447.888 176.9 448.498 177.18 449.078 177.58C450.238 178.26 451.356 179.008 452.428 179.82C456.661 183.133 460.32 187.119 463.258 191.62C466.211 196.072 468.729 200.797 470.778 205.73C471.778 208.19 472.778 210.73 473.568 213.23C473.778 213.86 473.978 214.5 474.168 215.14L474.298 215.63L474.368 215.87C474.378 215.983 474.378 216.097 474.368 216.21L474.428 217.21C474.539 218.48 474.94 219.708 475.598 220.8C477.059 222.941 479.273 224.455 481.798 225.04C482.428 225.22 483.058 225.36 483.698 225.48L484.698 225.64C485.101 225.73 485.456 225.965 485.698 226.3C485.948 226.636 486.067 227.051 486.034 227.469C486.001 227.886 485.818 228.277 485.518 228.57C485.031 229.009 484.57 229.476 484.138 229.97C482.479 231.976 481.397 234.396 481.008 236.97C480.603 239.564 480.603 242.206 481.008 244.8C481.388 247.413 482 249.986 482.838 252.49C483.248 253.75 483.698 254.99 484.198 256.21L484.578 257.13C484.74 257.448 484.864 257.783 484.948 258.13C484.978 258.378 484.953 258.629 484.875 258.866C484.796 259.103 484.666 259.319 484.494 259.5C484.322 259.681 484.112 259.821 483.879 259.911C483.647 260.001 483.397 260.038 483.148 260.02L482.648 259.96L481.648 259.85C480.974 259.775 480.306 259.655 479.648 259.49C478.312 259.213 477.04 258.687 475.898 257.94C474.716 257.18 473.866 256.001 473.518 254.64C473.201 253.282 473.316 251.859 473.848 250.57L474.398 250.72Z" fill="black"/>
    <path d="M520.756 207.09C520.756 207.09 519.956 168.87 553.096 185.71C553.096 185.71 556.866 188.22 546.856 193.71C546.242 194.051 545.747 194.571 545.436 195.2C543.686 198.73 536.506 210.52 520.756 207.09Z" fill="#D6AD60"/>
    <path d="M520.657 207.18C520.635 207.021 520.635 206.859 520.657 206.7V206.3V205.51C520.657 204.99 520.707 204.46 520.747 203.94C520.827 202.89 520.937 201.84 521.097 200.8C521.386 198.714 521.841 196.654 522.457 194.64C523.707 190.64 525.757 186.71 529.177 184.11C530.914 182.876 532.88 182.002 534.96 181.542C537.04 181.082 539.192 181.044 541.287 181.43C545.465 182.104 549.501 183.473 553.227 185.48C553.65 185.796 553.93 186.267 554.007 186.79C554.058 187.288 553.979 187.791 553.777 188.25C553.35 189.084 552.766 189.828 552.057 190.44C550.684 191.641 549.182 192.684 547.577 193.55C547.19 193.757 546.816 193.987 546.457 194.24C546.133 194.521 545.865 194.86 545.667 195.24C544.414 197.666 542.795 199.886 540.867 201.82C539.569 203.1 538.118 204.215 536.547 205.14C535.761 205.596 534.942 205.994 534.097 206.33C533.26 206.684 532.398 206.975 531.517 207.2C530.647 207.46 529.727 207.53 528.837 207.71C527.947 207.89 527.027 207.83 526.117 207.85C525.207 207.87 524.307 207.76 523.397 207.67L520.657 207.18ZM520.857 207.01C521.857 207.07 522.697 207.06 523.497 207.09L526.127 207.01C527.007 206.9 527.867 206.77 528.717 206.63C529.567 206.49 530.397 206.23 531.187 205.91C532.778 205.351 534.293 204.595 535.697 203.66C537.065 202.709 538.326 201.613 539.457 200.39C540.572 199.159 541.56 197.819 542.407 196.39C542.617 196.04 542.827 195.68 543.017 195.32C543.117 195.13 543.217 194.95 543.297 194.77L543.597 194.16C543.933 193.509 544.391 192.928 544.947 192.45C545.223 192.22 545.518 192.013 545.827 191.83L546.377 191.49C547.78 190.663 549.1 189.702 550.317 188.62C550.755 188.232 551.124 187.772 551.407 187.26C551.407 187.14 551.407 187.08 551.407 187.26C551.412 187.335 551.436 187.407 551.477 187.47C551.493 187.502 551.514 187.532 551.537 187.56V187.61L551.707 187.74L551.947 187.87C548.462 186.035 544.72 184.737 540.847 184.02C537.254 183.256 533.504 183.935 530.407 185.91C528.871 186.984 527.554 188.342 526.527 189.91C525.403 191.543 524.48 193.306 523.777 195.16C523.014 197.061 522.392 199.017 521.917 201.01C521.677 202.01 521.477 203.01 521.297 204.06L521.027 205.6L520.907 206.38V206.77C520.907 206.8 520.937 207 520.857 207V207.01Z" fill="black"/>
    <path d="M545.165 192.88C545.165 187.1 540.545 185.95 534.855 186.96C529.855 187.85 526.855 192.42 526.855 198.2C526.855 202.1 528.735 204.1 532.595 204.84C538.305 205.93 545.165 198.66 545.165 192.88Z" fill="black" stroke="black" stroke-width="2.67" stroke-miterlimit="10"/>
    <path d="M544.447 194.74C543.754 194.781 543.067 194.584 542.5 194.182C541.933 193.781 541.519 193.198 541.327 192.53C540.717 191.07 540.637 189.99 541.067 189.23C541.253 188.951 541.493 188.712 541.773 188.528C542.053 188.344 542.367 188.219 542.697 188.16C542.944 188.162 543.187 188.217 543.41 188.322C543.633 188.428 543.83 188.581 543.987 188.77C545.127 190.08 545.107 193.2 544.987 194.71H544.467L544.447 194.74Z" fill="white"/>
    <path d="M542.707 188.7C542.874 188.703 543.038 188.743 543.188 188.815C543.338 188.888 543.471 188.992 543.577 189.12C544.437 190.12 544.577 192.48 544.477 194.2C543.904 194.246 543.332 194.093 542.859 193.767C542.385 193.441 542.038 192.962 541.877 192.41V192.33V192.24C541.64 191.83 541.495 191.374 541.45 190.903C541.405 190.432 541.462 189.957 541.617 189.51C541.75 189.303 541.922 189.125 542.125 188.986C542.328 188.847 542.556 188.749 542.797 188.7H542.707ZM542.707 187.63C542.707 187.63 538.997 188.14 540.897 192.63C541.12 193.412 541.601 194.096 542.262 194.57C542.923 195.044 543.725 195.28 544.537 195.24C544.872 195.242 545.207 195.212 545.537 195.15C545.537 195.15 546.537 187.6 542.697 187.6L542.707 187.63Z" fill="black"/>
    <path d="M533.937 194.07C533.937 194.07 532.117 192.63 530.437 195.73C530.243 195.983 530.101 196.273 530.022 196.582C529.943 196.891 529.928 197.213 529.978 197.529C530.027 197.844 530.141 198.146 530.311 198.416C530.481 198.686 530.704 198.919 530.967 199.1C530.967 199.1 535.507 195.8 533.937 194.07Z" fill="white" stroke="black" stroke-width="1.8" stroke-miterlimit="10"/>
    <path d="M628.927 160.32C627.15 160.496 625.414 160.962 623.787 161.7C622.202 162.389 620.796 163.433 619.677 164.75C618.59 166.016 617.868 167.554 617.587 169.2L617.447 169.81C617.447 170.01 617.447 170.22 617.447 170.43L617.367 171.67C617.367 172.51 617.497 173.35 617.547 174.18V174.38C617.568 174.735 617.448 175.084 617.211 175.351C616.975 175.617 616.643 175.778 616.287 175.8C615.932 175.821 615.583 175.7 615.316 175.464C615.05 175.227 614.888 174.895 614.867 174.54V174.38C614.867 173.38 614.867 172.46 615.027 171.51L615.287 170.08C615.287 169.84 615.367 169.6 615.437 169.37L615.677 168.68C616.252 166.819 617.308 165.143 618.737 163.82C620.127 162.556 621.78 161.616 623.577 161.07C625.309 160.537 627.115 160.284 628.927 160.32Z" fill="black"/>
    <path d="M616.306 256.61C614.947 255.23 613.737 253.712 612.696 252.08C611.551 250.335 610.775 248.375 610.416 246.32C610.04 244.072 610.457 241.764 611.596 239.79C612.147 238.864 612.82 238.017 613.596 237.27C614.276 236.62 614.926 236.03 615.596 235.43C620.856 230.825 625.741 225.809 630.206 220.43C634.546 215.02 638.376 209.05 640.286 202.43C641.286 199.118 641.626 195.642 641.286 192.2C640.863 188.738 639.682 185.413 637.826 182.46V182.51C636.526 181.05 635.316 179.51 634.166 177.98C632.988 176.401 632.478 185.476 631.546 183.74C631.081 182.883 630.683 181.99 630.356 181.07C630.009 180.149 629.872 179.161 629.956 178.18C630.019 177.687 630.209 177.219 630.506 176.82C630.819 176.438 631.221 176.14 631.676 175.95C632.587 175.612 633.556 175.459 634.526 175.5C633.559 175.479 632.599 175.659 631.706 176.03C631.272 176.228 630.892 176.526 630.596 176.9C630.324 177.284 630.159 177.732 630.116 178.2C630.062 179.154 630.222 180.107 630.586 180.99C630.924 181.888 631.339 182.754 631.826 183.58C632.792 185.241 633.329 176.088 634.526 177.59C635.706 179.11 636.956 180.59 638.266 181.97C640.346 184.931 641.746 188.315 642.366 191.88C642.931 195.48 642.781 199.157 641.926 202.7C640.266 209.81 636.586 216.2 632.406 222.02C628.124 227.763 623.396 233.16 618.266 238.16C617.646 238.79 617.016 239.43 616.446 240.03C615.97 240.539 615.567 241.111 615.246 241.73C614.655 242.883 614.492 244.208 614.786 245.47C615.137 246.892 615.766 248.231 616.636 249.41C617.572 250.714 618.641 251.917 619.826 253L616.306 256.61Z" fill="black"/>
    <path d="M573.106 196C571.794 198.861 570.882 201.89 570.396 205C570.276 205.73 570.226 206.47 570.136 207.19C570.046 207.91 570.066 208.64 570.136 209.36C570.167 210.748 570.328 212.131 570.616 213.49C571.18 215.988 572.301 218.326 573.896 220.33C574.289 220.791 574.707 221.232 575.146 221.65C575.376 221.85 575.576 222.07 575.816 222.26L576.556 222.8L576.916 223.08L577.306 223.32L578.096 223.81C578.646 224.1 579.216 224.37 579.796 224.64C582.309 225.657 584.963 226.281 587.666 226.49C590.619 226.71 593.583 226.71 596.536 226.49C602.636 225.97 608.916 224.78 615.536 223.74L615.736 224.2L611.266 226.15C609.746 226.72 608.266 227.35 606.696 227.87C605.126 228.39 603.606 228.87 602.016 229.29C601.226 229.49 600.446 229.73 599.646 229.9L597.246 230.39C594.029 231.02 590.753 231.301 587.476 231.23C584.166 231.146 580.897 230.468 577.826 229.23C574.728 227.955 572.044 225.847 570.072 223.139C568.101 220.431 566.918 217.229 566.656 213.89C566.354 210.593 566.756 207.269 567.836 204.14C568.938 201.037 570.598 198.163 572.736 195.66L573.106 196Z" fill="black"/>
    <path d="M637.419 180.92C637.948 181.145 638.507 181.293 639.079 181.36C639.645 181.452 640.225 181.421 640.779 181.27C641.344 181.114 641.834 180.759 642.159 180.27C642.527 179.716 642.77 179.088 642.869 178.43C642.99 179.135 642.955 179.859 642.769 180.55C642.546 181.32 642.066 181.99 641.409 182.45C640.741 182.897 639.989 183.203 639.199 183.35C638.414 183.521 637.609 183.575 636.809 183.51L637.419 180.92Z" fill="black"/>
    <path d="M616.167 171C616.167 171 624.897 179.39 631.267 176.75C631.267 176.75 643.967 187.62 630.067 189.75C630.067 189.72 610.297 181.7 616.167 171Z" fill="#D6AD60"/>
    <path d="M616.137 170.76C616.22 170.753 616.302 170.778 616.367 170.83H616.437L616.567 170.88L616.827 170.98L617.337 171.18C617.677 171.32 618.027 171.43 618.337 171.56C619.007 171.83 619.677 172.06 620.337 172.28C621.591 172.734 622.87 173.118 624.167 173.43C625.283 173.694 626.43 173.809 627.577 173.77C628.342 173.759 629.086 173.522 629.717 173.09L633.717 173.74C634.547 174.39 635.147 174.93 635.827 175.57C636.506 176.213 637.14 176.901 637.727 177.63C639.236 179.351 640.271 181.436 640.727 183.68C641.026 185.382 640.77 187.134 639.997 188.68C639.235 190.095 638.097 191.272 636.707 192.08C634.83 193.152 632.754 193.832 630.607 194.08L628.257 193.8C627.577 193.51 627.097 193.27 626.527 193C625.957 192.73 625.527 192.43 624.957 192.14C623.921 191.551 622.919 190.903 621.957 190.2C619.934 188.781 618.108 187.099 616.527 185.2C615.701 184.178 614.996 183.064 614.427 181.88C613.803 180.652 613.394 179.326 613.217 177.96C613.041 176.584 613.206 175.187 613.697 173.89C613.932 173.289 614.237 172.718 614.607 172.19C614.793 171.942 614.994 171.705 615.207 171.48L615.577 171.07C615.75 170.944 615.938 170.84 616.137 170.76ZM616.207 171.26C616.216 171.468 616.16 171.675 616.047 171.85C615.937 172.1 615.857 172.35 615.767 172.6C615.606 173.1 615.499 173.617 615.447 174.14C615.337 175.183 615.456 176.238 615.797 177.23C616.532 179.23 617.748 181.02 619.337 182.44C620.914 183.913 622.644 185.214 624.497 186.32C626.339 187.446 628.264 188.429 630.257 189.26H629.997C631.495 189.079 632.949 188.628 634.287 187.93C634.904 187.596 635.416 187.097 635.767 186.49C636.077 185.872 636.179 185.17 636.057 184.49C635.73 183.024 635.065 181.654 634.117 180.49C633.188 179.263 632.139 178.13 630.987 177.11L631.437 177.18C630.038 177.716 628.518 177.851 627.047 177.57C625.618 177.307 624.235 176.842 622.937 176.19C621.657 175.546 620.433 174.797 619.277 173.95C618.707 173.53 618.147 173.09 617.597 172.64L616.787 171.94L616.387 171.58L616.197 171.4L616.097 171.31L616.047 171.26C616.072 171.271 616.099 171.276 616.127 171.276C616.154 171.276 616.182 171.271 616.207 171.26Z" fill="black"/>
    <path d="M508.427 413.08C507.137 412.42 506.117 411.81 505.007 411.08C503.897 410.35 502.857 409.71 501.817 408.97C499.712 407.502 497.708 405.895 495.817 404.16C493.895 402.391 492.147 400.442 490.597 398.34C488.992 396.155 487.731 393.737 486.857 391.17L486.787 390.96C486.568 390.28 486.626 389.54 486.948 388.902C487.27 388.264 487.83 387.778 488.507 387.55C489.427 387.26 490.507 386.84 491.507 386.42C492.507 386 493.567 385.53 494.577 385.04C496.614 384.066 498.6 382.988 500.527 381.81C504.42 379.441 508.068 376.691 511.417 373.6C513.087 372.04 514.677 370.39 516.187 368.67C517.682 366.918 519.084 365.089 520.387 363.19C522.985 359.34 525.129 355.202 526.777 350.86C525.6 355.421 523.899 359.83 521.707 364C520.57 366.064 519.325 368.067 517.977 370C516.597 371.93 515.127 373.81 513.557 375.61C510.366 379.199 506.829 382.465 502.997 385.36C501.077 386.807 499.077 388.163 496.997 389.43C495.997 390.07 494.907 390.67 493.837 391.25C492.767 391.83 491.717 392.37 490.457 392.91L492.147 389.28C492.991 391.193 494.12 392.966 495.497 394.54C496.934 396.187 498.524 397.694 500.247 399.04C502.008 400.415 503.859 401.671 505.787 402.8C506.787 403.37 507.787 403.92 508.787 404.43C509.787 404.94 510.847 405.43 511.727 405.81C512.67 406.234 513.413 407.008 513.798 407.968C514.184 408.928 514.182 410 513.794 410.959C513.406 411.918 512.661 412.689 511.716 413.111C510.771 413.532 509.7 413.571 508.727 413.22C508.624 413.179 508.524 413.132 508.427 413.08Z" fill="black"/>
    <path d="M475.998 412.86C471.098 410.27 466.088 407.76 461.078 405.31C456.068 402.86 451.008 400.49 445.908 398.21C435.747 393.552 425.307 389.528 414.648 386.16C425.572 388.74 436.326 391.992 446.848 395.9C452.128 397.8 457.378 399.81 462.598 401.9C467.818 403.99 472.998 406.12 478.188 408.39L475.998 412.86Z" fill="black"/>
    <path d="M626.877 229.19C626.689 230.013 626.629 230.859 626.697 231.7C626.734 232.52 627.008 233.312 627.487 233.98C628.026 234.654 628.809 235.089 629.667 235.19C630.13 235.26 630.598 235.293 631.067 235.29L632.507 235.13L631.117 235.62C630.626 235.735 630.128 235.816 629.627 235.86C628.523 235.957 627.425 235.628 626.557 234.94C625.696 234.195 625.064 233.22 624.737 232.13C624.397 231.073 624.225 229.97 624.227 228.86C624.256 228.523 624.41 228.21 624.659 227.981C624.908 227.753 625.234 227.626 625.572 227.626C625.91 227.626 626.235 227.753 626.484 227.981C626.733 228.21 626.888 228.523 626.917 228.86C626.919 228.971 626.905 229.082 626.877 229.19Z" fill="black"/>
    <path d="M546.508 385C548.763 381.121 550.79 377.115 552.578 373C554.392 368.883 555.932 364.65 557.188 360.33C558.458 356.009 559.226 351.557 559.478 347.06C559.788 342.523 559.049 337.975 557.318 333.77C559.459 337.876 560.626 342.42 560.728 347.05C560.894 351.691 560.521 356.335 559.618 360.89C558.744 365.448 557.561 369.942 556.078 374.34C554.609 378.773 552.876 383.114 550.888 387.34L546.508 385Z" fill="black"/>
    <defs>
        <radialGradient id="paint0_radial" cx="0" cy="0" r="1" gradientUnits="userSpaceOnUse" gradientTransform="translate(345.379 278.62) scale(316.83)">
            <stop offset="0.5" stop-color="#F4EBD0"/>
            <stop offset="1" stop-color="#F4EBD0" stop-opacity="0"/>
        </radialGradient>
    </defs>
</svg>
