<svg width="302" height="83" viewBox="0 0 302 83" fill="none" xmlns="http://www.w3.org/2000/svg">
    <g opacity="0.5">
        <path opacity="0.5" d="M294.253 28.9996C294.933 28.7196 295.523 30.2696 295.253 30.9996C296.633 29.1196 296.663 31.2596 296.843 27.6196C297.743 25.8196 298.693 28.2996 297.673 29.7796L300.243 27.5496L298.713 26.9796C299.123 23.9796 301.163 27.8896 301.653 24.3496L298.873 24.6496L299.003 23.6496C298.883 23.8359 298.722 23.9924 298.533 24.1072C298.343 24.2221 298.13 24.2923 297.909 24.3125C297.688 24.3328 297.466 24.3025 297.259 24.224C297.052 24.1455 296.865 24.0209 296.713 23.8596C296.783 23.3596 296.713 22.5496 297.233 22.4596C293.873 22.2296 296.323 27.7596 293.543 28.7696C293.733 28.6996 294.003 28.7396 294.253 28.9996Z" fill="#F5EED6"/>
        <path opacity="0.5" d="M291.393 21.6199L290.223 25.4199L288.223 24.4199C288.223 25.7299 286.763 26.7899 287.733 27.9499C287.923 27.7399 288.303 27.3499 288.603 27.4699C288.383 30.3099 285.993 28.8899 286.603 31.7599C288.163 31.0099 288.403 31.6299 289.353 29.3299C289.989 29.4169 290.598 29.6407 291.138 29.986C291.678 30.3313 292.137 30.7899 292.483 31.3299C292.903 30.8999 292.963 29.1599 293.483 28.8099C293.368 28.8616 293.247 28.8985 293.123 28.9199L293.063 24.6499C292.613 25.5499 292.193 25.1299 291.693 25.2199L293.993 20.2199C293.253 16.2199 290.993 18.5799 290.083 16.9199C291.223 20.4899 289.213 18.6799 291.393 21.6199Z" fill="#F5EED6"/>
        <path opacity="0.5" d="M121.652 53.5997C121.162 53.6797 121.022 54.6897 120.952 55.1997L126.452 55.1197C126.282 53.9997 124.702 52.6097 125.762 51.9397C125.282 50.6997 123.842 51.7597 123.632 53.2697L124.032 51.5597C122.762 53.7497 121.902 49.4497 122.732 48.1597H122.622L119.102 56.5897C120.392 57.0997 120.102 53.7097 121.652 53.5997Z" fill="#F5EED6"/>
        <path opacity="0.5" d="M8.57031 49.3199C9.28031 48.9299 9.3703 48.5199 9.2903 48.1099C8.98604 48.4713 8.74285 48.88 8.57031 49.3199Z" fill="#F5EED6"/>
        <path opacity="0.5" d="M118.284 58.5801L117.184 61.2201C117.669 60.3945 118.039 59.5062 118.284 58.5801Z" fill="#F5EED6"/>
        <path opacity="0.5" d="M125.912 18.4901C125.926 18.3404 125.926 18.1897 125.912 18.04L125.422 19.3801C125.592 19.0901 125.762 18.7901 125.912 18.4901Z" fill="#F5EED6"/>
        <path opacity="0.5" d="M93.3014 68.4897C93.1814 68.5597 93.0814 68.5797 92.9414 68.6697C93.0752 68.6427 93.1995 68.5806 93.3014 68.4897Z" fill="#F5EED6"/>
        <path opacity="0.5" d="M140.823 3.41992L138.383 5.99992C138.703 4.79992 137.523 5.15992 138.043 3.75992C137.853 3.94992 136.982 4.41992 137.212 5.03992L137.712 4.95993C136.422 8.45993 137.203 9.79992 135.062 12.4699C136.393 14.5499 136.982 12.6399 137.682 11.0499C137.876 10.8647 138.091 10.7035 138.323 10.5699L140.323 5.67992L140.823 3.41992Z" fill="#F5EED6"/>
        <path opacity="0.5" d="M42.6829 29.4599V29.1899C42.6682 29.2793 42.6682 29.3705 42.6829 29.4599Z" fill="#F5EED6"/>
        <path opacity="0.5" d="M42.8109 28.0698L42.7109 29.1898C42.8409 28.6298 43.3409 28.0898 42.8109 28.0698Z" fill="#F5EED6"/>
        <path opacity="0.5" d="M118.691 56.3198C118.632 57.0852 118.495 57.8425 118.281 58.5798L119.101 56.5798C118.955 56.5093 118.817 56.4221 118.691 56.3198Z" fill="#F5EED6"/>
        <path opacity="0.5" d="M120.562 48.6796L122.622 48.1796L123.383 46.3696C122.39 47.0727 121.447 47.8446 120.562 48.6796Z" fill="#F5EED6"/>
        <path opacity="0.5" d="M96.563 70.5399C92.293 71.0799 97.613 66.4299 95.643 65.4399C94.463 65.9199 94.043 67.8699 93.303 68.4899C96.693 66.8199 92.843 74.9199 96.303 73.8899C95.813 77.4199 93.833 77.7399 92.673 76.7799C91.363 73.3799 93.823 74.2899 94.123 70.9499C92.753 71.4999 92.993 72.1199 92.413 74.0199C90.253 73.2299 87.953 78.2099 86.673 73.4899C85.113 74.2399 85.213 75.8699 84.313 77.6599C84.143 81.3099 86.633 79.5799 87.213 82.4499C87.011 81.9973 86.9119 81.5055 86.923 81.0099L88.273 81.7799C86.993 80.5099 88.453 78.1399 89.133 77.8499C89.633 77.7699 90.623 77.6099 90.483 78.6199L89.733 79.3999C90.733 80.5599 91.873 76.7399 92.893 78.7199C92.943 79.5399 92.563 79.9199 92.503 80.4299C93.653 77.9399 94.753 78.0899 96.453 76.3299L95.453 79.9399C96.813 75.9399 99.893 77.0799 102.023 79.1899C101.783 78.5799 101.353 78.1399 101.613 77.4499C102.863 76.5799 103.813 79.0599 103.233 80.9699C104.453 77.9699 107.893 83.4899 109.553 79.5999L117.213 61.2199C117.003 61.6274 116.689 61.9723 116.303 62.2199C115.613 59.0499 115.233 59.4299 116.453 56.4399C115.253 58.1199 115.713 60.6699 113.913 60.7999C114.623 59.2099 114.803 55.5599 113.073 55.1899C108.763 58.3599 105.903 67.3799 101.883 71.9899C101.733 69.5499 98.573 70.2299 97.033 69.6599C97.623 67.0299 98.763 66.2799 99.943 65.7499C99.203 65.5899 97.943 65.5199 96.943 65.3999L96.563 70.5399Z" fill="#F5EED6"/>
        <path opacity="0.5" d="M106.57 62.3296C106.488 62.1557 106.373 61.9994 106.23 61.8696C106.253 61.9652 106.295 62.0553 106.354 62.1343C106.412 62.2134 106.486 62.2798 106.57 62.3296Z" fill="#F5EED6"/>
        <path opacity="0.5" d="M100.271 65.8201C100.276 65.7335 100.276 65.6466 100.271 65.5601C100.141 65.6101 100.021 65.6801 99.8906 65.7401C100.019 65.7566 100.146 65.7834 100.271 65.8201Z" fill="#F5EED6"/>
        <path opacity="0.5" d="M117.68 50.7997C117.93 50.0997 118.12 49.8997 118.38 49.1997C118.213 49.4265 118.029 49.6405 117.83 49.8397C117.738 49.9796 117.677 50.1378 117.651 50.3034C117.625 50.469 117.635 50.6383 117.68 50.7997Z" fill="#F5EED6"/>
        <path opacity="0.5" d="M118.542 55.0996L118.402 56.0996C118.491 56.1831 118.588 56.2568 118.692 56.3196C118.755 55.9069 118.703 55.4849 118.542 55.0996Z" fill="#F5EED6"/>
        <path opacity="0.5" d="M80.2303 48.4297L79.8203 48.9597C80.0703 48.9197 80.1803 48.6997 80.2303 48.4297Z" fill="#F5EED6"/>
        <path opacity="0.5" d="M91.8009 66.39C93.2809 66.15 91.9809 62.74 94.0809 62.72L93.461 62.5C94.971 60.94 97.6209 61.66 99.4109 61.5C99.2109 62.95 100.501 63.27 100.291 65.5C101.06 65.2683 101.751 64.8325 102.291 64.2391C102.832 63.6457 103.202 62.9168 103.361 62.13C104.111 62.9 105.271 60.84 106.231 61.81C105.821 60.44 107.611 57.19 105.231 58.81C105.421 58.62 105.301 58.31 105.491 58.12C103.971 56.22 103.371 59.44 102.061 59.49C101.291 58.14 103.341 57.31 102.601 56.77C100.981 58.03 97.501 55.15 97.601 60.22C96.411 60.58 96.2509 59.46 95.9009 58.53C94.0209 63.94 88.951 56.22 88.961 63.12C89.651 62.85 90.7609 63 91.7609 61.52L91.8009 66.39Z" fill="#F5EED6"/>
        <path opacity="0.5" d="M115.181 51.1501C115.091 51.1501 114.971 51.1501 114.891 51.0801C114.983 51.1178 115.081 51.1414 115.181 51.1501Z" fill="#F5EED6"/>
        <path opacity="0.5" d="M133.93 71.17L133.31 75.69C129.77 76.77 128.49 75.5 125.4 75.69C125.321 75.4792 125.31 75.2488 125.369 75.0315C125.429 74.8143 125.555 74.6213 125.73 74.4799C123.55 75 120.3 74.05 118.73 76.13C118.04 76.13 116.22 74.66 116.91 73.33C116.57 73.73 116.19 74.12 115.8 73.97C115.7 72.35 116.66 73.5099 116.69 72.1799C116.38 72.0699 116.26 71.75 116.19 72.27C116.71 70.87 115.65 66.76 118.06 66.86C118.99 70.65 116.39 67.3 116.94 71.49C117.74 71.49 117.65 69.89 117.72 69.38C118.72 69.48 118.72 70.53 118.65 71.49C119.04 70.19 120.32 71.99 120.86 70.02C122.86 69.7 120.76 73.1699 122.05 73.1199L122.79 68.88L124.94 69.6799C128.06 68.1899 124.5 62.35 128.06 59.96C127.59 62.17 129.06 65.89 130.67 66.77C129.67 66.93 127.85 69.6899 126.57 68.4299C128.37 71.7499 124.09 68.83 125.02 72.63C125.92 70.83 127.4 70.63 128.56 71.56L128.18 71.95C129.41 72.4 130.35 67.95 132.05 69.66C132.89 69.52 132.73 70.72 132.58 71.66C133.29 71.07 133.93 70.23 133.93 71.17ZM132.09 72.06L130.96 71.64C131.23 72.34 131.65 72.32 132.09 72.06Z" fill="#F5EED6"/>
        <path opacity="0.5" d="M275.59 22.1699C275.7 22.2799 275.83 22.3899 275.93 22.5099C275.866 22.3561 275.744 22.2338 275.59 22.1699Z" fill="#F5EED6"/>
        <path opacity="0.5" d="M175.262 20.5398L175.912 20.6798C175.717 20.5603 175.488 20.5109 175.262 20.5398Z" fill="#F5EED6"/>
        <path opacity="0.5" d="M190 6.54004L191 5.54004C190.53 5.62004 190.24 6.00004 190 6.54004Z" fill="#F5EED6"/>
        <path opacity="0.5" d="M267.783 21.8799C267.723 21.9499 267.683 22.0399 267.633 22.0999L267.783 21.8799Z" fill="#F5EED6"/>
        <path opacity="0.5" d="M219.422 16.46C219.547 16.7989 219.729 17.1135 219.962 17.39C219.953 17.2031 219.899 17.0211 219.805 16.8592C219.711 16.6974 219.58 16.5605 219.422 16.46Z" fill="#F5EED6"/>
        <path opacity="0.5" d="M189.781 6.73004C189.781 6.73004 189.781 6.78004 189.831 6.81004L189.951 6.54004L189.781 6.73004Z" fill="#F5EED6"/>
        <path opacity="0.5" d="M168.791 8.17969C168.641 8.3095 168.501 8.44987 168.371 8.5997C168.55 8.50547 168.697 8.35899 168.791 8.17969Z" fill="#F5EED6"/>
        <path opacity="0.5" d="M169.711 20.1997C169.545 20.3084 169.406 20.4517 169.301 20.6197L169.711 20.1997Z" fill="#F5EED6"/>
        <path opacity="0.5" d="M147.071 12L146.191 12.61C146.375 12.5812 146.549 12.5114 146.701 12.4058C146.854 12.3001 146.98 12.1614 147.071 12Z" fill="#F5EED6"/>
        <path opacity="0.5" d="M167.382 17.4199C167.323 17.6099 167.276 17.8037 167.242 17.9999C167.306 17.9189 167.351 17.8252 167.375 17.7251C167.399 17.6251 167.402 17.521 167.382 17.4199Z" fill="#F5EED6"/>
        <path opacity="0.5" d="M281.193 34.7998H281.133V35.2898L281.193 34.7998Z" fill="#F5EED6"/>
        <path opacity="0.5" d="M283.332 28.6299C283.582 28.4999 283.852 28.3899 284.102 28.2799C283.955 28.2698 283.807 28.2965 283.673 28.3576C283.538 28.4187 283.421 28.5123 283.332 28.6299Z" fill="#F5EED6"/>
        <path opacity="0.5" d="M232.23 23.2798C232.46 23.8898 233.01 24.6198 232.75 25.2798C233.2 24.4398 233.17 22.2898 232.23 23.2798Z" fill="#F5EED6"/>
        <path opacity="0.5" d="M276.892 61.3299C277.014 60.8336 277.178 60.3485 277.382 59.8799C277.052 60.4999 276.772 60.9999 276.892 61.3299Z" fill="#F5EED6"/>
        <path opacity="0.5" d="M277.383 59.8797C277.543 59.5797 277.713 59.2597 277.863 58.9297C277.677 59.2326 277.516 59.5504 277.383 59.8797Z" fill="#F5EED6"/>
        <path opacity="0.5" d="M226.293 58.4496C226.274 58.2249 226.179 58.0134 226.023 57.8496C226.063 58.4196 226.163 58.5396 226.293 58.4496Z" fill="#F5EED6"/>
        <path opacity="0.5" d="M284.733 28.9998C284.873 27.9998 288.242 25.7898 285.402 25.2698C285.512 22.1298 287.223 23.8198 287.983 23.0398C287.433 22.2998 288.252 21.0398 288.082 19.8998C287.712 20.2798 287.263 21.1798 286.643 20.9598C286.363 19.5198 287.303 18.5498 288.033 19.0798C287.133 17.4198 289.182 16.5898 287.902 15.3198C285.172 16.4298 283.232 17.5698 281.312 22.1598C282.872 21.4098 284.613 20.4698 285.893 21.7398L285.353 24.4598C283.913 22.0598 283.023 23.8498 281.603 23.5998L284.793 25.0398C286.283 27.2998 285.283 27.8298 284.103 28.3198C284.273 28.3347 284.432 28.4126 284.549 28.5383C284.665 28.664 284.731 28.8285 284.733 28.9998Z" fill="#F5EED6"/>
        <path opacity="0.5" d="M282.582 52.8199L282.632 52.8999C282.689 52.8153 282.735 52.7248 282.772 52.6299L282.582 52.8199Z" fill="#F5EED6"/>
        <path opacity="0.5" d="M147.231 67L146.961 68C147.137 67.6962 147.23 67.3513 147.231 67Z" fill="#F5EED6"/>
        <path opacity="0.5" d="M280.681 39.6499C280.681 39.6499 280.651 39.6799 280.681 39.6499V39.6499Z" fill="#F5EED6"/>
        <path opacity="0.5" d="M154.053 67.21C154.053 67.2766 154.053 67.3566 154.053 67.45C154.003 67.36 154.003 67.28 154.053 67.21Z" fill="#F5EED6"/>
        <path opacity="0.5" d="M155.881 8.56972C155.881 8.43972 155.881 8.31971 155.831 8.19971C155.681 8.34971 155.751 8.47972 155.881 8.56972Z" fill="#F5EED6"/>
        <path opacity="0.5" d="M154.062 67C154.067 67.0833 154.067 67.1667 154.062 67.25C154.072 67.167 154.072 67.083 154.062 67Z" fill="#F5EED6"/>
        <path opacity="0.5" d="M187.234 56.9998C187.159 56.6921 187.069 56.3883 186.963 56.0898C186.937 56.2521 186.948 56.4182 186.994 56.5758C187.041 56.7334 187.123 56.8783 187.234 56.9998Z" fill="#F5EED6"/>
        <path opacity="0.5" d="M180.682 52.9997C180.682 52.8997 180.613 52.8097 180.562 52.6997L180.682 52.9997Z" fill="#F5EED6"/>
        <path opacity="0.5" d="M230.68 11C230.415 10.9616 230.145 11.0108 229.91 11.14C230.04 11.1809 230.178 11.1896 230.312 11.1652C230.447 11.1408 230.573 11.0841 230.68 11Z" fill="#F5EED6"/>
        <path opacity="0.5" d="M154.002 67.4497C153.921 67.7921 153.811 68.1267 153.672 68.4497C153.819 68.1298 153.93 67.7943 154.002 67.4497Z" fill="#F5EED6"/>
        <path opacity="0.5" d="M197.212 43.23C197.142 43.34 197.082 43.44 197.012 43.53C197.054 43.5745 197.094 43.6212 197.132 43.67L197.212 43.23Z" fill="#F5EED6"/>
        <path opacity="0.5" d="M200.632 45.2298C200.533 45.5276 200.452 45.8316 200.392 46.1398C201.612 45.0098 203.852 46.2398 204.122 43.3498C203.712 43.4198 201.562 41.7198 201.932 40.0198C201.082 40.7498 199.822 38.7198 199.362 39.1998C200.762 40.7798 199.512 41.6398 198.572 42.6098C197.712 41.7698 198.732 40.2898 197.992 39.7498L195.992 40.0698L197.722 40.4498L197.192 43.2298C197.257 43.1465 197.317 43.0597 197.372 42.9698C200.312 41.6698 197.642 46.9998 200.632 45.2298Z" fill="#F5EED6"/>
        <path opacity="0.5" d="M200.394 46.1396C200.194 46.335 200.037 46.57 199.934 46.8297C200.204 46.7797 200.314 46.4996 200.394 46.1396Z" fill="#F5EED6"/>
        <path opacity="0.5" d="M212.332 50.73C212.526 50.6102 212.702 50.4619 212.852 50.29C212.752 50.4 212.532 50.53 212.332 50.73Z" fill="#F5EED6"/>
        <path opacity="0.5" d="M124.84 46.83C124.9 47.65 126.6 49.34 126.57 47.2C126.06 46.98 125.57 46.76 125.04 46.52L124.84 46.83Z" fill="#F5EED6"/>
        <path opacity="0.5" d="M244.852 38.2998C244.67 38.2307 244.474 38.21 244.282 38.2398C244.282 38.3498 244.202 38.4698 244.172 38.5798C244.292 38.8898 244.662 38.4998 244.852 38.2998Z" fill="#F5EED6"/>
        <path opacity="0.5" d="M202.454 39C202.188 39.2766 202.007 39.6237 201.934 40C202.212 39.7331 202.395 39.3816 202.454 39Z" fill="#F5EED6"/>
        <path opacity="0.5" d="M245 43.3799C245.328 44.1314 245.547 44.9262 245.65 45.7399C246.14 45.7399 246.49 44.6399 246.99 44.2399C246.38 44.5499 245.73 44.3399 245 43.3799Z" fill="#F5EED6"/>
        <path opacity="0.5" d="M123.832 45.9198C123.685 46.0798 123.535 46.2298 123.382 46.3698L123.612 45.7998C123.222 45.5898 122.832 45.3798 122.442 45.1498C122.306 45.2937 122.143 45.4093 121.962 45.4898C122.065 45.3277 122.123 45.1416 122.132 44.9498C122.002 44.8758 121.879 44.7922 121.762 44.6998C120.822 46.9198 118.502 48.5398 117.832 49.8398C117.526 50.2527 117.126 50.5869 116.665 50.8147C116.204 51.0424 115.696 51.1573 115.182 51.1498C115.812 51.1498 116.652 50.7498 116.402 49.5298C115.122 48.2498 114.502 44.5798 112.292 47.7298H113.582L110.672 52.4798C109.672 50.4798 112.122 50.1098 112.532 48.3998C110.262 50.7398 108.382 44.4798 107.332 48.5998C107.182 46.1598 106.932 42.0798 105.452 42.3198C106.522 45.1098 104.562 44.1098 105.452 47.0898C104.932 48.4898 103.792 46.2098 103.702 48.0398L103.842 47.0398C101.302 43.1698 100.472 49.2298 99.3917 51.2198C96.3917 52.2198 94.9517 50.6398 92.4717 51.0498C92.3817 49.4098 91.7017 44.9198 90.7117 45.0498C90.2417 47.2598 88.0017 48.2798 87.7717 51.1198C89.5517 52.2998 89.2317 48.7398 90.2917 48.1198C91.1817 51.1198 90.3717 51.0598 91.5817 52.8398C90.5817 51.6798 87.1717 54.3798 86.1017 51.5898L86.4817 51.1998C84.7717 49.5098 84.4817 42.4998 81.6017 46.7398L80.2417 48.4798C80.2956 48.1923 80.3323 47.9018 80.3517 47.6098C78.1317 47.3098 78.7417 44.0898 76.2817 46.6098C76.4717 46.4198 76.3517 46.1098 76.5517 45.9098C75.1517 44.3198 73.7417 47.5198 72.6817 48.1898C72.0417 45.8298 72.8417 45.8598 73.2317 44.1898C70.7817 43.2798 68.1217 47.3298 66.5917 50.1898L65.0017 48.7598C65.9417 47.7598 67.0917 45.2898 66.8017 43.8598C65.9317 44.3398 66.1017 45.4598 64.8717 44.9998C65.1804 43.3621 65.615 41.7506 66.1717 40.1798C63.6217 37.6498 65.6017 45.5398 63.8217 40.8998C63.0217 40.8998 62.5517 43.0798 62.4617 44.8998L61.0017 42.5098C60.8417 44.8398 59.0517 44.9698 57.8817 45.3198C57.7317 46.3198 58.8217 47.7998 59.2717 46.8998C59.1817 48.7298 57.9317 49.5898 57.1317 49.5498C56.8317 44.6798 51.8717 50.2598 52.8217 44.5498C49.2117 46.1398 44.1417 46.6298 41.7517 48.6698C40.9717 47.3198 39.3717 47.2498 40.3317 44.9598C37.4217 44.9598 35.9217 49.9598 33.0417 48.6198C32.8017 47.9998 34.3417 48.5698 34.2417 46.9398C32.3617 48.9398 30.8117 44.8798 27.8917 46.1798C28.3817 46.0998 28.5217 45.0898 28.5917 44.5798C28.6417 45.3898 27.3917 46.2598 26.6417 47.0498C26.2117 46.6198 27.2017 46.4598 26.9717 45.8398C21.3217 43.4698 16.9717 50.0998 11.4017 49.8398C13.0017 49.8998 13.6117 46.6698 13.6217 45.3498L12.0517 45.2898C11.4517 46.8998 10.2717 46.8998 9.28172 48.1098C9.16172 47.4998 8.68172 46.8498 9.17172 46.1098C6.06172 42.8398 4.32172 52.0098 0.511719 50.3298L5.12172 43.8198L4.00172 41.5198L6.00172 38.5198C4.79172 36.7298 3.73172 40.8598 3.59172 38.4098C3.84172 37.7198 4.46172 37.9398 4.48172 36.6198C3.32172 35.6198 3.23173 37.4798 2.35173 37.9598C4.65173 32.9598 9.16172 33.0598 11.5917 31.8398C11.9717 31.4398 11.2717 33.0398 11.2017 33.5398C12.2017 33.3798 12.7817 34.9298 14.0317 34.0698C14.8017 31.9698 13.4417 32.5198 12.8217 32.2998C12.9117 30.4698 13.2217 30.5798 13.9017 30.2998C14.0517 32.7398 17.6617 31.1598 18.5417 34.1398C22.2017 33.3698 17.9617 27.8198 21.5417 28.8798L22.6017 31.6698C24.6817 29.5098 27.3617 27.5998 29.7017 28.1898L29.2117 28.2798C29.0239 29.156 29.1853 30.0709 29.6617 30.8298C31.4417 32.0198 33.0317 28.6298 34.1017 31.4298C36.1017 28.4298 39.4917 26.2598 41.8117 24.7298C42.4317 28.4098 38.8117 27.8498 37.8117 30.1498H39.9117C38.6117 30.1498 38.1017 31.5998 37.3217 33.6898C39.1617 34.3798 39.7717 31.1498 41.5217 30.2198C41.3817 31.2198 41.6217 31.8398 42.4217 31.8598L42.6517 29.4198C42.6609 29.5317 42.6977 29.6396 42.7588 29.7339C42.8199 29.8281 42.9033 29.9057 43.0017 29.9598L46.1117 28.4698C45.4517 27.4698 45.4217 25.2898 44.6217 25.2598C44.9117 26.6898 44.2217 26.9698 43.4217 26.9298C44.1217 25.3398 42.6417 25.5898 42.6517 24.2698C44.256 24.3669 45.8581 24.0464 47.3017 23.3398L47.6517 25.5898C49.1817 26.1598 50.8017 24.8998 51.8517 25.5898L51.5217 26.7798C53.3617 27.4698 55.1717 26.0198 56.8117 28.2198C58.4617 25.6498 60.5317 23.4998 61.8717 20.8098C62.5917 17.8998 66.6917 24.4598 68.5517 20.3698C68.6717 20.6798 67.2717 22.5498 66.6417 23.6498C67.8717 24.0998 68.8517 20.4898 69.2417 23.5498C66.4717 22.5498 69.3917 25.9898 68.1417 26.8598C68.7882 26.8642 69.4261 26.7119 70.0009 26.4158C70.5756 26.1197 71.07 25.6888 71.4417 25.1598C69.3417 25.1598 72.1817 20.9298 70.0617 22.2598C71.7117 19.6898 73.9517 18.6598 75.9117 19.6598C75.8281 20.1206 75.8725 20.5954 76.04 21.0326C76.2075 21.4699 76.4917 21.8529 76.8617 22.1398L77.4517 20.2198C78.3717 20.5698 75.6817 22.4898 77.5217 23.2198C79.4217 19.9498 83.2417 25.0798 84.0817 19.0198C85.5217 21.4198 81.3217 21.4498 83.5017 24.3798C82.2317 26.5598 80.5017 24.0598 80.0717 27.0798C81.3117 26.2198 80.5217 29.6398 81.3217 29.6698L82.7117 27.7998L82.4017 27.6898C84.7317 24.8298 88.4017 26.1998 91.4017 25.6898C93.9217 22.6398 95.6617 18.2398 98.6817 18.5798C97.7817 20.3598 101.192 20.2998 99.2817 23.5798C100.682 25.1598 102.062 23.2898 102.092 21.9698C100.862 21.5198 101.662 21.5398 100.622 20.8998C101.322 19.2898 102.932 19.3698 103.622 20.4098C103.322 20.2998 103.432 20.5998 103.372 21.0998C104.832 22.1798 104.072 19.5098 105.132 18.8498C105.472 21.0898 107.472 19.4398 108.442 20.5998L109.852 17.4098C109.082 19.5098 111.202 18.1798 111.422 20.1098C112.422 18.6298 113.272 16.0298 114.802 16.5898C114.172 17.6898 116.202 18.1798 116.232 20.3098C118.862 22.3098 120.582 14.4898 123.072 17.5398C122.992 18.0398 122.492 19.4398 123.222 19.9798C123.792 19.3798 124.802 19.6398 125.412 19.3998V19.4598V19.3998C125.712 19.2898 125.902 19.0198 125.912 18.5098C126.912 16.4198 127.502 14.2898 129.562 12.5098C129.412 10.0698 127.672 11.0198 126.912 11.7998L126.262 14.2098C125.642 10.5298 124.402 14.8498 123.922 13.6098C125.162 9.28983 128.732 10.3598 130.922 7.69983C129.622 4.29983 126.782 3.76982 124.302 4.17982L125.392 5.64982H124.102L125.352 8.24983C124.122 7.78983 123.062 8.45983 121.952 8.30983C123.252 8.25983 123.762 11.6298 123.022 11.0998C121.572 8.69983 121.512 12.6598 120.412 12.5098C121.022 12.7298 121.822 12.7698 121.312 14.1698C119.122 11.2398 118.542 13.1698 116.552 10.0198C116.802 14.0898 114.072 10.4298 113.772 13.7598L114.702 14.0998L112.702 16.5598C110.902 13.2398 114.302 13.1798 111.562 10.8298C109.032 10.4298 109.092 14.6998 107.102 15.0098C107.762 12.6098 109.332 10.5398 110.942 10.6098L109.942 9.43983C110.452 8.04983 112.672 8.33983 113.782 8.43983C111.952 11.2098 114.642 9.28983 115.472 11.4398C115.622 9.10983 114.472 9.43984 115.842 7.59984C114.748 7.80711 113.617 7.57732 112.692 6.95984C116.272 8.01984 115.912 -1.13017 119.032 0.829831C117.592 1.87983 119.532 4.18984 119.702 5.31984C120.644 4.99206 121.529 4.51609 122.322 3.90983L121.812 0.539822C123.632 -0.920178 124.262 6.20983 126.362 2.73983C126.632 0.739835 124.512 2.05983 124.892 1.66983C127.762 -0.450173 128.792 4.97982 131.342 7.50982C131.388 5.82436 131.727 4.15972 132.342 2.58983C132.062 4.58983 132.722 5.58982 131.722 7.11982C132.572 7.97982 133.582 6.48984 134.332 5.70984C132.562 4.51984 135.062 2.79983 135.382 1.58983C136.302 1.92983 135.102 3.58983 134.542 4.18983C135.282 4.73983 136.152 7.70983 136.542 4.68983C136.542 6.80983 134.482 10.2898 133.112 10.8398L134.032 11.1798C133.402 12.2698 133.282 11.9598 132.362 11.6298C133.099 13.1872 133.31 14.9422 132.962 16.6298C132.842 16.3198 133.032 16.1198 132.962 15.8198C132.232 15.2798 131.662 15.8198 131.832 16.9898C131.172 19.8498 132.832 18.7798 133.362 20.2098L134.482 19.6298L138.312 10.4498C139.952 9.37983 140.682 11.5798 141.912 12.9598L142.252 10.5098C143.672 10.7598 145.022 11.5098 144.102 14.6498C144.052 13.8298 143.862 14.0198 143.562 13.8998C143.529 14.1652 143.458 14.4246 143.352 14.6698C143.352 14.8098 143.352 14.9598 143.282 15.0998C144.812 14.2998 145.762 13.7898 145.852 13.6898C143.262 17.2598 145.722 18.1498 145.292 22.5098L147.902 21.0898C146.322 19.7098 147.902 18.9598 148.432 18.3698C148.592 20.8198 150.542 18.3698 151.432 18.6898L151.362 19.1898C152.212 20.0498 153.702 19.7998 154.762 19.1398C154.712 18.3198 156.072 14.3198 156.762 11.8998C154.942 10.9898 156.022 9.99984 155.882 8.48983C156.062 8.61983 156.402 8.64983 156.442 8.33983C156.702 7.63983 156.092 7.40984 156.042 6.59984C154.112 7.73984 152.122 8.05982 151.332 11.4798C151.922 13.0298 152.332 9.99982 153.002 11.0398C152.052 13.3398 150.812 12.8798 149.212 12.8198L148.682 10.7698L147.072 11.9998C147.742 10.9198 147.342 8.76983 149.072 8.35983C148.852 6.42983 147.392 8.79982 146.352 8.14982L145.822 10.8698C146.032 9.35982 143.822 9.05983 145.382 6.98983L147.952 4.76983L147.242 2.90983L149.412 2.37983L148.892 3.78982C152.382 1.90982 149.892 9.20983 153.432 5.99983C154.532 2.69983 155.712 2.33982 157.862 3.14982C156.312 3.87982 157.702 5.46983 157.122 7.37983C158.702 8.75983 159.242 6.03983 160.062 4.74983C160.472 6.48983 160.752 7.91983 159.342 7.66983C159.162 11.3098 161.202 7.02982 161.342 10.7898C166.042 10.6798 165.112 -1.34016 170.602 3.34984L170.392 4.86982C173.882 2.97982 175.892 4.78983 179.122 3.59984L181.662 7.44983C181.092 8.03983 179.562 10.9198 180.282 12.7698C179.042 8.87983 177.732 10.2398 176.402 8.14982C176.383 8.98488 176.605 9.80766 177.042 10.5198C176.232 10.5198 175.832 8.73983 174.772 9.40983C174.772 10.2198 175.982 11.1798 175.112 11.6598L173.662 9.25982C171.732 10.3998 172.712 14.9998 170.442 13.8998C170.862 11.7598 171.722 8.66982 172.602 8.14982C171.602 7.68982 173.992 6.85983 173.042 5.57983C171.542 8.74983 170.822 6.23983 168.842 8.21983C169.072 7.77983 169.132 7.15984 169.622 6.95984L166.742 5.62983C167.452 7.47983 164.352 7.62983 164.622 10.4198C167.692 11.5598 166.792 9.89983 170.292 11.4198C169.292 12.0398 168.022 14.8398 167.432 17.4198C167.402 17.3183 167.334 17.2323 167.242 17.1798C166.702 19.8998 167.242 20.6398 167.242 25.3998C168.842 22.0098 169.902 24.7998 171.792 22.8498C172.142 20.2398 170.702 19.5198 169.792 20.1998L171.452 18.4698L171.122 19.6698L175.342 20.5398C174.542 20.6798 174.272 22.1998 173.852 23.3398C174.392 23.4398 174.932 24.1298 175.512 24.8798C175.392 22.3898 175.462 20.6398 175.992 20.6798C178.712 21.2698 180.212 23.5098 181.212 26.3598L181.532 26.1798C181.082 23.6298 183.462 21.5898 184.302 18.9798C184.302 21.6198 185.692 20.5698 186.482 21.9198C186.825 18.649 186.453 15.3426 185.392 12.2298C183.552 14.9998 184.392 15.0198 183.492 18.9498L180.552 21.5698L181.212 19.1598C179.742 18.0898 178.332 21.2798 178.442 18.1598C179.212 16.0598 180.492 17.3398 181.262 15.2298L180.262 14.0798C181.972 10.9998 181.142 17.0798 183.262 14.8998C182.502 12.2298 183.452 14.7098 184.342 12.8998C183.632 11.0398 180.692 13.6598 181.342 9.11982C182.422 7.11982 184.972 14.4398 186.402 9.92982L186.332 10.4498C188.442 11.0298 189.182 8.44983 189.962 6.80983C190.862 8.27983 192.102 6.20982 193.072 6.03982V7.36982L194.442 6.80983C193.782 9.21983 192.832 6.74984 191.652 7.09984L191.802 9.54983C190.442 6.63983 189.542 11.0698 188.482 13.1798C190.022 11.0598 192.812 13.7798 193.172 8.97983L194.172 11.4598L194.622 10.5698C195.332 12.4298 194.622 15.3498 193.242 15.8998C193.008 15.4581 192.907 14.9578 192.952 14.4598C192.322 15.5598 191.732 17.4598 190.202 16.8998L191.022 15.5998C190.033 15.4769 189.034 15.7382 188.232 16.3299C187.43 16.9216 186.886 17.7986 186.712 18.7798C189.298 19.6957 192.043 20.08 194.782 19.9098C195.552 14.3598 196.462 11.2498 196.852 6.09984C198.592 5.14984 200.952 4.43983 202.462 6.32983L202.322 7.32983C202.474 7.44122 202.647 7.52112 202.831 7.56486C203.014 7.6086 203.205 7.6153 203.391 7.58458C203.577 7.55385 203.755 7.48633 203.915 7.38592C204.075 7.28552 204.213 7.15426 204.322 6.99983C205.102 8.34983 203.792 9.71983 204.322 10.4498L206.812 8.71983C206.662 11.0598 204.562 11.0698 203.562 11.2298C203.752 11.0298 204.132 10.6498 204.012 10.3398C202.852 9.33983 200.692 13.3398 200.182 9.96983C199.622 10.5598 201.332 7.47983 199.422 7.30983C198.142 6.02983 197.722 9.05984 197.592 10.0698C197.592 11.3998 199.592 11.8898 198.892 13.4798C199.892 13.3098 200.292 11.6098 201.562 12.8798C200.562 13.0398 199.232 15.7198 198.712 13.6698C196.712 16.1298 197.032 22.3298 197.952 22.6698C197.742 20.7198 201.522 20.2698 198.952 17.7398C200.102 15.2398 202.202 15.2198 203.702 13.6598L203.632 14.1598L205.502 13.5398C205.022 14.3251 204.734 15.2124 204.662 16.1298L207.242 12.5898C205.792 14.9698 208.152 14.2398 208.812 15.2898C209.092 13.2898 210.102 11.7898 209.132 10.6398C208.042 9.16983 208.492 11.7298 207.502 11.8798L208.912 8.69983L209.032 9.00982L209.872 6.39982C211.782 6.57982 209.042 12.4598 211.492 9.90983L211.172 6.35983C214.002 6.87983 217.652 10.8798 219.652 9.23983C219.102 11.2398 218.852 14.5098 219.652 16.4398C218.792 15.8298 217.052 15.9598 215.812 16.2898C215.582 15.6598 217.362 12.0898 218.712 12.8498C218.062 7.02984 215.322 16.3698 215.162 10.4698C211.732 8.40983 212.602 16.1498 209.692 12.6898C209.692 15.3298 208.862 13.9798 208.692 16.2998C209.552 20.5998 212.582 16.1498 214.472 17.6598C214.16 17.9499 213.941 18.3256 213.842 18.7398C215.202 19.5098 215.752 18.9298 216.702 17.9498L216.582 17.6398C218.232 15.0598 217.582 19.6398 218.582 20.7598C218.962 20.3698 220.302 21.1298 220.092 19.1998L221.852 21.6998L221.762 18.7598C222.762 18.5898 222.972 20.5298 223.872 18.7598V16.1298L221.412 15.2098C222.662 14.3498 221.752 12.6898 223.132 12.1398C221.592 15.0198 224.212 13.5998 224.362 16.0398L225.362 14.5598L225.102 15.2598C225.892 16.6198 226.042 14.2598 226.972 14.6298C225.882 13.1598 225.162 11.3098 223.782 13.1798C224.696 11.8638 225.892 10.7674 227.282 9.96983C228.342 8.86983 229.092 10.8798 230.082 11.1698C228.172 12.2298 230.752 19.1698 226.932 17.2598C227.002 16.7598 227.312 16.8698 227.432 17.1798C226.922 13.8198 225.142 17.3898 224.312 18.6798C224.522 20.6198 223.662 21.0998 225.122 22.1698C224.642 20.9298 226.362 17.8498 227.762 19.4398L227.512 23.5798L229.512 24.0698L229.312 24.2698C230.082 26.9398 231.482 23.7498 232.882 25.2698C233.882 23.7898 237.772 24.9698 236.102 20.6298C237.362 23.2298 238.462 19.9198 239.842 19.3698L238.132 17.6698C240.132 14.6698 239.562 16.6198 241.182 11.8998C241.498 12.9567 241.566 14.0722 241.382 15.1598C244.092 15.3798 247.972 16.5498 249.562 13.1598C251.482 13.3398 251.782 18.2198 254.462 16.3098C255.032 15.7198 254.022 12.4298 255.802 13.6198C255.922 13.9298 254.092 16.6898 256.072 16.3698C257.482 13.1798 259.382 18.1298 261.212 15.3698C262.212 16.5198 263.862 16.0898 263.512 18.6098C261.982 18.0398 259.812 18.5598 259.512 19.7798C259.732 18.2498 258.422 18.2998 259.512 17.1298C257.202 15.2198 258.012 18.6898 255.932 17.3898C255.792 18.3898 257.002 20.1798 257.442 19.2798C257.442 22.7198 253.342 20.9398 255.192 25.0798C257.412 25.3698 258.072 18.1898 260.002 21.8198C259.232 23.9098 258.002 22.1398 257.002 25.7598L258.582 27.1398L259.732 24.6498L259.662 25.1598C262.462 28.3198 262.252 21.6098 264.752 19.8798C263.302 17.4898 265.092 13.8798 264.002 12.4398C265.672 11.9998 266.902 12.4398 266.912 15.9098C263.782 18.7198 266.732 19.5598 263.842 22.9898C264.312 24.2298 263.152 28.0398 264.842 28.4198C266.842 25.9598 264.262 25.5498 266.202 24.4198C266.356 24.7718 266.414 25.158 266.372 25.5398C267.262 23.7498 267.372 26.1898 268.482 24.2098L268.232 24.8998C269.562 26.9898 269.682 22.5298 270.832 24.8098C270.372 22.2498 271.592 22.7098 272.302 21.1098C271.142 20.1098 270.522 16.4698 268.232 16.6798C267.952 18.6798 268.122 19.8298 267.182 20.7998L268.672 20.5598C268.357 20.9596 268.069 21.3806 267.812 21.8198L266.382 20.8198C268.192 19.3698 267.382 17.2098 268.132 15.0998C269.792 15.9898 269.502 14.5498 270.542 15.2098C270.432 18.2098 273.742 20.2798 275.652 22.2098C275.352 22.0898 274.972 22.2098 274.762 22.0898C273.372 23.9698 275.712 24.5698 275.762 25.3898L276.762 23.8998C276.601 24.0823 276.513 24.3169 276.513 24.5598C276.513 24.8027 276.601 25.0373 276.762 25.2198C278.132 24.6598 278.052 21.7198 279.422 21.1698C279.522 22.7998 278.372 25.2798 279.212 26.1698C279.512 27.5898 280.442 31.3898 282.262 29.9498C282.336 29.6644 282.478 29.4013 282.677 29.1834C282.875 28.9656 283.124 28.7996 283.402 28.6998C283.313 28.7734 283.241 28.8656 283.192 28.9698L284.402 30.7498C283.402 33.5398 282.322 29.4298 281.292 32.2398L281.202 34.8898C280.402 34.8898 279.312 36.0398 278.812 37.4098C280.032 37.8698 280.292 37.1698 281.662 36.6198C281.758 37.7308 281.434 38.8374 280.752 39.7198L280.952 38.2098C279.322 36.0098 278.512 40.7498 276.482 40.2598C276.172 40.1498 276.362 39.9498 276.432 39.4498C274.782 42.0198 273.162 38.4998 271.562 41.8898L272.092 40.4898C271.002 41.6198 268.872 44.2298 266.742 46.7498V47.7498C266.982 48.3698 266.182 48.3398 265.742 47.9198C264.672 49.1798 263.652 50.3498 262.812 51.2098C262.969 51.7592 263.325 52.23 263.812 52.5298C264.142 51.3198 266.102 52.3098 265.812 49.5298C266.712 51.1798 268.172 48.7998 268.812 49.8498C267.602 48.0798 269.652 47.2498 269.862 45.7298C270.272 47.4698 271.662 45.5998 271.502 47.9298C271.742 48.5398 270.902 46.3798 270.392 47.7798C269.122 49.9598 272.712 49.6998 271.132 51.7798C273.132 50.1398 275.782 50.8498 277.852 48.6998L276.692 47.6998C277.612 48.0498 279.792 47.5298 279.952 48.6498C279.151 48.8289 278.365 49.0696 277.602 49.3698C277.552 51.9998 279.702 49.3698 279.792 50.9798L282.332 46.6098L281.222 46.4698C281.922 44.8698 284.222 46.7998 285.972 47.1698C284.972 50.7798 283.372 47.2598 281.562 48.7098C280.242 50.0798 282.372 52.1898 281.122 53.0598C281.452 53.8998 282.262 53.7998 282.662 52.8898L283.152 53.5498C282.042 56.8298 279.552 56.0898 277.892 58.9198C278.044 58.5644 278.151 58.1916 278.212 57.8098C277.984 57.5343 277.704 57.3065 277.388 57.1397C277.072 56.9728 276.726 56.8702 276.37 56.8377C276.014 56.8051 275.655 56.8434 275.313 56.9501C274.972 57.0569 274.656 57.2301 274.382 57.4598C275.042 58.4598 275.302 57.7898 275.682 57.4098C275.732 58.2198 274.552 58.5698 274.112 59.4698C275.272 60.4698 274.322 61.4098 275.062 61.9498C274.302 62.7298 273.692 62.4998 272.772 62.1598C272.292 60.9198 273.162 60.4498 273.072 58.8298C272.072 59.8298 271.692 55.9198 270.302 57.8298C272.142 58.5198 269.812 61.3698 269.182 62.4598L269.492 62.5698C268.902 64.4798 268.412 64.5698 268.002 62.8198C268.762 62.0398 269.492 62.5698 269.272 60.6398C268.676 60.6842 268.119 60.9521 267.712 61.3898L268.222 59.9898L265.752 60.3898C265.352 62.0998 264.702 64.5098 264.352 67.0398C263.762 65.4898 262.932 66.7698 262.352 67.3698L262.612 66.6598C261.522 65.1998 259.092 66.4198 258.882 67.9298C258.102 66.5798 264.402 58.3098 258.882 59.7098C256.782 59.7098 257.572 64.5398 256.372 66.1998C256.411 65.9293 256.394 65.6536 256.322 65.3898C255.412 65.0398 255.322 66.8798 254.562 67.6598C255.112 68.3898 255.912 68.4198 256.162 67.7198C255.892 69.7198 254.252 67.5398 253.552 69.1298C254.462 66.0198 251.772 67.9498 252.482 66.3498C250.652 64.3498 248.702 66.8098 247.742 69.0998C246.502 65.1998 245.572 69.6198 243.562 67.8198C243.872 67.9298 244.432 67.3498 244.862 67.7598C246.012 65.2898 242.772 66.4698 244.542 64.1998C244.162 64.5898 244.542 65.5198 244.902 65.1298C245.323 64.8779 245.657 64.5038 245.861 64.0573C246.065 63.6108 246.128 63.113 246.042 62.6298L244.402 60.4398L244.982 59.8498L242.492 56.8498C242.474 57.3417 242.57 57.831 242.772 58.2798C239.892 56.9498 236.592 58.6398 234.062 58.2298C233.592 65.2298 227.842 61.2298 225.792 65.5198C226.385 63.2367 226.557 60.8648 226.302 58.5198C226.762 58.2298 227.692 55.3998 228.722 55.9898C228.892 57.1098 230.162 58.3798 229.342 59.6698C232.202 58.8698 228.962 56.5998 229.802 53.9998C226.642 54.6798 224.802 58.7698 222.802 60.4198V59.5898L221.292 61.1498C222.532 61.6198 222.472 65.5798 220.882 64.1498L221.072 63.9598C220.162 62.2898 218.282 64.2498 216.872 63.9598L215.872 66.2498C214.452 65.9898 214.392 61.7298 213.932 59.1798C211.712 58.8798 210.422 62.3698 208.852 64.4498C208.132 62.5898 204.802 62.1498 206.572 59.8898C204.572 61.5298 204.972 71.4998 201.572 65.9798L202.462 64.1798C199.182 64.5498 194.462 68.1198 192.982 66.2398C194.192 59.7898 188.872 59.6798 188.292 53.3598C188.452 54.7998 187.222 55.2898 187.042 56.0598C186.772 55.3098 186.322 54.5998 185.842 55.8998C187.122 57.1698 184.942 62.4598 187.392 59.8998C186.152 64.2298 184.552 67.6198 181.842 67.3998V64.7598L183.992 65.5598C183.772 63.6198 184.882 63.7598 185.332 62.8698C181.332 61.3898 185.852 56.6998 181.772 57.0398C181.372 58.7498 181.632 58.0398 180.562 58.7198C181.062 58.6298 181.152 56.8198 180.352 56.7798L179.582 58.8898C178.152 54.4998 181.942 56.0298 180.722 52.8898C182.302 50.8198 185.032 49.7098 184.522 46.3498C181.952 45.1298 182.202 52.6498 179.522 51.1198L179.232 49.6898C178.292 50.6898 178.132 52.9798 177.612 54.3798C177.612 53.5698 177.332 52.9598 176.722 52.7298C175.122 56.1098 174.062 56.7798 172.582 60.4698C176.512 57.6998 175.942 63.0498 179.992 60.5798C179.362 61.6698 176.502 62.4698 176.332 66.1098V63.4698C175.012 64.8398 173.692 66.1998 172.032 65.3298L173.032 63.8498C170.842 65.6798 169.392 59.8498 167.652 64.2298C167.892 64.3577 168.168 64.4034 168.437 64.3601C168.706 64.3168 168.953 64.1867 169.142 63.9898C168.012 65.1598 166.592 64.8998 165.372 64.4498L162.832 68.8098C162.832 67.4998 161.242 67.4198 162.012 65.3298C160.192 63.3298 159.322 67.2598 158.272 67.9098C156.392 65.1098 159.892 66.6598 160.072 63.0198C158.868 62.4658 157.499 62.39 156.242 62.8078C154.985 63.2256 153.934 64.1058 153.302 65.2698C153.542 65.4674 153.735 65.7163 153.867 65.9984C153.999 66.2805 154.065 66.5886 154.062 66.8998C153.982 66.0698 152.942 66.2798 152.362 66.2598L152.002 67.9998C151.002 66.8398 151.172 65.8298 152.002 64.5398C151.082 64.2098 150.002 67.5398 149.002 65.0298C150.582 62.9698 152.582 64.7698 153.402 63.4798C150.112 65.1698 150.092 58.2698 145.922 60.4798C145.922 59.6598 146.572 58.0698 145.772 58.0398C143.902 58.6698 145.282 61.5698 144.702 63.4798C146.132 62.4098 146.802 63.4798 147.632 65.6198L147.252 67.0198C147.192 66.2898 146.252 66.2498 146.032 65.5498L145.792 68.3898C145.902 65.2498 144.462 62.8598 143.332 64.0298C144.472 66.3098 144.162 66.1898 144.472 69.7598C142.882 73.1498 142.682 66.4398 140.892 70.0198C141.032 69.0198 142.582 68.2598 141.242 67.4898C140.122 67.3498 140.242 69.7998 139.522 70.5798C140.372 67.9698 140.152 66.0198 141.062 62.9198C143.062 62.5898 141.862 62.9198 143.802 61.8198L142.162 59.6098C143.842 59.1798 143.382 56.6098 143.522 55.6098C140.652 52.9498 141.362 59.6098 139.522 58.8898C138.642 60.6798 141.252 59.2698 139.862 61.1398C138.142 60.7598 139.472 62.8498 137.532 63.9798L137.862 62.7898C137.262 61.2298 136.682 63.1398 136.002 63.4098C135.242 64.1998 136.852 72.4898 133.752 72.6698C133.868 72.1775 133.939 71.6753 133.962 71.1698L136.962 49.2198C133.403 49.2473 129.875 48.5675 126.582 47.2198C125.722 42.9298 129.172 43.6798 128.952 41.7498L130.602 42.6298C130.512 44.4498 127.132 43.1898 128.602 46.4098C131.522 45.0998 132.852 47.1898 135.602 43.4098C134.732 39.1098 131.942 44.1698 130.142 40.8498C130.892 41.1298 131.532 40.6598 132.142 40.0398C130.442 39.4898 128.632 38.8998 126.702 38.2298L126.262 39.2298C127.069 39.4784 127.847 39.8137 128.582 40.2298C126.862 39.8498 125.402 42.2298 125.292 45.3798L125.592 45.4898L124.972 46.4898C124.642 46.3298 124.232 46.1298 123.832 45.9198ZM12.1117 45.1798C12.2294 44.8218 12.3131 44.4535 12.3617 44.0798C12.2917 44.5398 12.3617 44.8398 12.1117 45.1798ZM157.582 35.3698C155.282 34.9098 152.972 34.0498 150.762 33.6698C154.762 39.8898 157.552 44.5998 150.892 44.4698L150.462 44.9198C151.008 45.2964 151.64 45.5311 152.3 45.6027C152.96 45.6742 153.627 45.5805 154.242 45.3298C155.382 43.1198 159.062 35.0198 159.022 34.3298C158.622 32.5898 158.022 34.4898 157.292 33.9598L157.582 35.3698ZM159.222 45.7798C160.522 46.4798 160.222 45.0998 160.432 43.8598L159.062 44.3298C159.274 44.7822 159.33 45.2921 159.222 45.7798ZM160.352 42.6198C160.278 42.6119 160.208 42.5845 160.148 42.5406C160.088 42.4967 160.041 42.4378 160.012 42.3698L160.352 42.6198ZM135.002 40.9998L135.132 40.9298L134.192 40.6398C134.285 40.7639 134.408 40.8621 134.55 40.9251C134.692 40.9881 134.847 41.0138 135.002 40.9998ZM137.642 43.9998L137.952 41.7298L137.072 41.4698C137.08 42.3708 137.278 43.26 137.652 44.0798L137.642 43.9998ZM146.142 51.4698C146.682 48.7498 148.472 48.6198 148.582 45.4698C148.646 45.1966 148.613 44.9096 148.489 44.6578C148.365 44.4061 148.158 44.2053 147.902 44.0898C147.422 44.0198 146.902 43.9298 146.382 43.8298C146.364 44.2749 146.262 44.7126 146.082 45.1198C146.612 45.5198 146.962 46.2998 146.752 48.2298C145.392 44.0198 145.532 51.2298 144.062 50.1498C143.612 52.4598 145.712 52.4398 146.152 51.5498L146.142 51.4698ZM259.002 43.3598C259.052 43.6298 259.192 44.3598 259.392 45.2098L258.392 46.7698C256.542 46.0798 255.062 41.5598 253.392 45.4498C252.612 44.4498 252.202 42.4498 251.802 40.7098C252.17 40.8218 252.51 41.0091 252.802 41.2598C257.502 35.5698 255.272 47.2598 259.002 43.3598ZM237.792 37.8098C237.933 37.6006 238.022 37.3606 238.052 37.1098C233.922 42.8798 230.532 44.5498 228.312 44.3298C228.742 46.6198 230.732 48.3898 231.682 49.3298L230.842 51.9298L230.312 49.8798L228.862 52.2498C229.272 54.0098 230.442 53.6398 231.232 54.9898C231.302 54.4998 233.812 51.4498 234.522 49.8498L232.522 48.0398C233.062 48.7698 235.732 48.1698 236.792 47.4998C236.792 46.1898 234.982 44.1798 234.792 47.0198C234.582 45.0798 236.682 45.0198 235.352 43.0198C236.932 40.9498 239.432 42.6798 240.592 43.6398L240.792 46.8998C242.072 48.1698 241.652 42.9698 243.172 44.8998C241.312 45.5298 243.482 48.4698 242.002 48.7098C242.482 49.9498 242.002 52.1598 243.502 51.9198C244.732 47.5998 245.062 54.6198 246.232 50.8098C247.012 52.1598 245.392 53.4098 246.932 53.9898C248.692 51.7198 248.592 50.0898 248.702 46.9898C247.052 46.1098 246.852 51.0798 245.502 50.3098L248.182 44.9398C247.692 44.1698 247.322 44.0898 247.012 44.3098C247.701 43.7424 248.189 42.9671 248.402 42.0998C248.622 41.4898 248.832 40.9598 249.022 40.5098C247.502 40.5098 246.152 40.3998 245.912 39.0598L246.122 37.5398C245.582 36.1398 244.712 37.2398 244.302 38.3498C242.942 38.5198 241.582 40.6398 241.302 38.6698L241.812 37.2798C240.525 37.6973 239.173 37.8769 237.822 37.8098H237.792ZM183.002 34.3498C184.002 39.9298 185.132 44.8698 189.862 43.8898L189.492 44.2698C191.882 47.7798 194.142 39.6398 197.042 43.5298C195.632 45.6398 195.712 45.4498 194.162 50.2598L195.672 48.6798C195.252 51.6798 196.752 50.1498 197.862 50.2898L196.862 53.9098C196.202 52.9098 194.472 52.4898 194.522 53.3198C194.902 52.9198 192.252 48.7498 190.812 49.7998C190.962 52.2498 194.002 51.2598 192.642 55.2598C193.842 53.5798 193.992 56.0298 195.242 55.1698C194.042 56.8498 194.942 58.5098 194.052 60.2898L196.052 59.4598C196.102 60.2798 193.052 61.2698 194.742 64.2798C195.572 62.9998 197.742 64.6098 197.802 61.9698L197.852 62.7898C199.392 63.3598 198.532 59.0498 200.422 60.5598C200.422 59.2298 200.082 58.3098 199.422 58.5598C198.852 59.1498 198.762 60.9698 197.592 61.3398C197.062 59.2698 199.012 61.5898 198.192 58.0998C197.782 56.3698 195.082 59.5998 195.942 55.6798L197.482 56.2498C197.482 53.6098 198.632 53.7598 198.602 51.6298C199.542 50.6298 200.422 53.6298 201.382 51.3398C201.782 49.6298 201.082 46.4598 202.672 47.8398C203.912 51.7398 207.572 50.9798 208.942 50.4298L210.132 48.7398C210.032 47.1198 207.852 48.9598 208.612 46.8598L210.482 46.2198L210.342 47.2198C210.962 47.4398 211.592 46.3498 212.162 45.7698C211.572 47.6698 210.232 46.9098 210.492 49.6598C211.372 50.1998 211.492 51.2198 212.312 50.6598C212.206 50.7733 212.125 50.9074 212.073 51.0536C212.022 51.1998 212.001 51.3551 212.012 51.5098C213.782 52.6998 213.722 48.4398 214.172 47.5098C215.952 43.9398 212.372 44.1898 212.602 41.3598L217.812 39.8498C217.255 40.7131 216.998 41.7359 217.082 42.7598C218.362 44.0298 217.082 44.8898 218.912 44.7598C218.782 40.9998 221.172 42.4198 222.432 40.2498C223.032 41.7798 223.152 42.0898 221.852 42.1398C222.002 44.5798 223.742 43.6398 224.362 43.8598C224.722 43.2598 225.362 42.8598 225.712 42.3598C225.444 41.7193 225.38 41.012 225.529 40.3339C225.677 39.6558 226.031 39.0399 226.542 38.5698L226.612 38.0598C224.762 37.3898 221.902 34.7298 220.752 37.2298L221.082 36.0198C218.942 33.8998 216.442 40.3998 215.462 35.7898C215.552 33.9598 215.032 35.3698 215.072 32.7298L213.502 34.7898L213.822 33.5998L211.152 34.1898L211.232 33.6998C209.962 36.0898 208.962 38.0398 208.172 39.6298C208.289 40.4296 208.171 41.2462 207.832 41.9798C207.402 42.5498 207.082 42.6298 206.832 42.4798C206.182 42.1498 205.742 40.4798 204.932 39.8198L207.412 39.5398C207.622 37.5898 207.412 35.5398 206.192 34.1898C206.692 34.1198 206.902 32.5998 206.282 32.3698C206.212 32.8798 204.652 33.6198 205.282 35.1798C202.922 35.8898 199.102 30.7598 195.532 34.4698C198.102 32.2398 193.462 31.8498 196.322 31.0498C194.322 27.9298 194.602 34.1298 192.572 33.6398C192.402 32.5198 193.682 33.7898 194.152 31.5698C190.772 30.3198 188.452 36.6198 185.152 35.6698L185.012 33.2398L183.002 34.3498ZM176.542 37.3498C175.912 37.6298 175.272 37.9198 174.632 38.1898C174.692 38.1898 174.752 38.1898 174.812 38.2698L172.922 40.2698C174.082 41.2698 174.852 43.8998 173.232 45.1498C173.362 44.1498 172.892 42.8998 173.452 42.3098C172.362 40.8498 169.972 39.4298 170.602 43.1198C172.692 39.6398 171.082 47.8098 172.732 45.2198C171.852 47.6198 170.972 46.5398 170.142 47.6098C170.481 46.6484 170.518 45.6064 170.248 44.6234C169.978 43.6404 169.414 42.7634 168.632 42.1098C168.072 42.6998 166.532 42.1098 165.632 43.1098C165.972 45.3598 165.152 46.6498 166.682 47.2098C166.545 47.4076 166.361 47.5677 166.146 47.6753C165.931 47.783 165.692 47.8347 165.452 47.8257C165.212 47.8167 164.978 47.7473 164.771 47.624C164.565 47.5006 164.393 47.3272 164.272 47.1198C164.662 46.7298 165.332 46.4498 165.272 45.6398C164.642 43.5698 163.902 43.6398 163.492 42.7698C163.172 42.8998 162.842 43.0098 162.492 43.1298C162.607 43.3777 162.688 43.6401 162.732 43.9098L161.652 45.9098C163.082 44.9098 162.312 46.9098 162.292 48.2698C162.292 45.6398 161.372 47.9298 160.882 48.0198L161.942 50.7998C161.432 52.1998 160.122 48.7998 160.392 51.5498C162.662 52.6598 163.532 52.1798 165.582 51.3498L164.752 49.1898C167.062 47.6598 166.172 52.8998 168.752 52.7898C169.832 50.7898 172.652 52.6598 172.752 48.6998C172.422 49.9098 174.362 52.2198 175.252 50.4298C176.252 46.8098 179.252 46.3198 178.312 44.6698C177.512 44.6698 176.432 46.6098 175.782 44.2598L177.342 43.5098L176.342 41.5098C176.802 42.2098 176.752 40.2898 176.512 37.3798L176.542 37.3498ZM141.662 15.1598L141.602 15.1098H141.662V15.1598Z" fill="#F5EED6"/>
        <path opacity="0.5" d="M282.102 35.1499C282.552 34.2499 283.662 34.4 283.442 32.46C283.472 34.59 281.462 32.7899 282.102 35.1499Z" fill="#F5EED6"/>
        <path opacity="0.5" d="M283.432 37.2301C283.512 36.7201 283.432 35.9101 283.952 35.8301L282.582 36.3801L283.432 37.2301Z" fill="#F5EED6"/>
        <path opacity="0.5" d="M284.822 51.79C285.522 50.2 285.972 49.31 287.082 49.45C287.492 54.65 285.262 50.9 284.762 55.75C286.762 56.24 287.422 51.7 289.092 51.26C288.262 49.09 284.882 47.85 284.822 51.79Z" fill="#F5EED6"/>
        <path opacity="0.5" d="M283.911 58.3599L285.041 57.1899L284.931 56.8799L283.801 58.0599L283.911 58.3599Z" fill="#F5EED6"/>
        <path opacity="0.5" d="M259.453 13.21C259.353 11.58 258.643 13.21 258.273 13.58C258.573 13.68 259.003 14.11 259.453 13.21Z" fill="#F5EED6"/>
        <path opacity="0.5" d="M37.5106 11.52L28.8906 13.09C31.3706 12.68 33.6606 12.47 37.5106 11.52Z" fill="#F5EED6"/>
        <path opacity="0.5" d="M230.863 23.8299C233.173 22.2899 234.203 19.4899 236.563 18.7799C233.463 15.5099 232.463 23.8899 229.863 20.5399L230.863 23.8299Z" fill="#F5EED6"/>
        <path opacity="0.5" d="M231.672 10.8696C232.062 13.9296 229.892 14.4496 230.222 16.6996C231.782 15.9496 230.952 13.7796 232.372 14.0396L231.672 10.8696Z" fill="#F5EED6"/>
        <path opacity="0.5" d="M242.161 61.4399L241.461 63.0299L242.021 62.4499L242.161 61.4399Z" fill="#F5EED6"/>
        <path opacity="0.5" d="M221.13 13.5899L221.39 12.8899L220.23 11.9199L221.13 13.5899Z" fill="#F5EED6"/>
        <path opacity="0.5" d="M221.641 12.1899L221.391 12.8899L221.641 12.1899Z" fill="#F5EED6"/>
        <path opacity="0.5" d="M241.262 68L242.302 68.65L242.812 67.25L241.262 68Z" fill="#F5EED6"/>
        <path opacity="0.5" d="M232.05 51.5897L232.99 50.5897C232.8 50.7997 231.53 49.5397 232.05 51.5897Z" fill="#F5EED6"/>
        <path opacity="0.5" d="M214.05 12.2798L212.91 13.4598L213.03 13.7598L214.16 12.5898L214.05 12.2798Z" fill="#F5EED6"/>
        <path opacity="0.5" d="M224.753 60C225.403 62.35 222.893 60.64 224.223 62.71C225.403 62.37 224.923 61.14 224.753 60Z" fill="#F5EED6"/>
        <path opacity="0.5" d="M211.06 44.0698C210.91 44.0698 210.75 44.1598 210.59 44.4198C210.763 44.3279 210.922 44.2099 211.06 44.0698Z" fill="#F5EED6"/>
        <path opacity="0.5" d="M211.062 44.0697C211.553 44.0697 212.063 44.9697 212.393 44.2897C211.773 43.2297 211.553 43.6297 211.062 44.0697Z" fill="#F5EED6"/>
        <path opacity="0.5" d="M205.403 44.6196L205.853 44.7896C205.393 45.9496 205.613 45.7896 206.013 44.8396C206.493 44.7596 206.463 44.0196 206.523 43.5096L206.813 42.5996C206.663 42.8996 206.533 43.1996 206.423 43.4496C205.693 43.4296 205.243 43.5396 205.403 44.6196Z" fill="#F5EED6"/>
        <path opacity="0.5" d="M184.363 4.99964C186.023 5.87964 186.453 6.29965 186.363 8.12965C187.933 8.70965 187.683 5.56964 188.633 4.83964C186.853 5.17964 186.493 4.33964 184.363 4.99964Z" fill="#F5EED6"/>
        <path opacity="0.5" d="M188.633 4.83001C188.842 4.7908 189.049 4.74073 189.253 4.68C189.145 4.6541 189.033 4.6542 188.925 4.68027C188.817 4.70635 188.717 4.75768 188.633 4.83001Z" fill="#F5EED6"/>
        <path opacity="0.5" d="M212.022 64.5801L210.992 67.3701L211.372 66.9801L212.022 64.5801Z" fill="#F5EED6"/>
        <path opacity="0.5" d="M181.912 4.06963C182.212 4.18963 182.712 4.06961 182.912 4.72961C183.002 2.89961 181.602 3.99963 181.912 4.06963Z" fill="#F5EED6"/>
        <path opacity="0.5" d="M188.293 39.86C188.463 40.98 189.523 40.31 189.953 40.74C189.333 40.51 188.833 37.14 188.293 39.86Z" fill="#F5EED6"/>
        <path opacity="0.5" d="M177.16 11.6C177.47 11.72 177.94 12.95 177.73 14.46C178.18 13.57 178.78 10.35 177.16 11.6Z" fill="#F5EED6"/>
        <path opacity="0.5" d="M185.273 39.5397L185.503 40.1597L186.633 38.9897L185.273 39.5397Z" fill="#F5EED6"/>
        <path opacity="0.5" d="M189.313 66.4997C190.583 64.3197 187.313 61.2397 189.483 59.3997C186.653 57.1197 189.703 62.4797 187.613 62.1297C188.833 62.8597 189.433 65.6197 189.313 66.4997Z" fill="#F5EED6"/>
        <path opacity="0.5" d="M187.611 62.1299C187.439 62.0137 187.239 61.9478 187.031 61.9399C187.217 62.0246 187.411 62.0883 187.611 62.1299Z" fill="#F5EED6"/>
        <path opacity="0.5" d="M169.684 48.3396C169.859 48.113 170.004 47.8642 170.114 47.5996C169.936 47.825 169.792 48.0741 169.684 48.3396Z" fill="#F5EED6"/>
        <path opacity="0.5" d="M180.941 63.9297L182.851 60.6597C181.581 62.8297 178.371 62.6597 178.571 65.9597C179.571 66.6197 180.861 65.7497 181.371 64.3497L180.941 63.9297Z" fill="#F5EED6"/>
        <path opacity="0.5" d="M159 4.87971L159.82 3.57971L158.82 3.19971C159.12 3.68971 158.58 6.07972 159 4.87971Z" fill="#F5EED6"/>
        <path opacity="0.5" d="M158.621 3.14006L158.821 3.20006C158.814 3.18097 158.803 3.16377 158.788 3.14983C158.773 3.13588 158.756 3.12557 158.736 3.11974C158.717 3.1139 158.696 3.11271 158.676 3.11624C158.656 3.11977 158.637 3.12792 158.621 3.14006Z" fill="#F5EED6"/>
        <path opacity="0.5" d="M173.293 46.7599C173.581 46.8839 173.902 46.9089 174.206 46.8312C174.51 46.7534 174.78 46.5771 174.973 46.3299C174.733 45.7099 173.203 45.1399 173.293 46.7599Z" fill="#F5EED6"/>
        <path opacity="0.5" d="M153.222 9.6098L154.582 9.0498L153.102 9.28979L153.222 9.6098Z" fill="#F5EED6"/>
        <path opacity="0.5" d="M146.87 4.06996L146.63 3.45996L145.5 4.62996L145.74 5.23996L146.87 4.06996Z" fill="#F5EED6"/>
        <path opacity="0.5" d="M155.173 68.16C156.103 68.5 156.823 65.58 156.583 64.96L154.793 65.09C155.243 67.65 155.283 65.01 156.323 65.66L155.173 68.16Z" fill="#F5EED6"/>
        <path opacity="0.5" d="M99.7105 8.86C100.11 7.15 102.07 8.13999 102.17 9.75999C101.91 10.47 100.85 11.14 101.51 12.18L103.06 7.98C105.12 10.6 101.5 13.5 100.48 14.98C102.58 15.52 103.2 12.76 105.48 12.78C104.788 12.1643 104.294 11.3569 104.06 10.46C103.98 7.46001 106.06 8.81 107.55 8.58C106.6 7.29 107.15 6.21 107.84 5.05C107.975 4.92747 108.069 4.76709 108.11 4.59L108.34 4.17999H108.16C108.163 3.7488 108.113 3.31892 108.01 2.89999C106.76 3.75999 105.8 1.29 105.01 1.25C105.8 6.06 102.28 2.37 101.27 3.84L100.1 4.32001H99.6605C99.6308 3.93481 99.6774 3.54752 99.7975 3.18033C99.9176 2.81313 100.109 2.47321 100.36 2.17999C99.8105 3.12999 97.9605 2.79 98.1305 4.34L93.9005 4.41C93.74 4.16707 93.6185 3.9005 93.5405 3.62C93.419 3.86461 93.3671 4.1379 93.3905 4.41L74.9805 4.72C75.8905 5.1 76.6805 6.2 77.6105 6.72C76.2105 9.91 79.1505 7.3 78.7405 10.31C78.1105 11.41 77.1805 11.06 76.6305 10.31C76.4305 11.83 77.2105 13.18 77.1205 15C79.4405 16.92 79.8005 9.63001 82.0705 10.74C81.9805 12.56 81.2805 14.16 82.7605 13.91L82.3805 14.31C84.7605 12.31 84.2405 18.44 85.7305 13.43V16.06C86.8105 14.06 88.9105 14.06 90.1005 13.7L90.0305 14.21C93.3405 11.21 91.8905 13.57 95.6205 12.3L93.9005 15.38C95.1905 16.65 95.4805 13.31 96.4005 13.65C96.3305 14.16 96.5505 16.09 95.6805 16.57L100.2 11.88C101.18 9.93001 99.8805 10 99.7105 8.86Z" fill="#F5EED6"/>
        <path opacity="0.5" d="M105.434 12.78C105.557 12.8556 105.694 12.9036 105.838 12.9209C105.981 12.9382 106.126 12.9242 106.264 12.88C105.993 12.8103 105.713 12.7767 105.434 12.78Z" fill="#F5EED6"/>
        <path opacity="0.5" d="M73.6328 4.7599H74.9228C74.7219 4.66182 74.5013 4.61084 74.2778 4.61084C74.0543 4.61084 73.8337 4.66182 73.6328 4.7599Z" fill="#F5EED6"/>
        <path opacity="0.5" d="M111.912 7.00008C111.132 5.64008 112.502 5.10008 112.642 4.08008L109.832 4.13008C109.832 5.13008 109.562 6.28008 109.622 7.21008L111.912 7.00008Z" fill="#F5EED6"/>
        <path opacity="0.5" d="M109.003 2.23975C108.881 2.92565 108.633 3.58322 108.273 4.17973H109.813C109.85 3.81454 109.795 3.44595 109.654 3.10725C109.512 2.76855 109.289 2.47042 109.003 2.23975Z" fill="#F5EED6"/>
        <path opacity="0.5" d="M109.312 56.4399L108.812 56.5299L108.062 57.3099L109.312 56.4399Z" fill="#F5EED6"/>
        <path opacity="0.5" d="M101.543 52C102.133 53.54 103.263 52.37 103.633 52C102.343 52 102.903 51.42 101.543 52Z" fill="#F5EED6"/>
        <path opacity="0.5" d="M103.141 68.48L101.891 69.35L102.011 69.65L103.141 68.48Z" fill="#F5EED6"/>
        <path opacity="0.5" d="M64.0709 15.1299C63.8709 15.1899 63.6709 15.2299 63.4609 15.2999C63.6782 15.3199 63.8953 15.2594 64.0709 15.1299Z" fill="#F5EED6"/>
        <path opacity="0.5" d="M74.811 12.6197C71.811 9.61971 76.811 10.1597 75.811 6.36971L74.191 7.62971L74.321 6.62971L72.321 6.95972C72.731 8.69972 73.041 8.80971 72.951 10.6397C70.301 9.91971 72.111 8.46971 70.171 6.15971L67.171 6.49971L67.411 5.94971C67.161 5.94971 67.051 6.21971 66.961 6.51971L56.961 7.6497C55.151 9.0997 57.961 10.9397 56.621 13.6497C58.721 13.6497 61.851 15.5797 62.031 11.9397C61.951 12.4397 61.821 13.4497 62.241 13.8797L63.461 10.8797L62.301 9.87971C63.521 6.87971 67.461 7.55971 68.181 9.41971C65.931 10.4197 67.061 14.0397 63.941 12.0797C64.081 12.9997 64.651 14.6297 63.941 15.0797C67.741 14.0697 71.001 15.7297 74.811 12.6197Z" fill="#F5EED6"/>
        <path opacity="0.5" d="M38.0834 14.37V14.04C38.0034 14.22 38.0034 14.35 38.0834 14.37Z" fill="#F5EED6"/>
        <path opacity="0.5" d="M39.3016 14.83L41.0916 11.25L38.3116 11.54L38.1016 14.04C38.3516 13.41 39.3316 12.14 39.7016 13.12L39.3016 14.83Z" fill="#F5EED6"/>
        <path opacity="0.5" d="M43.1605 9.08984C41.7305 10.1598 41.8005 13.0898 42.5905 14.4498C41.2705 15.8198 41.8905 11.2798 40.9805 14.4498C40.9805 16.5698 42.6405 15.3298 42.9805 14.9298L43.1605 9.08984Z" fill="#F5EED6"/>
        <path opacity="0.5" d="M53.7733 10.6499L53.3633 11.8699L54.3633 12.1899L53.7733 10.6499Z" fill="#F5EED6"/>
        <path opacity="0.5" d="M53.3633 11.87L52.3633 11.54C52.4006 12.3499 52.5009 13.1557 52.6633 13.95L53.3633 11.87Z" fill="#F5EED6"/>
        <path opacity="0.5" d="M49.7798 10.6897C49.3309 10.4502 48.8436 10.2912 48.3398 10.2197L49.7798 10.6897Z" fill="#F5EED6"/>
        <path opacity="0.5" d="M50.9125 11.4399V11.0599L49.8125 10.6899C50.1953 10.9154 50.5628 11.166 50.9125 11.4399Z" fill="#F5EED6"/>
        <path opacity="0.5" d="M52.3716 11.5401C52.2116 9.47005 52.0316 7.30006 50.6016 7.88006L50.8816 11.0601L52.3716 11.5401Z" fill="#F5EED6"/>
        <path opacity="0.5" d="M94.0401 65.3696L92.9102 66.5296L93.0302 66.8496L94.1602 65.6796L94.0401 65.3696Z" fill="#F5EED6"/>
        <path opacity="0.5" d="M87.522 63.48C87.2568 63.834 87.0258 64.2124 86.832 64.61C87.1837 64.3226 87.427 63.9241 87.522 63.48Z" fill="#F5EED6"/>
        <path opacity="0.5" d="M82.6713 77.5901C81.3413 75.5101 84.5013 74.8401 82.0413 73.9201C81.8213 71.9801 82.9813 69.4901 84.1413 70.4501C84.0513 72.2701 83.0113 71.6201 83.7213 73.4501C84.4913 71.3401 84.7813 72.7701 84.5113 70.0301C85.8113 68.3201 85.9513 66.3701 86.8313 64.5801C85.2713 65.7901 81.9813 62.9701 79.9913 66.4901C78.9013 69.8001 79.5613 74.3001 79.5613 79.0601C79.7213 80.2101 82.5613 80.7401 82.6713 77.5901Z" fill="#F5EED6"/>
        <path opacity="0.5" d="M84.7617 82.34C85.3817 82.58 85.5617 82.34 85.9417 81.99C85.8417 80.36 85.2617 82.27 84.7617 82.34Z" fill="#F5EED6"/>
        <path opacity="0.5" d="M70.6211 46.46C70.5011 47.14 69.3911 47.9799 69.6211 49.1499L71.3111 48.3C70.9211 48.18 70.7811 47.36 70.6211 46.46Z" fill="#F5EED6"/>
        <path opacity="0.5" d="M72.0603 47.9297L71.3203 48.2997C71.5003 48.3597 71.7303 48.2597 72.0603 47.9297Z" fill="#F5EED6"/>
        <path opacity="0.5" d="M70.543 46C70.543 46.14 70.593 46.29 70.623 46.42C70.6395 46.3483 70.641 46.2739 70.6272 46.2016C70.6134 46.1293 70.5847 46.0606 70.543 46Z" fill="#F5EED6"/>
        <path opacity="0.5" d="M45.692 9.50984C45.692 8.19984 44.962 8.97985 44.582 9.35985C44.892 9.46985 45.322 9.89984 45.692 9.50984Z" fill="#F5EED6"/>
        <path opacity="0.5" d="M17.3709 14.6499L16.7109 13.6499C16.9409 14.2299 17.0609 14.5399 17.3709 14.6499Z" fill="#F5EED6"/>
        <path opacity="0.5" d="M7.13 50.3696C7.11665 50.5977 7.07293 50.8231 7 51.0396C7.07993 50.825 7.12386 50.5986 7.13 50.3696Z" fill="#F5EED6"/>
        <path opacity="0.5" d="M7.00343 51C6.55343 52.09 5.14343 50.4 4.64343 52.05L4.70343 51.55L3.77344 52.55C4.65344 52.42 6.49343 52.63 7.00343 51Z" fill="#F5EED6"/>
    </g>
</svg>
